<svg width="18" height="19" viewBox="0 0 18 19" fill="none" xmlns="http://www.w3.org/2000/svg">
<g clip-path="url(#clip0_1961_24030)">
<path d="M9 18.5C13.9706 18.5 18 14.4706 18 9.5C18 4.52944 13.9706 0.5 9 0.5C4.02944 0.5 0 4.52944 0 9.5C0 14.4706 4.02944 18.5 9 18.5Z" fill="#D80027"/>
<path d="M4.92539 5.97656L5.70234 8.36719H8.21602L6.18398 9.84727L6.96094 12.2379L4.92539 10.7613L2.88984 12.2379L3.67031 9.84727L1.63477 8.36719H4.14844L4.92539 5.97656Z" fill="#FFDA44"/>
<path d="M10.6707 14.4391L10.0766 13.7078L9.19766 14.0488L9.70742 13.2578L9.11328 12.523L10.0238 12.7656L10.5371 11.9746L10.5863 12.9168L11.5004 13.1594L10.618 13.4969L10.6707 14.4391Z" fill="#FFDA44"/>
<path d="M11.852 12.2945L12.1332 11.3945L11.3633 10.8496L12.3055 10.8355L12.5832 9.93555L12.8891 10.8285L13.8312 10.818L13.0754 11.3805L13.3777 12.2734L12.6078 11.7285L11.852 12.2945Z" fill="#FFDA44"/>
<path d="M13.443 7.10566L13.0281 7.95293L13.7031 8.61035L12.7715 8.47676L12.3566 9.32051L12.1949 8.39238L11.2598 8.25879L12.0965 7.81934L11.9348 6.8877L12.6098 7.54512L13.443 7.10566Z" fill="#FFDA44"/>
<path d="M10.6941 4.53906L10.6238 5.47773L11.4992 5.83281L10.5816 6.05781L10.5148 7L10.0191 6.19844L9.10156 6.42344L9.70977 5.70273L9.21055 4.90469L10.0859 5.25977L10.6941 4.53906Z" fill="#FFDA44"/>
</g>
<defs>
<clipPath id="clip0_1961_24030">
<rect width="18" height="18" fill="white" transform="translate(0 0.5)"/>
</clipPath>
</defs>
</svg>
