<svg width="52" height="66" viewBox="0 0 52 66" fill="none" xmlns="http://www.w3.org/2000/svg">
<g id="Group 2787">
<g id="Group">
<path id="Vector" d="M10.154 30.5563C8.04954 30.6356 5.95644 30.8575 3.8864 31.223C3.06012 31.3764 2.17033 31.5834 1.63147 32.2335C1.0525 32.9391 1.04809 33.9535 1.2663 34.8454C1.76554 36.8588 3.25819 38.556 5.08214 39.55C4.5276 39.8329 3.94765 40.1373 3.57493 40.6363C3.20221 41.1354 3.09018 41.8928 3.4966 42.376C3.84954 42.7957 4.47927 42.8732 4.99937 42.7172C5.51948 42.5611 5.96205 42.2096 6.38022 41.8678C6.36181 42.2203 6.3424 42.5844 6.46739 42.9137C6.59238 43.243 6.89787 43.5288 7.24014 43.5227C7.52392 43.5116 7.76426 43.3198 7.93541 43.1102C8.75306 42.0947 8.42426 40.5679 7.84106 39.397C7.24617 38.225 6.40928 37.1267 6.29739 35.8191C6.29372 35.7244 6.29005 35.6297 6.33116 35.5624C6.39969 35.4503 6.54309 35.4272 6.67378 35.4148C7.88713 35.2827 9.08877 35.1496 10.3011 35.0293C10.5625 35.0045 10.8493 34.9582 11.0087 34.7477C11.1017 34.6258 11.1274 34.4628 11.1405 34.3106C11.2712 33.0592 10.9351 31.756 10.2101 30.7263" fill="#C8C8C8"/>
</g>
<path id="Vector_2" d="M27.8537 64.0544C38.5237 63.4075 46.9974 59.9737 46.7803 56.3848C46.5632 52.796 37.7375 50.411 27.0675 51.058C16.3975 51.7049 7.9238 55.1387 8.14091 58.7275C8.35802 62.3164 17.1837 64.7014 27.8537 64.0544Z" fill="#E3E3E3"/>
<g id="Group_2">
<path id="Vector_3" d="M32.6064 43.1822C32.0227 43.8048 31.9297 44.7526 31.9267 45.6137C31.8957 48.3133 32.2636 51.0352 33.0305 53.6379C33.0586 53.7229 33.075 53.8069 33.0562 53.8879C33.0228 54.003 32.9232 54.0653 32.8353 54.1286C31.6837 54.9149 30.7528 56.0152 30.148 57.2968C30.0039 57.6031 29.8782 57.9699 30.0413 58.2671C30.286 58.7128 30.916 58.6488 31.3991 58.5132C31.134 58.8563 31.1804 59.4148 31.4966 59.7133C31.8128 60.0118 32.3549 60.011 32.6638 59.7071C32.3723 60.0833 32.5424 60.7115 32.9435 60.9819C33.3455 61.2405 33.8927 61.1812 34.2912 60.9321C34.6896 60.683 34.9831 60.2834 35.2201 59.8553C35.984 58.5047 36.3538 56.8018 37.5866 55.8926C37.9509 55.6288 38.355 55.451 38.7204 55.1755C39.0857 54.9 39.3889 54.5247 39.4164 54.0669C39.4308 53.7613 39.3155 53.4564 39.1982 53.175C37.985 50.0031 37.5146 46.5526 37.8153 43.1799C36.1327 43.4252 34.3943 43.3589 32.7307 42.9686" fill="#C8C8C8"/>
</g>
<g id="Group_3">
<path id="Vector_4" d="M21.435 43.594C20.6531 43.9164 20.1811 44.7492 19.8184 45.5441C18.6891 47.9962 17.9212 50.6326 17.5617 53.3158C17.5547 53.3978 17.5349 53.4905 17.4821 53.5568C17.4156 53.6455 17.2956 53.6706 17.1766 53.684C15.8119 53.9329 14.4979 54.552 13.4406 55.4762C13.1855 55.7022 12.9255 55.9867 12.9431 56.3304C12.9819 56.8411 13.5899 57.0348 14.0782 57.1121C13.6955 57.3153 13.5089 57.8421 13.6747 58.2457C13.8405 58.6493 14.3402 58.8691 14.7423 58.7147C14.3224 58.9384 14.2194 59.5903 14.4798 59.9902C14.7402 60.3901 15.2673 60.5651 15.7325 60.4988C16.2095 60.4334 16.6314 60.1863 17.0211 59.9011C18.2676 58.9695 19.2938 57.5824 20.7953 57.2508C21.2275 57.158 21.6868 57.162 22.12 57.0575C22.5532 56.953 22.9964 56.7313 23.208 56.3247C23.3491 56.0535 23.3655 55.7245 23.3799 55.419C23.5636 52.0363 24.5342 48.6856 26.1902 45.7241C24.5444 45.2645 22.9969 44.483 21.6362 43.446" fill="#C8C8C8"/>
</g>
<g id="Group_4">
<g id="Group_5">
<path id="Vector_5" d="M28.4728 10.5432C42.6751 11.7597 49.2288 21.3717 48.3757 32.1546C47.5086 43.1016 39.0325 51.3908 25.0829 50.1133C10.759 48.8038 4.70257 39.9896 5.18398 28.4551C5.61149 18.2375 14.2237 9.32273 28.4728 10.5432Z" fill="#D2D2D2"/>
</g>
</g>
<path id="Vector_6" d="M16.197 31.3139L15.6467 33.0604C20.3185 33.8263 25.9631 32.7286 31.0986 31.2451L30.6364 29.6243C25.4902 31.0951 20.3925 31.8621 16.197 31.3139Z" fill="#ACACAC" stroke="#ACACAC" stroke-miterlimit="10" stroke-linecap="round" stroke-linejoin="round"/>
<path id="Vector_7" d="M17.4589 28.1416C18.7253 28.2501 19.8399 27.3101 19.9485 26.042C20.0572 24.774 19.1186 23.6581 17.8523 23.5497C16.5859 23.4412 15.4713 24.3812 15.3626 25.6492C15.254 26.9172 16.1925 28.0331 17.4589 28.1416Z" fill="#ACACAC"/>
<path id="Vector_8" d="M25.9782 27.1839C27.2445 27.2924 28.3592 26.3523 28.4678 25.0843C28.5765 23.8163 27.6379 22.7004 26.3716 22.592C25.1052 22.4835 23.9906 23.4235 23.8819 24.6915C23.7733 25.9595 24.7118 27.0754 25.9782 27.1839Z" fill="#ACACAC"/>
<g id="Group_6">
<path id="Vector_9" d="M42.4092 25.4603C44.5123 25.5342 46.6024 25.7605 48.6794 26.139C49.503 26.2921 50.4044 26.4991 50.9382 27.1467C51.5147 27.845 51.521 28.8722 51.2927 29.7494C50.7895 31.7713 49.2906 33.4483 47.4725 34.449C48.0257 34.7324 48.6003 35.0412 48.9813 35.5458C49.3506 36.0495 49.4628 36.8025 49.056 37.2869C48.702 37.7049 48.071 37.7807 47.5535 37.6302C47.0361 37.4796 46.5953 37.1233 46.1661 36.7679C46.1828 37.1233 46.1995 37.4788 46.0768 37.8105C45.9541 38.1422 45.6473 38.4227 45.2943 38.416C45.0125 38.4037 44.7692 38.2177 44.5991 38.0025C43.7795 36.9765 44.1099 35.459 44.7046 34.2945C45.2993 33.1301 46.1367 32.0218 46.2598 30.7225C46.2678 30.6288 46.2758 30.5351 46.2234 30.4598C46.1505 30.3474 46.0111 30.3236 45.8824 30.3126C44.6795 30.186 43.4658 30.0466 42.2628 29.92C42.0065 29.8862 41.715 29.8495 41.5566 29.6353C41.4613 29.5091 41.4393 29.3538 41.4289 29.1995C41.3003 27.9495 41.636 26.6449 42.3611 25.6096" fill="#C8C8C8"/>
</g>
<g id="Group_7">
<path id="Vector_10" d="M22.6324 9.11071L15.2058 7.21199L15.7548 14.4216C15.8426 15.5974 19.1279 16.3154 23.0905 16.0058C27.0531 15.6962 30.1958 14.5022 30.0963 13.3254L29.5539 6.17537L22.6324 9.11071Z" fill="#BDBDBD"/>
<path id="Vector_11" d="M22.6328 9.11077L15.2062 7.21205L15.3101 8.61334L22.6675 10.4943L29.6516 7.51715L29.5554 6.16371L22.6328 9.11077Z" fill="#B0B0B0"/>
<path id="Vector_12" d="M22.5662 9.19947L31.849 5.25098C32.3995 5.01494 32.3391 4.20736 31.7621 4.06354L21.9948 1.56312L12.712 5.51162C12.1615 5.74766 12.222 6.55524 12.7989 6.69906L22.5662 9.19947Z" fill="#BDBDBD"/>
</g>
<path id="Vector_13" d="M31.8107 27.7839C32.7712 27.5644 33.44 26.9063 33.3045 26.3142C33.1689 25.722 32.2803 25.4199 31.3198 25.6395C30.3592 25.8591 29.6905 26.5171 29.826 27.1093C29.9616 27.7015 30.8501 28.0035 31.8107 27.7839Z" fill="#C3C3C3"/>
<path id="Vector_14" d="M13.5348 30.0752C14.5183 30.1359 15.3457 29.6935 15.3829 29.0872C15.4201 28.4808 14.6531 27.9401 13.6696 27.8794C12.6862 27.8187 11.8587 28.2611 11.8215 28.8674C11.7843 29.4738 12.5514 30.0145 13.5348 30.0752Z" fill="#C3C3C3"/>
</g>
</svg>
