<svg width="60" height="45" viewBox="0 0 60 45" fill="none" xmlns="http://www.w3.org/2000/svg">
<g opacity="0.2">
<path d="M18.67 3.88774L20.6897 2.75067C20.9271 2.61704 21.2087 2.83345 21.1408 3.09723L20.8533 4.21253C20.6823 4.87613 20.3537 5.48868 19.8955 5.99822C19.6289 6.29466 19.3098 6.53923 18.9542 6.71957L17.5579 7.42784C17.256 7.58095 16.9146 7.30664 16.9991 6.97888L17.3545 5.59985C17.5416 4.87384 18.0167 4.25554 18.67 3.88774Z" fill="#BABABA"/>
<path fill-rule="evenodd" clip-rule="evenodd" d="M20.4049 3.58807L18.9594 4.40187C18.4461 4.69086 18.0728 5.17667 17.9258 5.7471L17.6789 6.70486L18.6873 6.19339C18.978 6.04596 19.2388 5.84603 19.4568 5.6037C19.8515 5.16472 20.1346 4.63699 20.2819 4.06529L20.4049 3.58807ZM20.4002 2.23654C21.0906 1.84788 21.9098 2.4773 21.7121 3.24448L21.4246 4.35979C21.2299 5.11527 20.8558 5.81264 20.3342 6.39274C20.0189 6.74329 19.6416 7.0325 19.2211 7.24576L17.8248 7.95404C17.0701 8.33681 16.2165 7.65102 16.4277 6.83163L16.7831 5.4526C17.0103 4.57102 17.5872 3.82022 18.3805 3.37361L20.4002 2.23654Z" fill="black"/>
<path d="M13.9269 3.91782L11.1252 3.49091C10.8606 3.4506 10.6603 3.72495 10.7793 3.96465L11.6623 5.74353C11.9744 6.37252 12.475 6.8885 13.0943 7.21962C13.4864 7.42931 13.9264 7.53328 14.3709 7.5213L16.3056 7.46916C16.5862 7.4616 16.7688 7.17096 16.6538 6.91487L16.024 5.51209C15.6411 4.65905 14.8513 4.05867 13.9269 3.91782Z" fill="#BABABA"/>
<path fill-rule="evenodd" clip-rule="evenodd" d="M11.5291 4.14927L13.8375 4.501C14.5638 4.61167 15.1843 5.0834 15.4852 5.75364L15.9942 6.88722L14.3545 6.93141C14.0123 6.94063 13.6737 6.86062 13.3719 6.69924C12.8609 6.42598 12.4478 6.00018 12.1902 5.48112L11.5291 4.14927ZM11.2135 2.90754C10.4768 2.79528 9.91894 3.55932 10.2503 4.22687L11.1332 6.00575C11.5 6.74467 12.088 7.35083 12.8155 7.73982C13.298 7.99782 13.8393 8.12574 14.3862 8.111L16.3209 8.05886C17.0225 8.03996 17.479 7.31337 17.1915 6.67313L16.5618 5.27035C16.0967 4.23451 15.1378 3.50548 14.0153 3.33445L11.2135 2.90754Z" fill="black"/>
<path fill-rule="evenodd" clip-rule="evenodd" d="M17.3436 10.8109C17.0133 10.2605 16.3298 8.82518 16.1973 7.36684L17.3724 7.26001C17.4832 8.47852 18.0773 9.74029 18.3554 10.2038L17.3436 10.8109Z" fill="black"/>
<path d="M10.7637 21.0774H29.6233V27.4653H10.7637V21.0774Z" fill="black"/>
<path fill-rule="evenodd" clip-rule="evenodd" d="M13.3064 41.9008C12.9727 40.258 13.3489 36.2917 16.6831 31.8904L18.2507 33.078C15.1885 37.1202 15.0334 40.5231 15.2337 41.5094L13.3064 41.9008Z" fill="black"/>
<path fill-rule="evenodd" clip-rule="evenodd" d="M23.3808 41.5989C22.4125 40.2305 21.1558 36.4498 22.4301 31.0772L24.3437 31.5311C23.1734 36.4653 24.4049 39.6414 24.9862 40.4629L23.3808 41.5989Z" fill="black"/>
<path d="M18.514 41.9874C18.4576 42.9938 16.9842 43.7296 15.2229 43.6309C13.4617 43.5322 12.0797 42.6363 12.1361 41.6299C12.1925 40.6235 13.666 39.8876 15.4272 39.9864C17.1884 40.0851 18.5705 40.981 18.514 41.9874Z" fill="#BABABA"/>
<path fill-rule="evenodd" clip-rule="evenodd" d="M13.4941 41.0976C13.0189 41.3349 12.9274 41.5743 12.9218 41.674C12.9162 41.7737 12.9804 42.0219 13.4261 42.3108C13.8502 42.5857 14.4979 42.8025 15.2672 42.8456C16.0364 42.8887 16.7043 42.7457 17.1565 42.5199C17.6317 42.2826 17.7232 42.0432 17.7288 41.9435C17.7344 41.8438 17.6702 41.5956 17.2245 41.3067C16.8004 41.0318 16.1527 40.8151 15.3834 40.7719C14.6142 40.7288 13.9463 40.8718 13.4941 41.0976ZM12.7911 39.69C13.53 39.321 14.4795 39.1454 15.4715 39.2011C16.4634 39.2567 17.3873 39.5372 18.0804 39.9865C18.7519 40.4218 19.3505 41.1248 19.2997 42.0315C19.2489 42.9382 18.5754 43.5699 17.8595 43.9275C17.1206 44.2965 16.1711 44.4721 15.1791 44.4165C14.1872 44.3609 13.2633 44.0803 12.5702 43.631C11.8987 43.1957 11.3001 42.4927 11.3509 41.586C11.4017 40.6793 12.0752 40.0476 12.7911 39.69Z" fill="black"/>
<path d="M27.3995 40.2262C27.6407 41.2049 26.6461 42.2916 25.178 42.6534C23.71 43.0151 22.3243 42.515 22.0832 41.5363C21.842 40.5576 22.8366 39.4709 24.3046 39.1091C25.7727 38.7474 27.1583 39.2475 27.3995 40.2262Z" fill="#BABABA"/>
<path fill-rule="evenodd" clip-rule="evenodd" d="M23.1332 40.6224C22.8453 40.9369 22.8088 41.1935 22.8469 41.348C22.885 41.5025 23.0364 41.7127 23.4375 41.8575C23.8323 42 24.3854 42.0383 24.9897 41.8894C25.594 41.7405 26.0659 41.4496 26.3493 41.1399C26.6372 40.8254 26.6736 40.5689 26.6356 40.4144C26.5975 40.2599 26.446 40.0496 26.045 39.9049C25.6501 39.7624 25.097 39.724 24.4928 39.8729C23.8885 40.0218 23.4166 40.3127 23.1332 40.6224ZM21.9725 39.5601C22.4931 38.9913 23.2525 38.5581 24.1163 38.3452C24.9801 38.1324 25.8539 38.1632 26.5791 38.425C27.2982 38.6845 27.9601 39.2137 28.1632 40.0379C28.3663 40.8621 28.0261 41.6383 27.5099 42.2022C26.9893 42.771 26.2299 43.2042 25.3661 43.4171C24.5023 43.63 23.6286 43.5991 22.9033 43.3374C22.1843 43.0778 21.5223 42.5486 21.3192 41.7244C21.1161 40.9002 21.4564 40.124 21.9725 39.5601Z" fill="black"/>
<path d="M2.77195 22.7172C2.43474 15.8513 7.4174 11.258 16.5388 10.81C22.1873 10.5326 25.8952 11.4079 28.1998 13.4984C28.4184 13.6967 28.5359 13.98 28.5459 14.275L28.7729 20.9919C28.7899 21.4952 28.4864 21.9563 28.0106 22.121C23.7766 23.587 19.2025 23.9618 14.8658 23.4982C14.4955 23.4586 14.1732 23.7563 14.1914 24.1283C14.2053 24.4095 14.4129 24.6438 14.6918 24.6829C18.5684 25.2263 23.5048 24.7852 27.3244 23.5802C28.0912 23.3382 28.9169 23.8551 28.9721 24.6574L29.2454 28.6274C29.2724 29.0202 29.1036 29.4037 28.7816 29.6305C25.5542 31.9036 21.5053 32.72 16.3157 32.9749C8.50283 33.3586 3.11083 29.6172 2.77195 22.7172Z" fill="#BABABA"/>
<path fill-rule="evenodd" clip-rule="evenodd" d="M5.06916 13.1757C7.76279 10.8052 11.6736 9.47362 16.4618 9.23846C22.2281 8.95525 26.4759 9.81011 29.2571 12.333C29.8263 12.8493 30.0959 13.5521 30.1185 14.2218L30.3455 20.9386C30.3682 21.6093 30.1439 22.2609 29.7283 22.7692C30.1831 23.214 30.4919 23.822 30.542 24.5492L30.8152 28.5192C30.8773 29.4214 30.491 30.351 29.6878 30.9167C26.0879 33.4522 21.6693 34.2871 16.393 34.5462C12.2365 34.7504 8.54432 33.867 5.80596 31.8425C3.02785 29.7887 1.39128 26.6749 1.20069 22.7943C1.01079 18.9276 2.33337 15.5833 5.06916 13.1757ZM28.3277 23.6754C28.6823 23.8662 28.9422 24.2192 28.9723 24.6573L29.2456 28.6272C29.2726 29.0201 29.1038 29.4036 28.7818 29.6304C25.5544 31.9035 21.5055 32.7199 16.3159 32.9748C8.50304 33.3585 3.11104 29.6171 2.77215 22.7171C2.43495 15.8512 7.41761 11.2579 16.539 10.8099C22.1875 10.5325 25.8954 11.4078 28.2 13.4983C28.4186 13.6966 28.5361 13.9799 28.5461 14.2749L28.7731 20.9918C28.787 21.4029 28.5871 21.7858 28.254 22.0021C28.1794 22.0506 28.098 22.0907 28.0108 22.1209C27.6661 22.2403 27.3192 22.3524 26.9704 22.4574C23.2772 23.5691 19.3663 23.8857 15.6073 23.569C15.3595 23.5481 15.1124 23.5245 14.866 23.4981C14.8634 23.4978 14.8608 23.4976 14.8581 23.4973C14.4912 23.4628 14.1735 23.7589 14.1917 24.1282C14.2055 24.4094 14.4131 24.6437 14.692 24.6828C14.7075 24.685 14.7231 24.6871 14.7387 24.6893C14.9843 24.7232 15.2341 24.7531 15.4876 24.7791C19.2273 25.1634 23.7618 24.7041 27.3246 23.5801C27.6727 23.4703 28.0329 23.5168 28.3277 23.6754Z" fill="black"/>
<path d="M24.9504 20.2471C23.9121 20.337 22.9983 19.6636 22.9093 18.743C22.8202 17.8224 23.5897 17.0032 24.6279 16.9133C25.6662 16.8234 26.58 17.4968 26.669 18.4174C26.7581 19.338 25.9886 20.1572 24.9504 20.2471Z" fill="black"/>
<path d="M19.2941 21.0982C18.2559 21.1881 17.3421 20.5147 17.253 19.594C17.164 18.6734 17.9335 17.8542 18.9717 17.7643C20.0099 17.6744 20.9237 18.3479 21.0128 19.2685C21.1018 20.1891 20.3323 21.0083 19.2941 21.0982Z" fill="black"/>
<path d="M42.8386 3.42722L45.0578 2.75861C45.3186 2.68003 45.5462 2.95272 45.4223 3.19529L44.8983 4.22092C44.5865 4.83115 44.1321 5.35718 43.5737 5.75437C43.2488 5.98545 42.884 6.15443 42.4976 6.25279L40.9803 6.63907C40.6523 6.72258 40.379 6.38033 40.533 6.07892L41.1809 4.81077C41.5221 4.14314 42.1207 3.64349 42.8386 3.42722Z" fill="#BABABA"/>
<path fill-rule="evenodd" clip-rule="evenodd" d="M44.5967 3.5136L43.0083 3.99212C42.4443 4.16205 41.9739 4.55464 41.7059 5.0792L41.2559 5.95995L42.3516 5.681C42.6674 5.60059 42.9657 5.46245 43.2313 5.27356C43.7124 4.93136 44.1038 4.47818 44.3724 3.95244L44.5967 3.5136ZM44.8872 2.19366C45.6458 1.96512 46.3078 2.75822 45.9473 3.46372L45.4232 4.48935C45.0683 5.18408 44.551 5.78295 43.9152 6.23514C43.531 6.5084 43.0996 6.70823 42.6427 6.82454L41.1254 7.21082C40.3054 7.41958 39.6222 6.56395 40.0072 5.81045L40.6551 4.5423C41.0693 3.73161 41.7962 3.12488 42.6679 2.86227L44.8872 2.19366Z" fill="black"/>
<path d="M38.9051 2.63885L36.2642 1.61047C36.0148 1.51337 35.7595 1.73736 35.8232 1.99726L36.2964 3.926C36.4638 4.60798 36.8396 5.22082 37.3716 5.67916C37.7085 5.96942 38.1151 6.16695 38.5515 6.25232L40.4509 6.62388C40.7264 6.67778 40.9681 6.43402 40.9118 6.159L40.6035 4.65256C40.416 3.73648 39.7765 2.97815 38.9051 2.63885Z" fill="#BABABA"/>
<path fill-rule="evenodd" clip-rule="evenodd" d="M36.5148 2.34128L38.6907 3.18857C39.3753 3.45516 39.8778 4.05099 40.0251 4.77077L40.2742 5.98812L38.6645 5.67321C38.3286 5.60751 38.0156 5.45548 37.7563 5.2321C37.3173 4.85386 37.0072 4.34813 36.8691 3.78534L36.5148 2.34128ZM36.4779 1.0606C35.7835 0.790173 35.0723 1.41398 35.2499 2.13777L35.7231 4.06651C35.9196 4.86768 36.3611 5.58762 36.9861 6.12608C37.4006 6.4832 37.901 6.72624 38.4379 6.83128L40.3373 7.20284C41.026 7.33757 41.6302 6.72819 41.4895 6.04064L41.1812 4.5342C40.9536 3.42181 40.1769 2.50098 39.1189 2.08898L36.4779 1.0606Z" fill="black"/>
<path fill-rule="evenodd" clip-rule="evenodd" d="M40.6031 10.6526C40.401 10.0433 40.0474 8.49336 40.2364 7.04127L41.4066 7.19362C41.2486 8.40691 41.5529 9.76796 41.7231 10.281L40.6031 10.6526Z" fill="black"/>
<path fill-rule="evenodd" clip-rule="evenodd" d="M40.8451 41.1047C41.2702 39.4832 41.1166 35.5021 38.0339 30.9211L36.4022 32.0191C39.2334 36.2263 39.1979 39.6326 38.9427 40.6061L40.8451 41.1047Z" fill="black"/>
<path fill-rule="evenodd" clip-rule="evenodd" d="M48.7419 40.9933C49.2499 39.3958 49.3017 35.4121 46.4591 30.6784L44.773 31.6909C47.3837 36.0384 47.1727 39.4382 46.8677 40.3973L48.7419 40.9933Z" fill="black"/>
<path d="M36.0496 40.7685C36.0496 41.7765 37.4796 42.5936 39.2435 42.5936C41.0075 42.5936 42.4375 41.7765 42.4375 40.7685C42.4375 39.7605 41.0075 38.9434 39.2435 38.9434C37.4796 38.9434 36.0496 39.7605 36.0496 40.7685Z" fill="#BABABA"/>
<path fill-rule="evenodd" clip-rule="evenodd" d="M41.1112 40.161C41.5723 40.4245 41.6503 40.6687 41.6503 40.7685C41.6503 40.8684 41.5723 41.1126 41.1112 41.3761C40.6723 41.6269 40.0134 41.807 39.243 41.807C38.4725 41.807 37.8137 41.6269 37.3748 41.3761C36.9137 41.1126 36.8357 40.8684 36.8357 40.7685C36.8357 40.6687 36.9137 40.4245 37.3748 40.161C37.8137 39.9102 38.4725 39.7301 39.243 39.7301C40.0134 39.7301 40.6723 39.9102 41.1112 40.161ZM41.8918 38.795C41.1747 38.3852 40.2365 38.1567 39.243 38.1567C38.2495 38.1567 37.3113 38.3852 36.5942 38.795C35.8994 39.192 35.2624 39.8604 35.2624 40.7685C35.2624 41.6767 35.8994 42.3451 36.5942 42.7421C37.3113 43.1519 38.2495 43.3803 39.243 43.3803C40.2365 43.3803 41.1747 43.1519 41.8918 42.7421C42.5866 42.3451 43.2236 41.6767 43.2236 40.7685C43.2236 39.8604 42.5866 39.192 41.8918 38.795Z" fill="black"/>
<path d="M45.2333 40.7155C44.9921 41.6942 45.9867 42.7808 47.4548 43.1426C48.9229 43.5044 50.3085 43.0042 50.5496 42.0255C50.7908 41.0468 49.7962 39.9602 48.3282 39.5984C46.8601 39.2366 45.4745 39.7368 45.2333 40.7155Z" fill="#BABABA"/>
<path fill-rule="evenodd" clip-rule="evenodd" d="M49.4997 41.1119C49.7875 41.4264 49.824 41.683 49.7859 41.8375C49.7478 41.992 49.5964 42.2022 49.1953 42.347C48.8005 42.4895 48.2474 42.5279 47.6431 42.3789C47.0388 42.23 46.5669 41.9391 46.2835 41.6294C45.9956 41.3149 45.9592 41.0584 45.9972 40.9039C46.0353 40.7494 46.1868 40.5391 46.5878 40.3944C46.9827 40.2519 47.5358 40.2135 48.14 40.3624C48.7443 40.5113 49.2162 40.8022 49.4997 41.1119ZM50.6603 40.0496C50.1397 39.4808 49.3803 39.0476 48.5165 38.8347C47.6527 38.6219 46.7789 38.6527 46.0537 38.9145C45.3346 39.174 44.6727 39.7032 44.4696 40.5274C44.2665 41.3516 44.6067 42.1278 45.1229 42.6917C45.6435 43.2605 46.4029 43.6937 47.2667 43.9066C48.1305 44.1195 49.0042 44.0886 49.7295 43.8269C50.4485 43.5673 51.1105 43.0381 51.3136 42.2139C51.5167 41.3897 51.1764 40.6136 50.6603 40.0496Z" fill="black"/>
<path d="M37.4817 8.03567C33.8976 9.38655 30.4958 11.5857 28.2481 14.7901C26.0004 17.9945 25.0892 22.3299 26.4864 26.0369C27.7317 29.3984 30.678 31.8489 33.9584 33.0427C37.2387 34.2679 40.7924 34.3621 44.2551 34.1108C47.1406 33.8909 50.0564 33.4511 52.6686 32.1944C55.2807 30.9378 57.6195 28.8015 58.6522 26.0369C60.0798 22.2042 58.8344 17.7117 56.4046 14.4445C52.3041 8.85249 44.0424 6.24497 37.4817 8.03567Z" fill="#BABABA"/>
<path fill-rule="evenodd" clip-rule="evenodd" d="M27.9602 25.4862L27.9618 25.4904C29.0119 28.325 31.5465 30.4906 34.4964 31.5642L34.5026 31.5664L34.5089 31.5687C37.4741 32.6763 40.7598 32.7868 44.1384 32.5418C46.9677 32.326 49.6449 31.9031 51.9865 30.7766C54.3339 29.6473 56.322 27.7773 57.1778 25.4878M44.2551 34.1108C40.7924 34.3621 37.2387 34.2679 33.9584 33.0427C30.678 31.8489 27.7317 29.3984 26.4864 26.0369C25.0892 22.3299 26.0004 17.9945 28.2481 14.7901C30.4958 11.5857 33.8976 9.38655 37.4817 8.03567C44.0424 6.24497 52.3041 8.85249 56.4046 14.4445C58.8344 17.7117 60.0798 22.2042 58.6522 26.0369C57.6195 28.8015 55.2807 30.9378 52.6686 32.1944C50.0564 33.4511 47.1406 33.8909 44.2551 34.1108ZM57.1779 25.4875C58.3629 22.3057 57.3635 18.3703 55.1421 15.3834L55.1389 15.3792L55.1357 15.3749C51.4583 10.3597 43.9264 7.94288 37.9666 9.53446C34.6106 10.8113 31.5375 12.8403 29.5362 15.6936C27.5244 18.5617 26.7804 22.3558 27.9587 25.482L27.9602 25.4862" fill="black"/>
<path d="M43.3642 19.6653C42.3262 19.7601 41.4079 18.9959 41.3131 17.9583C41.2184 16.9208 41.983 16.0028 43.021 15.908C44.0589 15.8132 44.9772 16.5774 45.072 17.615C45.1668 18.6525 44.4022 19.5705 43.3642 19.6653Z" fill="black"/>
<path d="M37.2007 20.3213C36.1584 20.3356 35.302 19.5026 35.2878 18.4609C35.2735 17.4191 36.1068 16.563 37.149 16.5488C38.1913 16.5345 39.0477 17.3675 39.0619 18.4092C39.0762 19.451 38.2429 20.3071 37.2007 20.3213Z" fill="black"/>
<path d="M36.4755 24.1282C39.4973 25.0716 42.8012 24.7209 45.5813 23.1931C46.2662 22.8174 45.6618 21.732 44.9688 22.1077C42.4627 23.4853 39.5054 23.7691 36.7897 22.9259C36.0484 22.6921 35.7261 23.9027 36.4755 24.1282Z" fill="black"/>
</g>
</svg>
