<svg width="68" height="51" viewBox="0 0 68 51" fill="none" xmlns="http://www.w3.org/2000/svg">
<g id="Group 2791">
<path id="Vector" d="M40.6202 29.4775C39.8884 30.3203 39.02 31.0621 38.0689 31.6596C37.3944 32.0904 36.6523 32.4646 36.1767 33.1017C35.712 33.7522 35.6478 34.791 36.2984 35.2557C36.9706 35.7474 37.9247 35.3471 38.7502 35.4496C38.7926 35.7372 38.6392 36.0157 38.5235 36.286C38.4079 36.5564 38.3681 36.9211 38.594 37.1058C38.7522 37.2338 38.9738 37.2333 39.1749 37.1938C39.7676 37.0616 40.2679 36.6487 40.6168 36.1578C40.9657 35.6668 41.1996 35.1018 41.4214 34.5355C41.6579 33.9461 41.8837 33.3433 42.1203 32.754C42.2036 32.5539 42.2748 32.3525 42.2731 32.1432C42.2711 31.8231 42.0693 31.5304 41.8892 31.2646C41.5384 30.7588 41.1741 30.2638 40.8233 29.758" fill="#C8C8C8"/>
<g id="Group">
<path id="Vector_2" d="M24.1975 27.2871C24.6952 28.4314 25.2846 29.5698 26.1618 30.4582C27.039 31.3466 28.2493 31.9729 29.4975 31.9022C29.8002 31.8828 30.1286 31.834 30.3705 32.013C30.6899 32.2518 30.6419 32.7921 30.3657 33.0783C30.0894 33.3646 29.6728 33.4746 29.2808 33.5368C29.6901 33.7421 30.1001 33.9566 30.4077 34.2981C30.7147 34.6303 30.912 35.1178 30.7835 35.552C30.6772 35.9015 30.3814 36.1705 30.0613 36.3485C28.8856 36.9702 27.3902 36.4918 26.3851 35.6208C25.38 34.7499 24.7048 34.1356 23.952 33.0354C23.1584 31.8731 22.2568 30.1805 21.8205 28.8471C21.7634 28.6748 21.7141 28.4835 21.786 28.3122C21.8418 28.1789 21.9551 28.0791 22.0696 27.9976C22.6316 27.5727 23.3145 27.3066 24.0184 27.2245" fill="#C8C8C8"/>
</g>
<path id="Vector_3" d="M49.4569 49.7632C57.0028 50.1793 63.2436 48.3018 63.3959 45.5696C63.5483 42.8375 57.5546 40.2852 50.0086 39.8691C42.4627 39.453 36.222 41.3305 36.0696 44.0626C35.9173 46.7948 41.911 49.347 49.4569 49.7632Z" fill="#E3E3E3"/>
<path id="Vector_4" d="M31.7018 43.6587C31.5388 40.9837 25.2914 39.1849 17.7477 39.641C10.2041 40.0971 4.22085 42.6354 4.38384 45.3105C4.54683 47.9855 10.7943 49.7843 18.338 49.3282C25.8816 48.8721 31.8648 46.3338 31.7018 43.6587Z" fill="#E3E3E3"/>
<g id="Group_2">
<path id="Vector_5" d="M54.4981 33.6601C54.0135 34.1222 53.8975 34.8619 53.8558 35.5376C53.7083 37.6549 53.8715 39.8078 54.352 41.8853C54.3701 41.9533 54.3791 42.02 54.3607 42.0827C54.3293 42.1715 54.2486 42.2159 54.177 42.2615C53.2411 42.8264 52.4631 43.6477 51.9319 44.626C51.8053 44.8599 51.6903 45.1421 51.8042 45.3827C51.9751 45.7436 52.4705 45.722 52.8542 45.6375C52.6313 45.8947 52.6421 46.3352 52.8756 46.5838C53.1091 46.8325 53.5329 46.8565 53.7882 46.632C53.5432 46.914 53.6474 47.4147 53.9486 47.6451C54.251 47.8664 54.6814 47.8446 55.0042 47.6673C55.3361 47.4912 55.5747 47.1895 55.7795 46.8643C56.4382 45.839 56.805 44.5193 57.8101 43.8617C58.1069 43.6712 58.4309 43.55 58.7291 43.3504C59.0259 43.1599 59.2813 42.87 59.3237 42.5119C59.3489 42.2728 59.2727 42.0283 59.1939 41.802C58.3906 39.2575 58.1805 36.5281 58.5696 33.8948C57.2432 34.0109 55.8875 33.8799 54.605 33.4981" fill="#C8C8C8"/>
</g>
<g id="Group_3">
<path id="Vector_6" d="M45.7504 33.4787C45.1246 33.6962 44.7177 34.3284 44.3979 34.9358C43.4033 36.8089 42.6827 38.8431 42.2792 40.9326C42.2699 40.9967 42.2503 41.0685 42.206 41.1181C42.1499 41.1847 42.055 41.199 41.9614 41.2041C40.8834 41.3375 39.8282 41.7637 38.9596 42.441C38.75 42.6068 38.5337 42.8183 38.5319 43.0888C38.5388 43.4914 39.0051 43.671 39.3833 43.7538C39.0749 43.8959 38.905 44.3009 39.0161 44.6251C39.1272 44.9494 39.5077 45.1446 39.829 45.0417C39.4907 45.1982 39.3804 45.7052 39.5657 46.0308C39.7509 46.3565 40.1548 46.5177 40.5215 46.4868C40.8973 46.4572 41.2382 46.2824 41.5559 46.0763C42.5726 45.4017 43.438 44.3597 44.6267 44.1676C44.9687 44.1144 45.3274 44.1384 45.6708 44.076C46.0141 44.0137 46.3706 43.8599 46.5546 43.5503C46.6772 43.344 46.7051 43.0865 46.7303 42.8473C47.0284 40.2009 47.94 37.6154 49.3695 35.3663C48.1042 34.9309 46.9305 34.2473 45.9144 33.3717" fill="#C8C8C8"/>
</g>
<g id="Group_4">
<path id="Vector_7" d="M13.4995 34.0415C13.9635 34.5212 14.0485 35.2659 14.0651 35.9502C14.1289 38.0763 13.871 40.2137 13.3037 42.2691C13.2896 42.3348 13.2662 42.4012 13.2887 42.4646C13.313 42.5556 13.39 42.6063 13.467 42.6569C14.3809 43.2559 15.1274 44.1157 15.6156 45.1125C15.7326 45.355 15.8342 45.6449 15.711 45.8751C15.5312 46.2293 15.031 46.1872 14.6557 46.0816C14.8662 46.346 14.8392 46.783 14.5967 47.0208C14.3541 47.2586 13.9309 47.2672 13.6855 47.0329C13.9161 47.3237 13.7918 47.8226 13.4832 48.0368C13.1746 48.2511 12.7479 48.2044 12.4228 48.0214C12.0972 47.8293 11.8653 47.52 11.6781 47.1893C11.0665 46.1356 10.7592 44.8031 9.77455 44.1067C9.49419 43.9024 9.16296 43.7662 8.8826 43.5619C8.60223 43.3576 8.34343 43.0593 8.32017 42.6995C8.30467 42.4597 8.39067 42.2227 8.47728 41.9949C9.38403 39.4917 9.71447 36.7661 9.42405 34.1267C10.7435 34.3015 12.1018 34.2237 13.4074 33.8992" fill="#C8C8C8"/>
</g>
<g id="Group_5">
<path id="Vector_8" d="M22.7362 33.1889C23.3601 33.436 23.7333 34.0789 24.0313 34.6988C24.9472 36.6128 25.5871 38.6741 25.8986 40.7843C25.912 40.8482 25.9167 40.922 25.9662 40.9744C26.026 41.0447 26.1189 41.0572 26.2027 41.0704C27.2731 41.2426 28.3082 41.7227 29.1558 42.4371C29.3603 42.6092 29.5679 42.8274 29.5485 43.0973C29.5283 43.4968 29.0504 43.6571 28.6675 43.7186C28.9724 43.8751 29.1185 44.2825 28.992 44.6055C28.8655 44.9284 28.4806 45.1013 28.1695 44.9916C28.5031 45.1647 28.591 45.6684 28.3911 45.9961C28.1906 46.3146 27.7849 46.4517 27.4138 46.4106C27.0427 46.3696 26.6988 46.1786 26.3989 45.957C25.4131 45.2423 24.5875 44.156 23.4114 43.9165C23.066 43.846 22.7169 43.8591 22.3715 43.7886C22.0261 43.7181 21.6742 43.5462 21.5151 43.223C21.3999 43.0081 21.3929 42.7585 21.3683 42.5193C21.1776 39.855 20.3728 37.2393 19.0448 34.935C20.3186 34.5477 21.531 33.9236 22.5823 33.0876" fill="#C8C8C8"/>
</g>
<g id="Group_6">
<g id="Group_7">
<g id="Group_8">
<path id="Vector_9" d="M52.2157 11.5202C52.1859 11.2782 52.1561 11.0361 52.1351 10.7969C52.1424 10.8961 52.1497 10.9953 52.1657 11.0973C52.044 9.76974 52.0996 8.43036 52.3274 7.12605C52.3056 7.22578 52.2926 7.32829 52.2708 7.42801C52.3107 7.17894 52.3622 6.92382 52.4197 6.68029C52.4878 6.37229 52.4922 6.0829 52.3396 5.80202C52.2078 5.54709 51.9453 5.30898 51.6706 5.23181C51.3872 5.15186 51.0585 5.15451 50.7962 5.31384C50.5481 5.45832 50.2986 5.69926 50.2273 5.98686C49.8918 7.48002 49.7344 9.01985 49.8213 10.5497C49.8491 11.0431 49.9032 11.5448 49.9688 12.0405C50.0078 12.3146 50.2421 12.6116 50.4682 12.7509C50.709 12.9047 51.0681 12.9892 51.3461 12.9026C51.6301 12.8277 51.904 12.6623 52.0543 12.3997C52.0936 12.3055 52.1417 12.2141 52.181 12.1199C52.2537 11.92 52.2594 11.7182 52.2157 11.5202Z" fill="#BDBDBD"/>
</g>
</g>
<g id="Group_9">
<path id="Vector_10" d="M49.2232 6.5225C48.6974 6.35624 48.2136 6.08702 47.7779 5.72641C46.9389 5.02508 46.4152 4.02623 46.2973 2.93277C46.29 2.83357 46.3118 2.73387 46.3834 2.65961C46.4463 2.58258 46.5386 2.53426 46.6374 2.52672C47.169 2.49132 47.6875 2.55838 48.1871 2.71632C48.713 2.88258 49.1967 3.15181 49.6324 3.51241C50.4715 4.21374 50.9951 5.2126 51.113 6.30605C51.1203 6.40525 51.0985 6.50495 51.0269 6.57921C50.9641 6.65624 50.8717 6.70456 50.773 6.7121C50.2414 6.7475 49.7228 6.68044 49.2232 6.5225Z" fill="#BDBDBD"/>
<path id="Vector_11" d="M48.0759 3.06876C48.5404 3.21563 48.9947 3.45615 49.3894 3.7941C50.1814 4.4612 50.6428 5.38228 50.7443 6.34459C50.2708 6.379 49.7873 6.32303 49.3227 6.17616C48.8582 6.0293 48.404 5.78878 48.0093 5.45083C47.2173 4.78373 46.7559 3.86265 46.6544 2.90034C47.1394 2.85988 47.6202 2.92467 48.0759 3.06876ZM48.2982 2.36382C47.7548 2.19202 47.1896 2.11992 46.6086 2.1591C46.4111 2.17417 46.2176 2.26805 46.092 2.42212C45.9663 2.57619 45.9024 2.77886 45.9257 2.98003C46.0509 4.17272 46.628 5.24666 47.5321 6.017C47.9973 6.40632 48.5221 6.69822 49.1005 6.88111C49.6439 7.05291 50.2091 7.12501 50.7901 7.08583C50.9876 7.07076 51.181 6.97688 51.3067 6.82281C51.4324 6.66874 51.4963 6.46607 51.473 6.2649C51.3478 5.0722 50.7707 3.99827 49.8666 3.22793C49.4042 2.8298 48.8766 2.54671 48.2982 2.36382Z" fill="#BDBDBD"/>
</g>
<g id="Group_10">
<path id="Vector_12" d="M51.0269 6.82013C50.9392 6.79242 50.8539 6.72668 50.812 6.64559C50.7641 6.55291 50.7568 6.4537 50.7874 6.35675C51.1355 5.31353 51.8614 4.44789 52.8223 3.9376C53.786 3.4185 54.9011 3.30586 55.9553 3.6004L55.964 3.60317C56.0517 3.63088 56.137 3.69662 56.1789 3.77771C56.2268 3.87039 56.2341 3.9696 56.2035 4.06655C55.8554 5.10977 55.1295 5.97541 54.1686 6.4857C53.2049 7.0048 52.0898 7.11744 51.0356 6.8229C51.0269 6.82013 51.0269 6.82013 51.0269 6.82013Z" fill="#BDBDBD"/>
<path id="Vector_13" d="M55.8558 3.94675C55.5465 4.86659 54.9158 5.67508 53.9923 6.15843C53.0776 6.64454 52.0493 6.72648 51.1293 6.4647C51.4386 5.54486 52.0694 4.73637 52.9928 4.25302C53.9076 3.7669 54.9358 3.68497 55.8558 3.94675ZM56.078 3.24169L56.0693 3.23892C56.0605 3.23615 56.0605 3.23615 56.0517 3.23338C54.9011 2.90836 53.6933 3.04013 52.6488 3.60152C51.5956 4.16014 50.8096 5.09401 50.4309 6.23418C50.3698 6.42807 50.3816 6.63532 50.4801 6.81185C50.5699 6.98562 50.723 7.11155 50.9071 7.16975C50.9159 7.17252 50.9246 7.1753 50.9246 7.1753C52.0752 7.50032 53.2831 7.36855 54.3363 6.80993C55.3808 6.24854 56.164 5.32348 56.5487 4.1949C56.5515 4.18608 56.5542 4.17727 56.557 4.16846C56.6793 3.78068 56.4725 3.3664 56.078 3.24169Z" fill="#BDBDBD"/>
</g>
</g>
<g id="Group_11">
<g id="Group_12">
<g id="Group_13">
<path id="Vector_14" d="M18.5545 13.0392C18.7019 12.2382 18.8135 11.4452 18.8451 10.6325C18.8767 9.81986 18.8365 9.02347 18.7564 8.2172C18.7197 7.80855 18.6541 7.39699 18.5816 6.99648C18.5269 6.71513 18.3094 6.42335 18.0689 6.27894C17.8263 6.12552 17.4795 6.05263 17.2035 6.12476C16.5817 6.29433 16.2222 6.86874 16.3392 7.50554C16.4199 7.9421 16.4806 8.37371 16.5165 8.82045C16.5029 8.7193 16.4982 8.61612 16.4845 8.51497C16.6101 9.8511 16.5501 11.2009 16.3143 12.5243C16.3296 12.4261 16.3449 12.3278 16.3692 12.2276C16.3595 12.2677 16.3518 12.3168 16.3421 12.3569C16.2902 12.5014 16.2782 12.6557 16.3021 12.8019C16.3012 12.9632 16.3431 13.1053 16.4228 13.2483C16.5542 13.4933 16.8153 13.7278 17.0883 13.808C17.3792 13.8841 17.7096 13.8849 17.9761 13.7297C18.2405 13.5654 18.4975 13.327 18.5545 13.0392Z" fill="#BDBDBD"/>
</g>
</g>
<g id="Group_14">
<path id="Vector_15" d="M19.4104 7.57339C18.9533 7.67722 18.4777 7.69999 18.0056 7.65562C17.9077 7.63995 17.8127 7.59522 17.7563 7.51328C17.6909 7.43338 17.6683 7.3343 17.6836 7.23608C17.85 6.14662 18.4222 5.18291 19.2876 4.51264C19.7769 4.13623 20.3218 3.87982 20.9134 3.74545C21.3706 3.64161 21.8462 3.61885 22.3183 3.66322C22.4161 3.67889 22.5112 3.72362 22.5676 3.80556C22.6329 3.88546 22.6555 3.98454 22.6402 4.08276C22.4738 5.17222 21.9016 6.13593 21.0362 6.8062C20.5559 7.18057 20.002 7.43902 19.4104 7.57339Z" fill="#BDBDBD"/>
<path id="Vector_16" d="M20.9933 4.09665C21.4146 4.00096 21.8523 3.97733 22.2775 4.02287C22.1272 4.97606 21.6343 5.8744 20.8166 6.50545C20.359 6.85571 19.8548 7.08393 19.3259 7.20405C18.9046 7.29974 18.4669 7.32337 18.0417 7.27783C18.192 6.32464 18.6849 5.4263 19.5026 4.79525C19.9602 4.44499 20.4644 4.21677 20.9933 4.09665ZM20.8289 3.376C20.1835 3.52259 19.5869 3.80023 19.0589 4.21385C18.1211 4.9385 17.5026 5.98855 17.3188 7.16725C17.2882 7.3637 17.3444 7.56885 17.4661 7.73069C17.5879 7.89253 17.7711 7.99304 17.9737 8.01334C18.4858 8.06758 18.9993 8.04569 19.5013 7.93167C20.1467 7.78509 20.7433 7.50745 21.2713 7.09382C22.2091 6.36917 22.8276 5.31912 23.0114 4.14042C23.042 3.94397 22.9858 3.73882 22.8641 3.57698C22.7423 3.41514 22.5591 3.31463 22.3565 3.29433C21.8424 3.23108 21.3309 3.26198 20.8289 3.376Z" fill="#BDBDBD"/>
</g>
<g id="Group_15">
<path id="Vector_17" d="M17.7104 7.76195C16.6526 8.00221 15.5492 7.83589 14.6208 7.2792C13.6814 6.71555 12.9893 5.8304 12.691 4.77051C12.6594 4.67345 12.6727 4.5662 12.728 4.47784C12.7743 4.39151 12.8647 4.33308 12.9613 4.30167L12.9881 4.29556C14.046 4.0553 15.1494 4.22163 16.0777 4.77831C17.0172 5.34197 17.7093 6.22712 18.0075 7.287C18.0391 7.38407 18.0258 7.49132 17.9706 7.57968C17.9242 7.66601 17.8339 7.72444 17.7373 7.75585L17.7104 7.76195Z" fill="#BDBDBD"/>
<path id="Vector_18" d="M13.07 4.65589C14.0024 4.44413 15.0038 4.57676 15.895 5.09451C16.7883 5.62126 17.3943 6.45963 17.6528 7.38642C17.6438 7.38846 17.6349 7.39049 17.6259 7.39253C16.6936 7.60428 15.6922 7.47165 14.801 6.9539C13.9077 6.42715 13.3016 5.58878 13.0432 4.66199C13.0521 4.65996 13.0611 4.65792 13.07 4.65589ZM12.9057 3.93514L12.8788 3.94125C12.6816 3.98604 12.5118 4.10989 12.4102 4.28458C12.3086 4.45927 12.28 4.66475 12.3342 4.86092C12.664 6.01788 13.4036 6.987 14.4271 7.58843C15.4415 8.19189 16.6338 8.37593 17.7903 8.11327L17.8172 8.10717C18.0144 8.06237 18.1841 7.93853 18.2857 7.76384C18.3873 7.58915 18.4159 7.38366 18.3618 7.18749C18.0319 6.03054 17.2924 5.06141 16.2689 4.45998C15.2455 3.85856 14.0532 3.67452 12.9057 3.93514Z" fill="#BDBDBD"/>
</g>
</g>
<path id="Vector_19" d="M52.0286 11.6749C61.8603 12.7253 66.2683 19.5083 65.5128 27.0003C64.7505 34.6033 58.7524 40.262 49.1028 39.1727C39.1971 38.0555 35.1259 31.8349 35.6238 23.8108C36.0626 16.7118 42.1605 10.6193 52.0286 11.6749Z" fill="#D2D2D2"/>
<path id="Vector_20" d="M51.4793 24.2485C52.2814 24.1557 52.8852 23.6796 52.8278 23.185C52.7704 22.6905 52.0736 22.3649 51.2715 22.4577C50.4694 22.5505 49.8656 23.0266 49.923 23.5212C49.9804 24.0157 50.6771 24.3414 51.4793 24.2485Z" fill="#C3C3C3"/>
<path id="Vector_21" d="M39.0316 24.3226C39.8264 24.4652 40.5419 24.1836 40.6296 23.6936C40.7174 23.2035 40.1443 22.6906 39.3495 22.548C38.5547 22.4054 37.8392 22.687 37.7514 23.177C37.6637 23.6671 38.2368 24.18 39.0316 24.3226Z" fill="#C3C3C3"/>
<g id="Group 2790">
<path id="Vector_22" d="M41.0726 25.1603L40.529 26.3067C43.6656 27.2782 47.6519 27.0607 51.3135 26.5269L51.1483 25.3634C47.4777 25.8948 43.9003 25.9345 41.0726 25.1603Z" fill="#ACACAC"/>
<path id="Vector_23" d="M41.694 22.9813C42.5473 23.2091 43.4246 22.6981 43.6535 21.8398C43.8824 20.9815 43.3763 20.1011 42.523 19.8732C41.6697 19.6453 40.7925 20.1564 40.5635 21.0147C40.3346 21.8729 40.8408 22.7534 41.694 22.9813Z" fill="#ACACAC"/>
<path id="Vector_24" d="M47.6359 23.133C48.4892 23.3609 49.3665 22.8498 49.5954 21.9915C49.8243 21.1333 49.3182 20.2528 48.4649 20.0249C47.6116 19.7971 46.7344 20.3081 46.5054 21.1664C46.2765 22.0247 46.7827 22.9051 47.6359 23.133Z" fill="#ACACAC"/>
</g>
<path id="Vector_25" d="M31.3096 24.3506C31.4792 32.3874 27.1537 38.4248 17.2054 39.127C7.5225 39.8029 1.76187 33.9024 1.31456 26.2724C0.874409 18.753 5.5604 12.1647 15.4212 11.5329C25.3278 10.8982 31.1629 17.2385 31.3096 24.3506Z" fill="#D2D2D2"/>
<path id="Vector_26" d="M28.0042 24.7376C28.8063 24.6447 29.4101 24.1686 29.3527 23.6741C29.2953 23.1795 28.5985 22.8539 27.7964 22.9467C26.9943 23.0395 26.3905 23.5156 26.4479 24.0102C26.5053 24.5047 27.202 24.8304 28.0042 24.7376Z" fill="#C3C3C3"/>
<path id="Vector_27" d="M15.5614 24.2983C16.3591 24.424 17.0684 24.1272 17.1457 23.6353C17.2231 23.1435 16.6391 22.643 15.8415 22.5173C15.0438 22.3916 14.3345 22.6884 14.2572 23.1802C14.1799 23.672 14.7638 24.1726 15.5614 24.2983Z" fill="#C3C3C3"/>
<g id="Group 2789">
<path id="Vector_28" d="M16.2081 25.2385L15.6523 26.3301C19.2751 27.0978 22.9004 27.4763 26.0916 26.8361L26.2666 25.6948C23.3946 26.2868 19.8309 26.0062 16.2081 25.2385Z" fill="#ACACAC"/>
<path id="Vector_29" d="M25.0898 23.5752C25.9712 23.5186 26.6393 22.7541 26.5821 21.8677C26.5249 20.9813 25.764 20.3086 24.8827 20.3652C24.0013 20.4218 23.3332 21.1862 23.3904 22.0727C23.4476 22.9591 24.2084 23.6318 25.0898 23.5752Z" fill="#ACACAC"/>
<path id="Vector_30" d="M19.143 23.3364C20.0244 23.2798 20.6925 22.5153 20.6353 21.6289C20.5781 20.7425 19.8173 20.0698 18.9359 20.1263C18.0546 20.1829 17.3865 20.9474 17.4436 21.8338C17.5008 22.7203 18.2617 23.393 19.143 23.3364Z" fill="#ACACAC"/>
</g>
<g id="Group_16">
<path id="Vector_31" d="M9.53955 24.2481C9.71179 25.4873 9.97697 26.7392 10.591 27.8297C11.1958 28.9209 12.2045 29.8472 13.4197 30.1213C13.7186 30.1855 14.0439 30.2295 14.2343 30.4673C14.4759 30.7852 14.2873 31.2882 13.9507 31.495C13.6048 31.7024 13.1805 31.6925 12.7812 31.644C13.1146 31.956 13.4571 32.2675 13.668 32.68C13.8784 33.0833 13.9301 33.5986 13.6885 33.9938C13.4966 34.3025 13.1398 34.4828 12.7764 34.5616C11.4777 34.8486 10.1595 33.9791 9.4245 32.8685C8.68946 31.758 8.19725 30.9838 7.77493 29.7235C7.32032 28.3912 6.90451 26.5193 6.84139 25.1156C6.82946 24.9311 6.83528 24.7362 6.94559 24.5903C7.03017 24.4737 7.1642 24.4096 7.29941 24.3638C7.95537 24.1088 8.68746 24.0341 9.38562 24.1468" fill="#C8C8C8"/>
</g>
<path id="Vector_32" d="M62.5669 29.7501C59.7723 28.9775 57.5498 27.9229 55.5536 25.8102C55.4209 25.6727 55.2896 25.523 55.13 25.4072C54.9934 25.3062 54.8542 25.2294 54.7027 25.1514C54.481 25.0411 54.2593 24.9307 54.0942 24.7528C53.9291 24.5748 53.4981 23.7895 53.6071 23.58C53.8211 23.1973 54.4197 23.3488 54.7875 23.5858C54.9485 23.6895 55.1324 23.808 55.2997 23.7402C55.5818 23.6356 55.5162 23.2225 55.4117 22.9404C55.14 22.1602 55.0557 21.1298 55.7138 20.6234C56.372 20.117 57.3897 20.4865 57.8557 21.1771C58.3216 21.8678 58.3746 22.7348 58.3951 23.5614C58.4079 23.8949 58.4072 24.2394 58.5982 24.5186C58.7146 24.6912 58.8851 24.8206 59.0568 24.9377C60.3836 25.8577 61.8397 26.6072 63.3656 27.1675C63.4846 27.2051 63.6143 27.2562 63.6901 27.3506C63.7768 27.4585 63.7973 27.6084 63.7936 27.7556C63.795 28.5309 63.4156 29.3014 62.8101 29.7767" fill="#C8C8C8"/>
</g>
</svg>
