<svg width="268" height="240" viewBox="0 0 268 240" fill="none" xmlns="http://www.w3.org/2000/svg">
<g clip-path="url(#clip0_1184_18440)">
<path fill-rule="evenodd" clip-rule="evenodd" d="M72.5121 22.8755C115.257 -5.4582 170.199 -3.59967 211.643 26.6441C254.52 57.9339 279.375 111.168 262.395 161.444C245.395 211.776 193.387 237.735 140.263 237.982C83.6946 238.245 23.4831 216.606 6.48402 162.634C-10.6343 108.285 25.0381 54.3438 72.5121 22.8755Z" fill="#F2F2F2"/>
<path d="M137.556 203.111C169.712 203.746 195.945 195.88 196.149 185.541C196.353 175.202 170.451 166.305 138.295 165.669C106.139 165.034 79.9059 172.9 79.702 183.239C79.498 193.579 105.4 202.475 137.556 203.111Z" fill="#E3E3E0"/>
<path d="M117.565 150.811C114.688 159.278 112.879 168.075 112.139 177.035C112.057 177.858 111.975 178.68 111.564 179.337C111.153 179.995 110.413 180.406 109.673 180.735C106.138 182.543 102.192 185.256 102.357 189.12C102.357 189.942 102.685 190.847 103.179 191.504C104.576 193.148 107.125 192.82 109.262 192.409C112.633 191.751 116.085 191.011 119.209 189.531C122.333 188.051 125.128 185.503 126.197 182.215C127.101 179.666 126.855 176.789 126.69 174.076C126.279 169.143 125.868 164.129 125.54 159.196C125.375 157.305 125.211 155.332 124.306 153.77C122.991 151.468 120.196 150.153 117.565 150.646" fill="#F9B428"/>
<path d="M159.13 150.811C161.949 159.278 163.722 168.075 164.447 177.035C164.527 177.858 164.608 178.68 165.01 179.337C165.413 179.995 166.138 180.406 166.863 180.735C170.327 182.543 174.193 185.256 174.032 189.12C174.032 189.942 173.71 190.847 173.227 191.504C171.857 193.148 169.36 192.82 167.266 192.409C163.963 191.751 160.58 191.011 157.519 189.531C154.458 188.051 151.719 185.503 150.672 182.215C149.786 179.666 150.028 176.789 150.189 174.076C150.592 169.143 150.994 164.129 151.317 159.196C151.478 157.305 151.639 155.332 152.525 153.77C153.814 151.468 156.552 150.153 159.13 150.646" fill="#F9B428"/>
<path d="M149.287 69.5844C183.95 79.3042 195.705 106.236 188.505 132.538C181.186 159.262 156.23 175.794 122.236 166.053C87.3446 156.024 76.4244 131.355 83.0546 102.97C88.9379 77.8717 114.493 59.8283 149.287 69.5844Z" fill="#FFCC4C"/>
<path d="M123.171 101.202C126.043 101.799 128.855 99.9553 129.451 97.0842C130.048 94.2131 128.203 91.4018 125.331 90.805C122.459 90.2082 119.647 92.0519 119.051 94.923C118.454 97.7941 120.299 100.605 123.171 101.202Z" fill="#2D2D2D"/>
<path d="M145.367 101.351C148.239 101.948 151.051 100.104 151.647 97.2333C152.244 94.3622 150.399 91.5509 147.527 90.9541C144.655 90.3573 141.844 92.201 141.247 95.072C140.65 97.9431 142.495 100.754 145.367 101.351Z" fill="#2D2D2D"/>
<path d="M135.392 61.5478L116.685 54.4538L115.991 73.2368C115.872 76.2958 124.17 79.0989 134.508 79.513C144.853 79.8931 153.34 77.7024 153.459 74.6435L154.167 55.9695L135.392 61.5478Z" fill="#5B6D80"/>
<path d="M135.392 61.5478L116.692 54.4198L116.558 58.0783L135.061 65.1312L154.027 59.4849L154.167 55.9695L135.392 61.5478Z" fill="#4F6172"/>
<path d="M135.208 61.7587L160.425 54.2871C161.932 53.846 162.002 51.734 160.551 51.1941L135.951 41.8516L110.734 49.3233C109.227 49.7643 109.157 51.8763 110.608 52.4163L135.208 61.7587Z" fill="#5B6D80"/>
<path d="M114.487 179.948C114.487 181.153 115.454 182.124 116.653 182.124H159.709C160.907 182.124 161.874 181.153 161.874 179.948V140.895H114.487V179.948Z" fill="white"/>
<path d="M113.51 179.085C113.51 180.919 114.689 182.85 116.641 182.85H159.468C161.42 182.85 162.599 180.919 162.599 179.085V131.005C162.599 129.386 161.286 128.072 159.666 128.072H116.442C114.823 128.072 113.51 129.386 113.51 131.005V179.085Z" fill="white" stroke="#E3E3E0" stroke-width="1.95517"/>
<path d="M159.709 128.518H116.653C115.454 128.518 114.487 129.49 114.487 130.694V140.895H161.893V130.694C161.893 129.49 160.907 128.518 159.709 128.518Z" fill="#0EBE5F"/>
<path d="M127.652 137.514C129.03 137.514 130.146 136.392 130.146 135.008C130.146 133.624 129.03 132.501 127.652 132.501C126.275 132.501 125.158 133.624 125.158 135.008C125.158 136.392 126.275 137.514 127.652 137.514Z" fill="#212121"/>
<path d="M127.131 133.667C126.416 133.667 125.836 133.084 125.836 132.365V126.925C125.836 126.303 126.261 125.72 126.88 125.604C127.711 125.448 128.427 126.07 128.427 126.886V128.538H130.631V127.003C130.631 125.137 129.239 123.505 127.383 123.369C125.353 123.233 123.651 124.865 123.651 126.867V132.249C123.651 134.075 125.005 135.688 126.822 135.862C127.015 135.882 127.209 135.882 127.402 135.862C128.794 135.765 128.678 133.667 127.286 133.667H127.131Z" fill="#F2F2F2"/>
<path d="M147.547 137.514C148.924 137.514 150.041 136.392 150.041 135.008C150.041 133.624 148.924 132.502 147.547 132.502C146.169 132.502 145.053 133.624 145.053 135.008C145.053 136.392 146.169 137.514 147.547 137.514Z" fill="#212121"/>
<path d="M147.005 133.667C146.29 133.667 145.71 133.084 145.71 132.365V126.925C145.71 126.303 146.135 125.72 146.754 125.604C147.585 125.448 148.301 126.07 148.301 126.886V128.538H150.505V127.003C150.505 125.138 149.113 123.506 147.257 123.37C145.227 123.234 143.525 124.866 143.525 126.867V132.249C143.525 134.075 144.879 135.688 146.696 135.863C146.889 135.882 147.083 135.882 147.276 135.863C148.668 135.765 148.552 133.667 147.16 133.667H147.005Z" fill="#F2F2F2"/>
<path opacity="0.5" d="M126.698 146.801H123.603C122.498 146.801 121.603 147.696 121.603 148.801V151.932C121.603 153.036 122.498 153.932 123.603 153.932H126.698C127.803 153.932 128.698 153.036 128.698 151.932V148.801C128.698 147.696 127.803 146.801 126.698 146.801Z" fill="#36E588"/>
<path opacity="0.5" d="M126.698 157.293H123.603C122.498 157.293 121.603 158.188 121.603 159.293V162.423C121.603 163.528 122.498 164.423 123.603 164.423H126.698C127.803 164.423 128.698 163.528 128.698 162.423V159.293C128.698 158.188 127.803 157.293 126.698 157.293Z" fill="#36E588"/>
<path opacity="0.5" d="M126.698 167.785H123.603C122.498 167.785 121.603 168.68 121.603 169.785V172.915C121.603 174.02 122.498 174.915 123.603 174.915H126.698C127.803 174.915 128.698 174.02 128.698 172.915V169.785C128.698 168.68 127.803 167.785 126.698 167.785Z" fill="#36E588"/>
<path d="M138.742 146.801H135.646C134.542 146.801 133.646 147.696 133.646 148.801V151.932C133.646 153.036 134.542 153.932 135.646 153.932H138.742C139.847 153.932 140.742 153.036 140.742 151.932V148.801C140.742 147.696 139.847 146.801 138.742 146.801Z" fill="#0EBE5F"/>
<path opacity="0.5" d="M138.742 157.293H135.646C134.542 157.293 133.646 158.188 133.646 159.293V162.423C133.646 163.528 134.542 164.423 135.646 164.423H138.742C139.847 164.423 140.742 163.528 140.742 162.423V159.293C140.742 158.188 139.847 157.293 138.742 157.293Z" fill="#36E588"/>
<path opacity="0.5" d="M138.742 167.785H135.646C134.542 167.785 133.646 168.68 133.646 169.785V172.915C133.646 174.02 134.542 174.915 135.646 174.915H138.742C139.847 174.915 140.742 174.02 140.742 172.915V169.785C140.742 168.68 139.847 167.785 138.742 167.785Z" fill="#36E588"/>
<path d="M150.768 146.801H147.673C146.568 146.801 145.673 147.696 145.673 148.801V151.932C145.673 153.036 146.568 153.932 147.673 153.932H150.768C151.873 153.932 152.768 153.036 152.768 151.932V148.801C152.768 147.696 151.873 146.801 150.768 146.801Z" fill="#0EBE5F"/>
<path d="M150.768 157.293H147.673C146.568 157.293 145.673 158.188 145.673 159.293V162.423C145.673 163.528 146.568 164.423 147.673 164.423H150.768C151.873 164.423 152.768 163.528 152.768 162.423V159.293C152.768 158.188 151.873 157.293 150.768 157.293Z" fill="#0EBE5F"/>
<path opacity="0.5" d="M150.768 167.785H147.673C146.568 167.785 145.673 168.68 145.673 169.785V172.915C145.673 174.02 146.568 174.915 147.673 174.915H150.768C151.873 174.915 152.768 174.02 152.768 172.915V169.785C152.768 168.68 151.873 167.785 150.768 167.785Z" fill="#36E588"/>
<path d="M168.06 119.445C168.02 122.698 167.749 126.021 166.519 129.041C165.29 132.06 163.025 134.781 159.943 135.859C159.194 136.12 158.352 136.341 157.953 137.003C157.421 137.904 158.072 139.146 159.033 139.58C159.994 140.014 161.092 139.842 162.108 139.601C161.34 140.496 160.568 141.445 160.151 142.559C159.734 143.672 159.754 145.021 160.532 145.949C161.129 146.692 162.129 147.031 163.08 147.13C166.544 147.458 169.665 144.797 171.192 141.68C172.718 138.563 173.75 136.435 174.425 133.021C175.154 129.428 175.64 124.448 175.339 120.815C175.295 120.338 175.21 119.825 174.888 119.49C174.625 119.235 174.257 119.101 173.886 119.021C172.087 118.572 170.18 118.611 168.415 119.114" fill="#F9B428"/>
<path d="M103.743 121.915C104.609 125.04 105.708 128.171 107.631 130.754C109.554 133.336 112.373 135.356 115.542 135.575C116.311 135.627 117.158 135.616 117.701 136.148C118.43 136.874 118.135 138.245 117.343 138.919C116.55 139.593 115.476 139.72 114.46 139.757C115.41 140.415 116.376 141.124 117.051 142.087C117.726 143.049 118.051 144.355 117.556 145.456C117.184 146.331 116.332 146.924 115.464 147.272C112.295 148.51 108.687 146.777 106.46 144.179C104.234 141.581 102.724 139.805 101.222 136.695C99.6225 133.425 97.8988 128.756 97.2569 125.174C97.1768 124.702 97.1261 124.186 97.3435 123.777C97.5254 123.461 97.8368 123.234 98.1651 123.058C99.7404 122.146 101.541 121.677 103.325 121.691" fill="#F9B428"/>
<path d="M136.78 116.978L144.941 109.897C146.38 108.648 145.365 106.289 143.469 106.474L135.398 107.265C135.272 107.277 135.144 107.277 135.017 107.265L127.186 106.498C125.268 106.31 124.264 108.717 125.747 109.948L134.25 117.006C134.987 117.617 136.057 117.606 136.78 116.978Z" fill="#2D2D2D"/>
</g>
<defs>
<clipPath id="clip0_1184_18440">
<rect width="268" height="240" fill="white"/>
</clipPath>
</defs>
</svg>
