<svg width="164" height="164" viewBox="0 0 164 164" fill="none" xmlns="http://www.w3.org/2000/svg">
<g id="Group 2793">
<circle id="Ellipse 143" cx="82" cy="82" r="82" fill="#F1EFEA"/>
<ellipse id="Ellipse 144" cx="83.5096" cy="131.803" rx="45.2761" ry="14.0859" transform="rotate(-1.52139 83.5096 131.803)" fill="#E4E0D5"/>
<g id="Group 2783">
<path id="Vector" d="M90.9561 19.3523C90.9368 19.3514 90.9174 19.3506 90.8981 19.3498C87.6067 18.8784 84.2997 19.665 81.6023 21.5816C79.7243 22.914 78.2724 24.6908 77.351 26.7423C76.3192 24.6258 74.731 22.8338 72.7337 21.547C71.3013 20.6331 69.7395 20.0235 68.0871 19.7197C66.5111 19.4386 64.9226 19.4474 63.3401 19.7663C62.93 19.8454 62.5703 20.101 62.3418 20.459C62.1133 20.8171 62.037 21.2398 62.1354 21.6507C62.9255 24.8798 64.8972 27.6565 67.7057 29.4431C69.1381 30.357 70.6999 30.9666 72.3523 31.2704C73.5442 31.4768 74.7427 31.5286 75.9294 31.4056C75.7556 34.9803 75.9886 38.5533 76.6695 42.0681C76.9212 43.4151 77.2502 44.7654 77.6002 46.0779C77.7508 46.6266 78.3267 47.1936 78.8201 47.4279C79.3707 47.6841 80.1423 47.7561 80.6952 47.5089C81.2675 47.2626 81.7885 46.8591 82.0455 46.2893C82.1127 46.0792 82.1799 45.8691 82.2462 45.6783C82.3226 45.2556 82.2829 44.8279 82.1265 44.4145C81.9759 43.8658 81.8261 43.2978 81.6957 42.7306C81.0645 39.8569 80.7259 36.9378 80.678 34.0118C80.6719 33.2564 80.6851 32.5017 80.6975 31.7665C80.7008 31.6892 80.7033 31.6312 80.7067 31.5539C82.9616 31.3608 85.1458 30.5645 87.0238 29.2321C89.7212 27.3154 91.5484 24.4705 92.1921 21.2258C92.193 21.2065 92.1938 21.1872 92.214 21.1687C92.3675 20.304 91.8017 19.505 90.9561 19.3523ZM90.6775 20.87C90.5785 21.3691 90.4609 21.8481 90.2854 22.3246C90.4609 21.8481 90.5978 21.37 90.6775 20.87C90.3699 20.8179 90.0421 20.7844 89.7328 20.7711C90.0606 20.8046 90.3699 20.8179 90.6775 20.87ZM82.4969 22.8402C81.7776 23.3513 81.1525 23.9245 80.5828 24.5583C81.1525 23.9245 81.7785 23.3319 82.4969 22.8402ZM73.2159 23.8334C74.635 25.0565 75.6726 26.5923 76.3168 28.266C75.6726 26.5923 74.6342 25.0758 73.2159 23.8334C72.936 23.5889 72.6552 23.3638 72.3358 23.137C72.6552 23.3638 72.9545 23.6091 73.2159 23.8334ZM72.3048 29.6805C72.2283 29.6579 72.1317 29.6537 72.0552 29.631C72.1325 29.6343 72.209 29.657 72.3048 29.6805ZM71.7686 29.5412C71.6921 29.5185 71.5963 29.495 71.5198 29.4723C71.5954 29.5143 71.6913 29.5378 71.7686 29.5412ZM71.2516 29.4027C71.1752 29.38 71.0793 29.3565 71.0029 29.3338C71.0793 29.3565 71.1558 29.3792 71.2516 29.4027ZM71.3934 22.5347C71.3363 22.5129 71.2799 22.4717 71.2421 22.4507C71.2984 22.4919 71.3363 22.5129 71.3934 22.5347ZM70.9008 22.2811C70.8437 22.2592 70.768 22.2172 70.7109 22.1954C70.768 22.2172 70.8445 22.2399 70.9008 22.2811ZM70.3889 22.0266C70.3124 22.0039 70.2561 21.9628 70.1796 21.9401C70.2553 21.9821 70.3318 22.0048 70.3889 22.0266ZM69.8938 21.8309C69.8173 21.8083 69.7409 21.7856 69.6845 21.7444C69.7417 21.7663 69.8182 21.7889 69.8938 21.8309ZM68.3271 21.3372C68.2506 21.3146 68.1732 21.3112 68.0774 21.2877C68.1732 21.3112 68.2497 21.3339 68.3271 21.3372ZM67.8085 21.2374C67.7126 21.2139 67.616 21.2097 67.5202 21.1862C67.616 21.2097 67.6933 21.213 67.8085 21.2374C67.7891 21.2366 67.7891 21.2366 67.8085 21.2374ZM67.2697 21.156C67.173 21.1518 67.0772 21.1283 66.9806 21.1242C67.0772 21.1283 67.1739 21.1325 67.2697 21.156ZM66.2275 21.0723C66.1308 21.0681 66.0342 21.0639 65.9375 21.0597C66.0149 21.0631 66.1115 21.0673 66.2275 21.0723ZM65.6862 21.0489C65.5896 21.0447 65.4921 21.0599 65.3761 21.0548C65.4921 21.0599 65.5887 21.064 65.6862 21.0489ZM65.1618 21.0843C65.0643 21.0995 64.9676 21.0953 64.8508 21.1096C64.9676 21.0953 65.0651 21.0801 65.1618 21.0843ZM64.1121 21.1745C63.9759 21.188 63.8389 21.2208 63.7019 21.2536C63.8583 21.2216 63.9751 21.2073 64.1121 21.1745ZM70.2026 29.0282C70.1261 29.0055 70.0505 28.9635 69.974 28.9408C70.0505 28.9635 70.127 28.9862 70.2026 29.0282ZM69.6899 28.793C69.6142 28.751 69.5571 28.7292 69.4814 28.6872C69.5377 28.7283 69.6142 28.751 69.6899 28.793ZM69.1401 28.5175C69.083 28.4957 69.0267 28.4545 68.9695 28.4327C69.0267 28.4545 69.0838 28.4764 69.1401 28.5175ZM74.4641 29.9093C74.3674 29.9052 74.2708 29.901 74.1548 29.896C74.2514 29.9002 74.3481 29.9043 74.4641 29.9093ZM75.7256 29.8477C75.8037 29.8317 75.9012 29.8165 75.9786 29.8199C75.9012 29.8165 75.8231 29.8325 75.7256 29.8477ZM74.6775 29.8992C74.7742 29.9034 74.891 29.8891 74.9877 29.8932C74.8902 29.9084 74.7935 29.9042 74.6775 29.8992ZM75.2011 29.8831C75.318 29.8688 75.4146 29.873 75.5314 29.8586C75.4146 29.873 75.3171 29.8881 75.2011 29.8831ZM82.1408 29.7376C83.3536 29.4608 84.5175 28.9689 85.6124 28.2804C84.536 28.989 83.3536 29.4608 82.1408 29.7376Z" fill="#FFAB07"/>
<g id="Group">
<path id="Vector_2" d="M91.3621 104.085C93.286 104.381 94.7665 105.975 96.0159 107.539C99.8742 112.372 102.99 117.813 105.238 123.603C105.308 123.78 105.377 123.977 105.546 124.1C105.752 124.264 106.023 124.256 106.295 124.229C109.48 124.038 112.723 124.72 115.603 126.2C116.285 126.558 117.038 127.056 117.16 127.816C117.343 128.966 116.109 129.726 115.045 130.165C116.003 130.4 116.692 131.475 116.553 132.457C116.394 133.437 115.413 134.189 114.449 134.089C115.521 134.368 116.082 135.747 115.707 136.796C115.333 137.845 114.278 138.496 113.189 138.604C112.099 138.712 111.009 138.394 110.001 137.963C106.73 136.583 103.683 134.031 100.174 134.111C99.1466 134.144 98.1482 134.392 97.1211 134.405C96.0941 134.419 94.9821 134.158 94.2994 133.373C93.8386 132.831 93.6367 132.125 93.4332 131.458C91.1786 124.021 87.2164 117.112 81.9417 111.443C85.3358 109.537 88.3717 106.957 90.8653 103.928" fill="#FFAB07"/>
</g>
<g id="Group_2">
<path id="Vector_3" d="M73.7411 102.665C71.8258 103.066 70.4555 104.75 69.3003 106.384C65.7507 111.44 62.951 117.07 61.0499 122.971C60.9836 123.162 60.9172 123.353 60.776 123.482C60.5752 123.648 60.3038 123.655 60.0516 123.664C56.8755 123.662 53.6618 124.53 50.8795 126.172C50.2232 126.57 49.503 127.1 49.4301 127.891C49.3027 129.047 50.609 129.743 51.6782 130.099C50.7352 130.406 50.1069 131.502 50.3164 132.48C50.526 133.457 51.5423 134.14 52.518 133.969C51.4768 134.311 50.9897 135.723 51.4103 136.748C51.8308 137.773 52.9488 138.344 54.0305 138.41C55.113 138.457 56.1946 138.078 57.1845 137.578C60.3711 135.993 63.2582 133.271 66.7688 133.152C67.7967 133.119 68.8154 133.298 69.8239 133.264C70.8518 133.231 71.9317 132.891 72.5677 132.066C72.9987 131.504 73.1456 130.794 73.311 130.104C75.1091 122.552 78.6715 115.406 83.5967 109.442C80.0872 107.741 76.8978 105.357 74.2529 102.474" fill="#FFAB07"/>
</g>
<g id="Group_3">
<path id="Vector_4" d="M82.0621 40.0937C110.989 40.2591 125.806 58.6169 125.808 80.5365C125.815 102.786 110.004 120.904 81.5872 120.567C52.4162 120.217 38.7328 103.419 37.8261 80.0272C37.0546 59.333 53.0188 39.9233 82.0621 40.0937Z" fill="#FFCD4C"/>
</g>
<path id="Vector_5" d="M70.688 73.3921C73.2717 73.5037 75.4566 71.5001 75.5682 68.9169C75.6798 66.3337 73.6758 64.1492 71.0922 64.0376C68.5085 63.9259 66.3236 65.9295 66.212 68.5127C66.1004 71.0959 68.1044 73.2804 70.688 73.3921Z" fill="#38311D"/>
<path id="Vector_6" d="M88.0468 72.3603C90.6304 72.4719 92.8154 70.4684 92.927 67.8852C93.0386 65.302 91.0346 63.1174 88.4509 63.0058C85.8673 62.8942 83.6824 64.8978 83.5708 67.481C83.4592 70.0641 85.4631 72.2487 88.0468 72.3603Z" fill="#38311D"/>
<g id="Group_4">
<path id="Vector_7" d="M102.757 86.4145C98.9315 86.6559 95.1269 87.3048 91.4207 88.3646C90.2441 88.701 88.8919 89.0686 87.8554 88.4042C87.1392 87.9472 86.7869 87.1381 86.3336 86.4214C85.8804 85.7048 85.1936 85.0167 84.3582 85.0775C83.3286 85.1492 82.7364 86.3047 82.5568 87.3233C81.9039 90.7805 83.4641 94.5657 86.3802 96.5506C86.9258 96.9227 87.5125 97.2385 88.1689 97.2862C88.5934 97.3239 89.0035 97.2448 89.4338 97.1472C93.9847 96.2595 98.5549 95.3726 103.106 94.4848C103.438 94.4217 103.809 94.3409 104.034 94.0795C104.197 93.8736 104.267 93.6055 104.298 93.3358C104.668 91.0475 104.307 88.6502 103.313 86.5547" fill="#FFAB07"/>
</g>
<g id="Group_5">
<path id="Vector_8" d="M61.8047 87.9956C65.6389 88.0063 69.4741 88.4431 73.2338 89.2832C74.4231 89.5476 75.8049 89.8397 76.8049 89.1083C77.4847 88.6149 77.8114 87.777 78.2104 87.0584C78.6094 86.3399 79.2614 85.5935 80.1128 85.6109C81.1575 85.6367 81.7873 86.7482 82.054 87.7473C82.9131 91.173 81.5653 95.0263 78.7604 97.19C78.2394 97.5935 77.663 97.9365 77.02 98.0249C76.6107 98.0846 76.1678 98.0268 75.7635 97.9706C71.1618 97.3458 66.56 96.721 61.9583 96.0962C61.612 96.0425 61.2464 95.9879 61.0051 95.7452C60.8193 95.5629 60.7537 95.2889 60.6872 95.0343C60.2041 92.7673 60.4052 90.3555 61.2728 88.2049" fill="#FFAB07"/>
</g>
<path id="Vector_9" d="M68.1182 78.218L66.8257 81.6863C76.2084 83.7182 87.7829 82.0883 98.3276 79.6393L97.561 76.3144C86.997 78.7625 76.5729 79.7645 68.1182 78.218Z" fill="#38311D"/>
</g>
</g>
</svg>
