<svg width="269" height="240" viewBox="0 0 269 240" fill="none" xmlns="http://www.w3.org/2000/svg">
<g clip-path="url(#clip0_1184_18377)">
<path fill-rule="evenodd" clip-rule="evenodd" d="M258.196 164.981C234.292 218.226 175.182 245.866 117.382 237.538C59.0404 229.132 8.55182 186.337 0.911003 127.912C-6.04143 74.7503 39.2728 34.0733 87.7882 11.2479C129.279 -8.27257 176.91 -1.64043 210.968 29.0846C250.345 64.6087 279.904 116.628 258.196 164.981Z" fill="#F2F2F2"/>
<circle cx="98.6866" cy="94.9972" r="10.0027" transform="rotate(16.733 98.6866 94.9972)" fill="#0EBE5F"/>
<path fill-rule="evenodd" clip-rule="evenodd" d="M106.319 92.1599C106.863 92.2334 107.178 92.7942 106.952 93.294C106.29 94.757 105.156 96.0139 103.636 96.7815C102.118 97.5483 100.473 97.8514 98.8998 97.6183C98.8183 97.6062 98.7425 97.583 98.6732 97.5507L97.5847 101.171C97.4886 101.491 97.1515 101.672 96.8318 101.576C96.5121 101.48 96.3309 101.143 96.427 100.823L97.513 97.2112C97.4495 97.1991 97.3859 97.1791 97.3234 97.1504C95.8499 96.4755 94.591 95.2961 93.7994 93.8239C93.02 92.3745 92.7754 90.7182 92.9823 89.132C93.0552 88.5733 93.6391 88.2591 94.1483 88.5002C95.6095 89.1921 96.9179 90.2871 97.6805 91.7969C98.3725 93.1669 98.6352 94.6679 98.5012 96.0834C99.2077 94.7953 100.258 93.6869 101.588 92.9719C103.049 92.1861 104.721 91.9439 106.319 92.1599Z" fill="#222222"/>
<circle cx="47.3725" cy="111.527" r="11.8725" fill="#0EBE5F"/>
<path fill-rule="evenodd" clip-rule="evenodd" d="M51.161 111.346C52.1577 109.645 52.6935 107.699 52.7683 105.753C50.8339 105.827 48.8489 106.306 47.1231 107.293C45.4275 106.306 43.5437 105.827 41.6094 105.753C41.6838 107.688 42.2138 109.623 43.1995 111.316C42.2239 113.035 41.719 114.944 41.719 116.802C43.6183 116.802 45.5175 116.266 47.1888 115.29C48.8601 116.266 50.7594 116.802 52.6587 116.802C52.6587 114.955 52.1595 113.057 51.161 111.346Z" fill="#222222"/>
<circle cx="82.1205" cy="141.031" r="12.9537" transform="rotate(27.5784 82.1205 141.031)" fill="#FFCC4C"/>
<path d="M83.3725 144.174L90.4956 145.203L85.5939 139.921L86.6105 132.822L81.3408 137.699L74.2296 136.707L79.1194 141.952L78.1147 149.088L83.3725 144.174Z" fill="#222222"/>
<circle cx="68.6963" cy="62.848" r="11.0039" transform="rotate(27.5784 68.6963 62.848)" fill="#FFCC4C"/>
<path d="M69.7607 65.5172L75.8116 66.3919L71.6477 61.9043L72.5113 55.8745L68.0349 60.0173L61.994 59.1748L66.1478 63.6302L65.2943 69.6921L69.7607 65.5172Z" fill="#222222"/>
<path d="M140.271 130.842C138.921 134.742 137.273 138.591 134.61 141.738C131.947 144.885 128.136 147.215 124.036 147.303C123.051 147.317 121.928 147.244 121.202 147.89C120.191 148.763 120.502 150.514 121.486 151.396C122.47 152.277 123.841 152.516 125.168 152.654C123.894 153.451 122.59 154.242 121.652 155.406C120.714 156.569 120.215 158.211 120.738 159.629C121.187 160.756 122.217 161.553 123.327 162.055C127.324 163.8 132.143 161.862 135.198 158.752C138.254 155.643 140.348 153.477 142.543 149.662C144.864 145.653 147.401 139.861 148.512 135.394C148.645 134.8 148.754 134.171 148.509 133.635C148.308 133.198 147.897 132.911 147.511 132.658C145.545 131.421 143.247 130.681 140.925 130.616" fill="#17AA55"/>
<path d="M165.755 206.172C140.909 204.843 121.103 197.511 121.516 189.795C121.93 182.079 142.406 176.901 167.253 178.23C192.099 179.559 211.905 186.891 211.492 194.607C211.078 202.323 190.601 207.501 165.755 206.172Z" fill="#E3E3E0"/>
<path d="M183.012 154.649C181.376 156.134 180.986 158.547 180.759 160.787C180.121 167.755 180.539 174.817 181.998 181.699C182.046 181.915 182.093 182.131 182.02 182.34C181.912 182.608 181.66 182.775 181.409 182.912C178.299 184.702 175.68 187.376 173.88 190.556C173.439 191.321 173.08 192.243 173.424 193.056C173.956 194.277 175.598 194.194 176.854 193.966C176.106 194.804 176.11 196.236 176.847 197.073C177.614 197.912 178.971 198.025 179.835 197.286C178.99 198.209 179.313 199.874 180.297 200.634C181.281 201.395 182.678 201.358 183.774 200.786C184.87 200.213 185.688 199.227 186.387 198.203C188.621 194.867 189.884 190.558 193.256 188.448C194.233 187.838 195.318 187.447 196.295 186.836C197.272 186.226 198.148 185.274 198.311 184.096C198.42 183.311 198.166 182.503 197.939 181.758C195.451 173.351 194.94 164.333 196.376 155.709C191.992 156.02 187.569 155.476 183.346 154.152" fill="#17AA55"/>
<path d="M154.257 153.504C152.185 154.17 150.816 156.249 149.727 158.193C146.324 164.291 143.827 170.932 142.378 177.789C142.335 178 142.29 178.241 142.129 178.383C141.933 178.615 141.63 178.627 141.324 178.669C137.755 179.03 134.279 180.371 131.358 182.539C130.66 183.045 129.919 183.761 129.926 184.645C129.937 185.955 131.444 186.596 132.699 186.885C131.671 187.341 131.106 188.646 131.434 189.733C131.792 190.821 132.995 191.473 134.074 191.173C132.952 191.683 132.55 193.304 133.149 194.407C133.749 195.509 135.05 196.046 136.267 195.968C137.483 195.92 138.639 195.351 139.71 194.685C143.084 192.545 146.019 189.16 149.932 188.607C151.064 188.433 152.24 188.535 153.371 188.391C154.503 188.216 155.684 187.74 156.322 186.713C156.727 186.037 156.838 185.221 156.948 184.405C158.116 175.703 161.267 167.275 166.107 159.985C161.987 158.454 158.157 156.149 154.851 153.205" fill="#17AA55"/>
<path d="M171.675 87.6196C173.378 81.4819 173.893 74.9941 173.205 68.7069C173.086 67.7408 172.583 66.779 171.787 66.149C171.027 65.5464 169.867 65.1631 168.881 65.2829C167.864 65.4057 166.809 65.8371 166.175 66.6578C165.538 67.4482 165.144 68.4303 165.233 69.4296C165.52 71.9373 165.585 74.4651 165.455 76.9801C165.457 76.6441 165.492 76.3052 165.494 75.9692C165.323 79.4648 164.732 82.9373 163.812 86.3177C163.571 87.2248 163.905 88.4461 164.485 89.1872C165.034 89.9312 166.058 90.6015 167.031 90.6965C168.07 90.816 169.215 90.6816 170.057 90.0253C170.901 89.3993 171.41 88.6205 171.675 87.6196Z" fill="#17AA55"/>
<path d="M174.955 70.6546C173.647 70.7731 172.292 70.7128 170.987 70.4954C170.628 70.4363 170.354 70.2475 170.136 69.962C169.949 69.6736 169.888 69.3434 169.956 69.0319C170.829 65.4727 173.065 62.431 176.228 60.4043C178.267 59.1204 180.607 58.3282 183.031 58.1085C184.338 57.99 185.693 58.0503 186.999 58.2678C187.357 58.3268 187.631 58.5157 187.85 58.8012C188.036 59.0895 188.098 59.4197 188.029 59.7312C187.157 63.2904 184.92 66.3321 181.758 68.3589C179.718 69.6427 177.346 70.4378 174.955 70.6546Z" fill="#17AA55"/>
<path d="M183.138 59.3195C184.35 59.2097 185.575 59.2513 186.75 59.45C185.997 62.5405 184.034 65.4048 181.022 67.3262C179.105 68.5379 176.948 69.2219 174.812 69.4156C173.6 69.5255 172.375 69.4839 171.2 69.2851C171.953 66.1947 173.916 63.3304 176.927 61.4089C178.879 60.2246 181.002 59.5132 183.138 59.3195ZM182.922 56.8969C180.307 57.134 177.749 58.007 175.527 59.399C172.056 61.5758 169.653 64.9074 168.709 68.7478C168.542 69.4039 168.666 70.0644 169.07 70.6382C169.475 71.2121 170.052 71.5566 170.738 71.6776C172.173 71.9138 173.624 71.9654 175.059 71.8353C177.674 71.5983 180.232 70.7253 182.455 69.3332C185.926 67.1565 188.329 63.8248 189.273 59.9845C189.439 59.3283 189.316 58.6679 188.911 58.094C188.541 57.5476 187.93 57.1757 187.244 57.0547C185.811 56.8488 184.357 56.7669 182.922 56.8969Z" fill="#17AA55"/>
<path d="M168.966 70.9222C165.554 71.2315 162.138 70.4117 159.338 68.5592C156.199 66.5237 154.061 63.4512 153.296 59.9183C153.235 59.5881 153.301 59.2463 153.502 58.9838C153.704 58.7213 154.006 58.5107 154.357 58.4789C154.703 58.3866 155.053 58.3548 155.404 58.323C158.816 58.0137 162.232 58.8335 165.033 60.6859C168.172 62.7214 170.31 65.794 171.074 69.3268C171.136 69.657 171.07 69.9988 170.868 70.2613C170.667 70.5238 170.364 70.7344 170.013 70.7662C169.665 70.8283 169.317 70.8904 168.966 70.9222Z" fill="#17AA55"/>
<path d="M155.512 59.5345C158.509 59.2628 161.654 59.924 164.317 61.6669C167.285 63.5957 169.146 66.4492 169.81 69.5638C169.493 69.623 169.174 69.6519 168.856 69.6808C165.858 69.9526 162.745 69.2884 160.051 67.5485C157.082 65.6196 155.221 62.7662 154.558 59.6515C154.874 59.5923 155.193 59.5634 155.512 59.5345ZM155.296 57.1119C154.913 57.1466 154.531 57.1813 154.151 57.2463C153.455 57.3704 152.844 57.7311 152.443 58.2864C152.043 58.8416 151.911 59.5252 152.031 60.1553C152.857 64.0184 155.179 67.349 158.592 69.5734C161.629 71.557 165.375 72.469 169.074 72.1337C169.457 72.099 169.839 72.0643 170.219 71.9994C170.915 71.8752 171.526 71.5146 171.927 70.9593C172.327 70.404 172.459 69.7205 172.339 69.0903C171.513 65.2272 169.191 61.8966 165.778 59.6722C162.741 57.6886 158.995 56.7766 155.296 57.1119Z" fill="#17AA55"/>
<path d="M121.214 115.264C116.17 141.235 126.821 163.273 158.68 171.167C189.71 178.886 211.681 162.992 217.392 138.494C223.035 114.387 211.532 90.3485 179.911 82.681C148.159 75.0527 125.681 92.2782 121.214 115.264Z" fill="#20C46C"/>
<path d="M143.762 115.469C140.999 114.563 139.494 111.577 140.401 108.8C141.308 106.022 144.283 104.505 147.046 105.411C149.809 106.316 151.314 109.302 150.407 112.08C149.5 114.857 146.525 116.374 143.762 115.469Z" fill="#2D2D2D"/>
<path d="M162.994 119.054C160.231 118.148 158.727 115.162 159.634 112.385C160.54 109.607 163.515 108.09 166.278 108.996C169.041 109.901 170.546 112.887 169.639 115.664C168.732 118.442 165.757 119.959 162.994 119.054Z" fill="#2D2D2D"/>
<path d="M195.425 132.763C193.173 136.198 190.628 139.55 187.269 141.928C183.91 144.306 179.653 145.663 175.64 144.717C174.667 144.486 173.62 144.149 172.746 144.584C171.568 145.181 171.417 146.944 172.145 148.059C172.873 149.173 174.158 149.736 175.403 150.169C173.978 150.6 172.512 151.085 171.312 151.987C170.112 152.889 169.217 154.338 169.415 155.854C169.546 157.05 170.379 158.09 171.324 158.841C174.787 161.543 179.916 160.831 183.657 158.551C187.398 156.27 189.941 154.707 192.977 151.533C196.194 148.204 200.093 143.236 202.24 139.165C202.517 138.627 202.775 138.024 202.66 137.449C202.554 136.998 202.253 136.606 201.912 136.269C200.302 134.569 198.247 133.316 196.028 132.652" fill="#17AA55"/>
<path d="M157.855 122.99C153.586 123.004 149.505 122.303 146.29 121.466C144.506 121.002 142.75 122.926 143.543 124.591L148.374 134.735C148.968 135.982 150.617 136.266 151.594 135.29L159.792 127.091C161.201 125.682 159.848 122.983 157.855 122.99Z" fill="#2D2D2D" stroke="#2D2D2D"/>
</g>
<defs>
<clipPath id="clip0_1184_18377">
<rect width="268" height="240" fill="white" transform="translate(0.5)"/>
</clipPath>
</defs>
</svg>
