<svg width="164" height="164" viewBox="0 0 164 164" fill="none" xmlns="http://www.w3.org/2000/svg">
<g id="Group 2795">
<circle id="Ellipse 143" cx="82" cy="82" r="82" fill="#F1EFEA"/>
<ellipse id="Ellipse 144" cx="81.0004" cy="132" rx="45" ry="14" transform="rotate(-1.52139 81.0004 132)" fill="#E3E0D8"/>
<g id="Group 2784">
<path id="Vector" d="M88.6234 18.0461C88.6051 18.0453 88.5867 18.0445 88.5684 18.0437C85.4492 17.6 82.3163 18.3486 79.7621 20.1675C77.9838 21.432 76.6097 23.1173 75.7385 25.0624C74.7588 23.0575 73.2523 21.3606 71.3585 20.1429C70.0004 19.2781 68.52 18.7018 66.9539 18.4154C65.4604 18.1505 63.9552 18.1603 62.456 18.464C62.0674 18.5393 61.7269 18.7819 61.5107 19.1214C61.2945 19.4609 61.2225 19.8616 61.3161 20.2509C62.0678 23.3105 63.9386 25.9403 66.6014 27.6309C67.9595 28.4957 69.44 29.0721 71.006 29.3584C72.1356 29.5529 73.2713 29.6009 74.3956 29.4832C74.2342 32.8713 74.4582 36.2573 75.1066 39.5878C75.3463 40.8641 75.6593 42.1435 75.9921 43.3871C76.1353 43.907 76.6815 44.4439 77.1493 44.6655C77.6712 44.9077 78.4024 44.9753 78.9262 44.7405C79.4682 44.5065 79.9615 44.1236 80.2045 43.5834C80.268 43.3842 80.3315 43.185 80.3941 43.0041C80.4661 42.6035 80.4282 42.1982 80.2796 41.8065C80.1364 41.2866 79.9939 40.7485 79.8698 40.211C79.2692 37.4881 78.9456 34.7218 78.8975 31.9489C78.8911 31.2329 78.9029 30.5177 78.914 29.8209C78.9171 29.7476 78.9194 29.6926 78.9225 29.6194C81.059 29.4343 83.1279 28.6776 84.9063 27.4131C87.4605 25.5942 89.1893 22.8962 89.7963 19.8206C89.7971 19.8023 89.7978 19.7839 89.8169 19.7664C89.9616 18.9467 89.4247 18.19 88.6234 18.0461ZM88.3608 19.4847C88.2674 19.9579 88.1564 20.4119 87.9906 20.8637C88.1564 20.4119 88.2857 19.9586 88.3608 19.4847C88.0692 19.4357 87.7586 19.4042 87.4655 19.3918C87.7761 19.4233 88.0692 19.4357 88.3608 19.4847ZM80.611 21.3595C79.9299 21.8445 79.338 22.3884 78.7988 22.9895C79.338 22.3884 79.9306 21.8262 80.611 21.3595ZM71.8176 22.3093C73.1633 23.4672 74.1479 24.9218 74.7599 26.5074C74.1479 24.9218 73.1625 23.4855 71.8176 22.3093C71.5521 22.0779 71.2858 21.8648 70.9829 21.6501C71.2858 21.8648 71.5696 22.097 71.8176 22.3093ZM70.9596 27.8517C70.8871 27.8303 70.7955 27.8264 70.723 27.805C70.7962 27.8081 70.8687 27.8295 70.9596 27.8517ZM70.4513 27.7201C70.3788 27.6987 70.288 27.6765 70.2155 27.6551C70.2872 27.6948 70.378 27.717 70.4513 27.7201ZM69.9614 27.5893C69.8889 27.5679 69.798 27.5457 69.7255 27.5243C69.798 27.5457 69.8705 27.5671 69.9614 27.5893ZM70.0895 21.0802C70.0353 21.0596 69.9819 21.0206 69.946 21.0008C69.9994 21.0397 70.0353 21.0596 70.0895 21.0802ZM69.6225 20.8403C69.5683 20.8197 69.4966 20.7799 69.4424 20.7593C69.4966 20.7799 69.5691 20.8013 69.6225 20.8403ZM69.1555 20.6004C69.083 20.579 69.0296 20.54 68.9571 20.5186C69.0105 20.5575 69.083 20.579 69.1555 20.6004ZM68.6679 20.4146C68.5954 20.3932 68.5229 20.3718 68.4695 20.3328C68.5236 20.3535 68.5961 20.3749 68.6679 20.4146ZM67.6911 20.0798C67.6186 20.0583 67.5461 20.0369 67.4736 20.0155C67.5278 20.0362 67.6003 20.0576 67.6911 20.0798ZM67.1828 19.9482C67.1103 19.9268 67.037 19.9237 66.9462 19.9015C67.037 19.9237 67.1095 19.9451 67.1828 19.9482ZM66.6913 19.854C66.6005 19.8318 66.5089 19.828 66.4181 19.8058C66.5089 19.828 66.5822 19.8311 66.6913 19.854C66.673 19.8533 66.673 19.8533 66.6913 19.854ZM66.1807 19.7774C66.0891 19.7735 65.9983 19.7514 65.9067 19.7475C66.0166 19.7521 66.0899 19.7552 66.1807 19.7774ZM65.1931 19.699C65.1015 19.6951 65.0099 19.6913 64.9183 19.6874C64.9916 19.6905 65.1015 19.6951 65.1931 19.699ZM64.6802 19.6773C64.5886 19.6735 64.4962 19.6879 64.3863 19.6833C64.4962 19.6879 64.5878 19.6918 64.6802 19.6773ZM64.1833 19.7114C64.0909 19.7258 63.9993 19.722 63.8887 19.7357C63.9993 19.722 64.0917 19.7075 64.1833 19.7114ZM63.1887 19.7978C63.0597 19.8107 62.9299 19.842 62.8002 19.8732C62.9482 19.8427 63.0772 19.8298 63.1887 19.7978ZM62.9973 20.8541C63.5208 22.3626 64.3794 23.7568 65.5412 24.9253C64.3611 23.7561 63.5025 22.3618 62.9973 20.8541ZM68.967 27.2354C68.8945 27.214 68.8228 27.1742 68.7503 27.1528C68.8228 27.1742 68.8953 27.1956 68.967 27.2354ZM68.4809 27.013C68.4092 26.9733 68.355 26.9526 68.2833 26.9129C68.3367 26.9518 68.4092 26.9733 68.4809 27.013ZM67.9598 26.7524C67.9056 26.7318 67.8522 26.6928 67.798 26.6722C67.8705 26.6936 67.9064 26.7135 67.9598 26.7524ZM71.2145 27.8992C71.3053 27.9214 71.3969 27.9252 71.4877 27.9474C71.3969 27.9252 71.3236 27.9221 71.2145 27.8992ZM73.0058 28.0666C72.9142 28.0627 72.8226 28.0588 72.7127 28.0542C72.8043 28.0581 72.8959 28.0619 73.0058 28.0666ZM74.2011 28.007C74.2751 27.9917 74.3675 27.9773 74.4408 27.9804C74.3675 27.9773 74.2934 27.9925 74.2011 28.007ZM73.208 28.0568C73.2996 28.0606 73.4103 28.047 73.5019 28.0508C73.4095 28.0653 73.3179 28.0614 73.208 28.0568ZM73.7042 28.041C73.8149 28.0273 73.9064 28.0312 74.0171 28.0175C73.9248 28.032 73.8141 28.0457 73.7042 28.041ZM80.2798 27.8967C81.4287 27.6332 82.5311 27.166 83.568 26.5124C82.5487 27.1851 81.4287 27.6332 80.2798 27.8967ZM84.0582 26.2028C84.3423 25.9946 84.6271 25.7681 84.8936 25.5408C84.6271 25.7681 84.3606 25.9954 84.0582 26.2028Z" fill="#17AA55"/>
<g id="Group">
<path id="Vector_2" d="M94.8297 99.178C96.5799 99.752 97.7132 101.473 98.6401 103.135C101.486 108.263 103.536 113.833 104.736 119.593C104.768 119.775 104.819 119.973 104.937 120.093C105.098 120.284 105.375 120.301 105.617 120.339C108.617 120.659 111.548 121.811 113.994 123.64C114.576 124.077 115.187 124.658 115.185 125.394C115.19 126.496 113.903 127.01 112.854 127.25C113.708 127.631 114.191 128.736 113.906 129.639C113.602 130.542 112.575 131.093 111.674 130.827C112.624 131.255 112.942 132.63 112.438 133.548C111.933 134.466 110.825 134.912 109.81 134.856C108.777 134.801 107.805 134.318 106.92 133.756C104.07 131.937 101.644 129.095 98.3379 128.613C97.3726 128.48 96.4034 128.549 95.4381 128.415C94.4728 128.282 93.4867 127.855 92.9671 127.01C92.6328 126.446 92.5469 125.753 92.4622 125.079C91.5201 117.776 88.9033 110.701 84.865 104.574C88.3414 103.315 91.5868 101.394 94.3713 98.9349" fill="#17AA55"/>
</g>
<g id="Group_2">
<path id="Vector_3" d="M68.9488 99.2965C67.2646 100.069 66.3423 101.921 65.6261 103.67C63.3965 109.1 61.9965 114.876 61.4558 120.726C61.4481 120.909 61.4212 121.11 61.3051 121.251C61.1684 121.447 60.9089 121.51 60.6676 121.573C57.7218 122.238 54.9434 123.717 52.7265 125.807C52.1911 126.317 51.6504 126.954 51.7476 127.693C51.8844 128.799 53.2092 129.149 54.2869 129.268C53.4776 129.748 53.1174 130.888 53.5215 131.75C53.9255 132.611 55.0083 133.042 55.868 132.674C54.9647 133.205 54.8136 134.612 55.4199 135.463C56.0262 136.315 57.1694 136.62 58.1862 136.443C59.203 136.265 60.1085 135.68 60.9256 135.017C63.5479 132.889 65.625 129.765 68.8541 128.911C69.8007 128.657 70.7747 128.625 71.703 128.37C72.6312 128.116 73.5894 127.587 73.9945 126.687C74.2772 126.075 74.27 125.377 74.2795 124.717C74.37 117.362 76.148 110.024 79.4528 103.465C75.8553 102.616 72.4145 101.094 69.3482 98.9647" fill="#17AA55"/>
</g>
<g id="Group_3">
<path id="Vector_4" d="M80.2114 37.7127C107.622 37.8428 121.678 55.2273 121.7 76.0013C121.727 97.0874 106.761 114.274 79.8346 113.981C52.193 113.676 39.2119 97.768 38.3314 75.5998C37.5816 55.9879 52.6911 37.578 80.2114 37.7127Z" fill="#20C46C"/>
</g>
<path id="Vector_5" d="M69.6136 65.8178C72.0618 65.9212 74.1304 64.0203 74.2338 61.5721C74.3372 59.1238 72.4363 57.0553 69.988 56.9519C67.5398 56.8485 65.4712 58.7494 65.3678 61.1976C65.2644 63.6459 67.1653 65.7144 69.6136 65.8178Z" fill="#38311D"/>
<path id="Vector_6" d="M86.0614 64.8246C88.5097 64.928 90.5782 63.0272 90.6816 60.5789C90.785 58.1306 88.8842 56.0621 86.4359 55.9587C83.9876 55.8553 81.9191 57.7562 81.8157 60.2045C81.7123 62.6527 83.6132 64.7212 86.0614 64.8246Z" fill="#38311D"/>
<path id="Vector_7" d="M95.5615 67.5375C97.3825 67.6144 98.921 66.2005 98.998 64.3795C99.0749 62.5585 97.661 61.0199 95.84 60.943C94.019 60.8661 92.4804 62.2799 92.4035 64.101C92.3266 65.922 93.7404 67.4606 95.5615 67.5375Z" fill="#EA95F4"/>
<path id="Vector_8" d="M60.7762 69.9408C62.5972 70.0177 64.1358 68.6038 64.2127 66.7828C64.2896 64.9618 62.8757 63.4232 61.0547 63.3463C59.2337 63.2694 57.6951 64.6833 57.6182 66.5043C57.5413 68.3253 58.9552 69.8639 60.7762 69.9408Z" fill="#EA95F4"/>
<g id="Group_4">
<path id="Vector_9" d="M112.93 70.99C118.712 67.3211 125.027 63.605 131.632 61.681C132.583 61.3968 133.623 61.1299 134.258 60.3556C134.938 59.5341 135.359 58.1213 136.438 58.2353C137.644 58.3735 137.737 60.1275 137.454 61.3055C139.213 61.3819 141.045 61.5656 142.609 62.4634C144.176 63.3431 145.441 65.1169 145.196 66.8807C144.886 69.1736 142.324 70.3619 140.034 70.4262C137.744 70.4905 135.405 69.836 133.15 70.2057C131.76 70.4429 130.485 71.0567 129.239 71.7135C125.994 73.4428 122.917 75.4657 120.084 77.7779C119.64 78.1409 119.197 78.5039 118.648 78.6411C117.234 79.0043 115.861 77.6952 115 76.4469C113.941 74.8621 113.497 72.7979 112.93 70.99Z" fill="#17AA55"/>
</g>
<g id="Group_5">
<path id="Vector_10" d="M50.7644 73.3489C44.6427 70.6433 37.9981 67.9812 31.4329 67.0844C30.4893 66.9481 29.4531 66.8357 28.7116 66.1934C27.9114 65.494 27.2519 64.1721 26.2709 64.4549C25.1598 64.7633 25.406 66.4814 25.8873 67.5927C24.2532 67.9446 22.5675 68.3982 21.2481 69.4912C19.9286 70.5842 19.0958 72.4901 19.6404 74.1749C20.358 76.3687 22.9795 77.1252 25.1607 76.848C27.3231 76.5717 29.3973 75.5838 31.5918 75.6041C32.9426 75.6228 34.2739 76.0398 35.5499 76.4792C38.9216 77.659 42.1963 79.181 45.2973 81.0091C45.7785 81.2855 46.2606 81.5818 46.8068 81.6367C48.2004 81.7727 49.2409 80.3146 49.8172 78.9569C50.5467 77.2544 50.5847 75.1856 50.7644 73.3489Z" fill="#17AA55"/>
</g>
<path id="Vector_11" d="M66.369 70.5261L78.1869 80.953C78.6828 81.3777 79.4186 81.3353 79.8616 80.8402L90.2884 69.0223C90.9827 68.2258 90.3743 66.989 89.3255 67.0548L77.4028 67.7991L67.0991 68.4466C66.0129 68.5292 65.5725 69.8319 66.369 70.5261Z" fill="#38311D"/>
</g>
</g>
</svg>
