<svg width="170" height="145" viewBox="0 0 170 145" fill="none" xmlns="http://www.w3.org/2000/svg">
<g filter="url(#filter0_d_2000_18673)">
<path d="M129.824 88.3519C129.674 86.6052 132.346 87.4649 133.668 87.5604C135.14 87.6696 136.517 87.5604 137.989 87.3148C141.342 86.7689 144.587 85.3088 146.999 82.8934C152.847 77.0392 152.288 63.9662 143.455 61.1551C140.347 60.1726 137.212 60.9777 134.527 62.6698C132.537 63.9253 131.024 65.7129 129.184 67.0912C128.747 66.1633 128.202 58.6988 128.979 57.9619C135.263 51.8757 144.696 48.5461 153.079 52.2033C161.598 55.915 165.701 65.3718 165.265 74.2827C164.679 86.0866 155.192 94.1788 144.532 97.4402C138.303 99.3507 131.746 99.8965 125.258 100.401C126.348 97.2355 127.439 94.0696 128.529 90.9037C128.829 90.044 129.143 89.157 129.729 88.4611C129.756 88.4338 129.838 88.4065 129.824 88.3519Z" fill="url(#paint0_radial_2000_18673)"/>
<path d="M19.9039 97.5878L19.9039 97.6014C19.8903 97.5332 19.8767 97.465 19.8496 97.4104C19.8632 97.465 19.8767 97.5332 19.9039 97.5878Z" fill="#DBDBDB"/>
<path d="M19.1136 94.108C18.5547 91.3788 18.173 88.7041 17.9004 86.1387C18.173 88.8133 18.5683 91.4743 19.1136 94.108Z" fill="#DBDBDB"/>
<path d="M20.2041 98.7618C20.2041 98.7344 20.1904 98.7071 20.1904 98.6934C20.1904 98.7207 20.2041 98.7344 20.2041 98.7618Z" fill="#DBDBDB"/>
<path d="M17.8725 85.9612C17.8454 85.7565 17.8318 85.5382 17.8047 85.3335C17.8318 85.5382 17.859 85.7565 17.8725 85.9612Z" fill="#DBDBDB"/>
<path d="M18.187 63.8955C18.2142 63.4588 18.2551 63.0222 18.296 62.5991C18.2142 63.0222 18.1325 63.4452 18.0643 63.8819C17.1238 69.5859 17.2192 75.6858 17.5191 81.3626C17.0011 71.2781 18.187 63.8955 18.187 63.8955Z" fill="#DBDBDB"/>
<path opacity="0.5" d="M20.0816 56.704C20.0543 56.5539 20.0135 56.4174 19.9998 56.2673C19.1411 58.1778 18.5549 60.2793 18.3096 62.5991C18.4731 61.7804 18.6503 60.9753 18.8548 60.1838C19.1683 58.9556 19.5773 57.7957 20.0816 56.704Z" fill="white"/>
<path opacity="0.5" d="M17.9003 86.1386C17.9003 86.0703 17.8867 86.0157 17.8867 85.9475C17.8867 86.0157 17.8867 86.084 17.9003 86.1386Z" fill="white"/>
<path opacity="0.5" d="M19.8492 97.4105C19.795 97.1785 19.7271 96.9466 19.6729 96.7009C19.7407 96.9329 19.795 97.1649 19.8492 97.4105Z" fill="white"/>
<path opacity="0.5" d="M20.1905 98.6933C20.0951 98.3385 19.9997 97.97 19.9043 97.6016C19.9997 97.97 20.0951 98.3248 20.1905 98.6933Z" fill="white"/>
<path d="M75.4241 73.1613C64.8192 73.1613 54.5141 72.1651 45.6403 70.2956C36.9982 68.4807 30.1009 65.9152 25.6572 62.8994C22.7265 60.9071 20.9817 58.7919 20.4774 56.6085C20.4501 56.513 20.4365 56.4175 20.4229 56.322C23.4353 49.7036 30.1418 44.7228 40.3378 41.5296C50.343 38.391 61.6704 37.6132 69.4264 37.504C71.4166 37.4358 73.434 37.3948 75.4241 37.3948C84.8977 37.3948 94.2349 38.2 102.441 39.7147C103.572 39.9194 104.676 40.1377 105.726 40.3697C113.128 41.9663 119.33 44.1634 123.651 46.6879C128.013 49.2534 130.384 52.1327 130.507 55.0257C130.507 55.1076 130.507 55.1894 130.507 55.2713C130.507 57.6048 129.09 59.8974 126.309 62.0671C123.555 64.2095 119.589 66.1473 114.532 67.8121C104.09 71.2645 90.2002 73.1613 75.4241 73.1613Z" fill="url(#paint1_linear_2000_18673)"/>
<path d="M75.4238 37.8041C84.8701 37.8042 94.1801 38.6093 102.372 40.1104C103.49 40.315 104.594 40.5334 105.644 40.7654C113.005 42.362 119.166 44.5317 123.446 47.0426C126.404 48.7757 129.948 51.5731 130.098 55.0392C130.098 55.1211 130.098 55.203 130.098 55.2712C130.098 57.4682 128.735 59.6516 126.05 61.7395C123.323 63.8546 119.411 65.7651 114.395 67.4163C103.995 70.8414 90.1454 72.7382 75.4102 72.7382C64.8325 72.7382 54.5683 71.7557 45.7082 69.8862C37.1342 68.0712 30.2778 65.5467 25.8886 62.5446C23.0397 60.6068 21.3631 58.5735 20.8724 56.4993C20.8588 56.4584 20.8451 56.4038 20.8451 56.3629C23.8303 49.9219 30.4278 45.0502 40.4602 41.9116C50.4109 38.7867 61.711 38.0088 69.4262 37.8997L69.4398 37.8997L69.4534 37.8997C71.4299 37.8451 73.4337 37.8041 75.4238 37.8041ZM75.4238 36.9854C73.3928 36.9854 71.4027 37.0263 69.4262 37.0945C61.5747 37.2037 50.2337 37.9952 40.2148 41.1338C31.3001 43.9312 23.435 48.5846 20 56.2673C20.0273 56.4174 20.0545 56.5539 20.0818 56.704C20.627 59.0375 22.4945 61.2345 25.4252 63.2405C34.408 69.354 53.4097 73.5706 75.4102 73.5706C106.066 73.5707 130.916 65.383 130.916 55.2849C130.916 55.203 130.916 55.1075 130.916 55.0256C130.643 48.7347 120.733 43.208 105.821 39.9875C104.731 39.7419 103.626 39.5236 102.522 39.3325C94.4936 37.8314 85.2518 36.9854 75.4238 36.9854Z" fill="#C4C4C4"/>
<path d="M89.3603 2.56497C89.3466 2.56497 89.3466 2.56497 89.3603 2.56497C89.333 2.56497 89.3194 2.55132 89.3057 2.55132C86.2388 1.85538 83.0627 2.36031 80.3638 3.97057C78.4963 5.08956 76.9969 6.65888 75.9746 8.52841C75.1567 6.45419 73.7936 4.63926 71.9943 3.27465C70.713 2.30577 69.2818 1.60982 67.7415 1.21409C66.283 0.832005 64.7699 0.736488 63.2569 0.913895C62.8616 0.954835 62.4935 1.17318 62.2618 1.48704C62.0165 1.8009 61.921 2.21029 61.9892 2.60603C62.4935 5.71735 64.1565 8.47388 66.6646 10.3707C67.9323 11.3396 69.3635 12.0355 70.9038 12.4312C72.0079 12.7178 73.1393 12.8406 74.2707 12.8133C73.8481 16.1703 73.8072 19.5682 74.1889 22.9388C74.3388 24.2352 74.5296 25.5179 74.775 26.8007C74.884 27.3329 75.3747 27.906 75.8382 28.1653C76.3289 28.4518 77.0513 28.561 77.5966 28.3836C78.1418 28.2062 78.6871 27.8514 78.9597 27.3192C79.0415 27.1281 79.1096 26.9371 79.1914 26.746C79.3005 26.3503 79.2868 25.9409 79.1778 25.5452C79.0688 25.013 78.987 24.4671 78.9052 23.9349C78.5235 21.1784 78.4145 18.3946 78.5781 15.6244C78.619 14.9148 78.6871 14.2052 78.7689 13.4956C78.7825 13.4274 78.7826 13.3591 78.7962 13.2909C80.9499 13.2773 83.0491 12.6905 84.9301 11.5715C87.6155 9.96121 89.5511 7.40936 90.3962 4.39355C90.3962 4.37991 90.4098 4.35262 90.4098 4.33897C90.6007 3.56114 90.1372 2.76966 89.3603 2.56497ZM88.9922 3.98418C88.8695 4.44815 88.706 4.89847 88.5151 5.33515C88.706 4.89847 88.8559 4.4345 88.9922 3.98418C88.706 3.91595 88.4061 3.86136 88.1062 3.82042C88.4061 3.86136 88.6923 3.91595 88.9922 3.98418ZM81.1135 5.22601C81.795 4.81662 82.5039 4.48911 83.2399 4.25712C82.5175 4.50276 81.795 4.81662 81.1135 5.22601C80.4047 5.64905 79.764 6.15396 79.1915 6.69981C79.764 6.15396 80.4047 5.66269 81.1135 5.22601ZM85.1483 3.80679C85.0256 3.82044 84.9029 3.84773 84.7802 3.86138C84.9029 3.84773 85.0256 3.83408 85.1483 3.80679ZM72.3079 5.49897C73.5483 6.76806 74.4206 8.28278 74.9114 9.90668C74.407 8.28278 73.5346 6.76806 72.3079 5.49897C72.0625 5.25334 71.8035 5.00771 71.5309 4.78938C71.8035 5.02136 72.0625 5.25334 72.3079 5.49897ZM70.5085 10.7937C70.4267 10.7664 70.3586 10.7391 70.2768 10.7118C70.3586 10.7391 70.4404 10.7664 70.5085 10.7937ZM70.6721 4.14801C70.6312 4.12072 70.5767 4.09342 70.5358 4.05249C70.5767 4.07978 70.6312 4.10707 70.6721 4.14801ZM70.2223 3.84779C70.1678 3.8205 70.1133 3.77956 70.0587 3.75227C70.1133 3.79321 70.1678 3.8205 70.2223 3.84779ZM69.309 3.35654C69.2409 3.32924 69.1727 3.30195 69.1046 3.26101C69.1727 3.28831 69.2409 3.3156 69.309 3.35654ZM68.3549 2.94715C68.2867 2.91986 68.2049 2.89257 68.1368 2.87892C68.2049 2.90622 68.2867 2.91986 68.3549 2.94715ZM67.3871 2.64694C67.3053 2.61965 67.2099 2.606 67.1281 2.57871C67.2099 2.59236 67.2917 2.61965 67.3734 2.6333C67.3734 2.64694 67.3734 2.64694 67.3871 2.64694ZM66.392 2.44225C66.2966 2.42861 66.2148 2.41496 66.1194 2.40132C66.2148 2.41496 66.3102 2.42861 66.392 2.44225ZM65.9013 2.37403C65.8059 2.36038 65.7105 2.36038 65.615 2.34673C65.7105 2.34673 65.8059 2.36038 65.9013 2.37403ZM65.4106 2.31944C65.3152 2.31944 65.2197 2.3058 65.1243 2.3058C65.2197 2.31944 65.3152 2.31944 65.4106 2.31944ZM64.9062 2.3058C64.8108 2.3058 64.7154 2.3058 64.62 2.3058C64.7154 2.3058 64.8108 2.29215 64.9062 2.3058ZM64.4155 2.3058C64.3201 2.3058 64.2247 2.31945 64.1293 2.31945C64.2247 2.3058 64.3201 2.3058 64.4155 2.3058ZM63.6249 3.34291C64.0202 4.88493 64.7699 6.34507 65.8467 7.60051C64.7699 6.35871 64.0202 4.89858 63.6249 3.34291ZM66.1057 7.91437C66.242 8.06448 66.392 8.21459 66.5419 8.3647C66.392 8.21459 66.2557 8.06448 66.1057 7.91437ZM69.5407 10.398C69.4726 10.3707 69.3908 10.3297 69.3226 10.3024C69.4044 10.3434 69.4726 10.3707 69.5407 10.398ZM68.6002 9.9067C68.532 9.86577 68.4775 9.83847 68.4094 9.79754C68.4775 9.83847 68.532 9.87941 68.6002 9.9067ZM68.1095 9.62014C68.055 9.59285 68.0141 9.55191 67.9595 9.52462C68.0141 9.55191 68.0686 9.5792 68.1095 9.62014ZM71.2582 11.012C71.3537 11.0393 71.4354 11.053 71.5309 11.0803C71.4491 11.0666 71.3673 11.0393 71.2719 11.0257C71.2719 11.012 71.2582 11.012 71.2582 11.012ZM73.0166 11.3122C72.9212 11.2986 72.8258 11.2986 72.7304 11.285C72.8258 11.2986 72.9212 11.3122 73.0166 11.3122ZM72.0216 11.1758C71.9262 11.1621 71.8444 11.1485 71.749 11.1212C71.8307 11.1485 71.9262 11.1621 72.0216 11.1758ZM74.2298 11.3532C74.3116 11.3532 74.3934 11.3395 74.4752 11.3395C74.3934 11.3532 74.3116 11.3532 74.2298 11.3532ZM73.2347 11.3395C73.3302 11.3395 73.4256 11.3532 73.5346 11.3532C73.4256 11.3395 73.3302 11.3395 73.2347 11.3395ZM73.7255 11.3532C73.8345 11.3532 73.9299 11.3532 74.039 11.3532C73.9299 11.3532 73.8345 11.3668 73.7255 11.3532ZM84.1668 10.3297C84.4803 10.1386 84.7666 9.94757 85.0528 9.74288C84.7802 9.94757 84.4803 10.1523 84.1668 10.3297Z" fill="url(#paint2_linear_2000_18673)"/>
<path d="M79.7307 20.5601C106.993 22.839 119.629 41.2613 118.02 61.9489C116.398 82.9503 100.164 98.9163 73.3923 96.5009C45.8985 94.0446 34.2439 77.1643 35.1027 55.0166C35.8796 35.4207 52.3596 18.2676 79.7307 20.5601Z" fill="url(#paint3_radial_2000_18673)"/>
<path d="M66.9037 52.8334C69.3504 52.8334 71.3338 50.8478 71.3338 48.3984C71.3338 45.949 69.3504 43.9634 66.9037 43.9634C64.457 43.9634 62.4736 45.949 62.4736 48.3984C62.4736 50.8478 64.457 52.8334 66.9037 52.8334Z" fill="#38311D"/>
<path d="M83.3568 53.12C85.8035 53.12 87.7869 51.1344 87.7869 48.685C87.7869 46.2356 85.8035 44.25 83.3568 44.25C80.9102 44.25 78.9268 46.2356 78.9268 48.685C78.9267 51.1344 80.9102 53.12 83.3568 53.12Z" fill="#38311D"/>
<path d="M93.3993 56.7195C95.2211 56.7195 96.698 55.241 96.698 53.4171C96.698 51.5933 95.2211 50.1147 93.3993 50.1147C91.5775 50.1147 90.1006 51.5933 90.1006 53.4171C90.1006 55.241 91.5775 56.7195 93.3993 56.7195Z" fill="#10B255"/>
<path d="M57.2294 56.7195C59.0512 56.7195 60.5281 55.241 60.5281 53.4171C60.5281 51.5933 59.0512 50.1147 57.2294 50.1147C55.4075 50.1147 53.9307 51.5933 53.9307 53.4171C53.9307 55.241 55.4075 56.7195 57.2294 56.7195Z" fill="#10AC52"/>
<path opacity="0.5" d="M20.2041 98.7615C23.053 109.255 28.5736 119.913 38.9195 127.255C29.3369 120.432 23.2847 110.02 20.2041 98.7615Z" fill="white"/>
<path d="M131.938 56.827C131.624 56.2129 131.283 55.6125 130.915 55.0257C130.915 55.1076 130.915 55.2031 130.915 55.285C130.915 65.3831 106.066 73.5708 75.4098 73.5708C53.4093 73.5708 34.4076 69.3541 25.4247 63.2406C22.4804 61.2346 20.613 59.0376 20.0814 56.7041C19.577 57.7958 19.1681 58.9557 18.8409 60.1839C18.6365 60.9754 18.4593 61.7805 18.2957 62.5992C18.2548 63.0223 18.2139 63.459 18.1866 63.8956C18.1866 63.8956 16.9871 71.2919 17.5187 81.3627C17.5187 81.4036 17.5187 81.4446 17.5187 81.4855C17.5187 81.5538 17.5324 81.622 17.5324 81.6902C17.546 81.9358 17.5596 82.1815 17.5733 82.4135C17.5733 82.509 17.5869 82.6182 17.5869 82.7137C17.6005 82.9184 17.6141 83.1231 17.6278 83.3278C17.6414 83.4369 17.6414 83.5461 17.655 83.6553C17.6687 83.9145 17.6959 84.1738 17.7232 84.4467C17.7368 84.6378 17.7505 84.8288 17.7777 85.0199C17.7914 85.129 17.7914 85.2246 17.805 85.3337C17.8186 85.5384 17.8459 85.7568 17.8731 85.9615C17.8731 86.0297 17.8868 86.0843 17.8868 86.1525C18.1594 88.718 18.5411 91.3926 19.0999 94.1219C19.1136 94.1901 19.1272 94.2583 19.1408 94.3266C19.1817 94.5312 19.2226 94.7359 19.2771 94.9406C19.3044 95.0498 19.3317 95.159 19.3453 95.2818C19.3862 95.4592 19.4271 95.6366 19.468 95.814C19.4952 95.9641 19.5361 96.1142 19.577 96.2643C19.6179 96.4144 19.6452 96.5645 19.6861 96.701C19.7406 96.933 19.7951 97.165 19.8633 97.4106C19.8769 97.4788 19.8905 97.547 19.9178 97.6016C20.0132 97.9701 20.1086 98.3249 20.2041 98.6933C20.2041 98.7206 20.2177 98.7479 20.2177 98.7616C23.2847 110.02 29.3369 120.432 38.9331 127.255C39.0149 127.309 39.0967 127.364 39.1785 127.432C39.3829 127.582 39.601 127.719 39.8055 127.869C39.9282 127.951 40.0509 128.033 40.1735 128.114C40.3235 128.224 40.4871 128.319 40.6506 128.415C40.7869 128.497 40.9232 128.592 41.0732 128.674C41.2504 128.783 41.4276 128.892 41.5912 128.988C41.7138 129.056 41.8365 129.138 41.9592 129.206C42.1773 129.329 42.3818 129.452 42.5999 129.575C42.6816 129.629 42.7634 129.67 42.8452 129.725C43.1178 129.875 43.3768 130.025 43.6495 130.161C43.6767 130.175 43.704 130.189 43.7449 130.216C50.9693 134.064 59.1207 135.934 67.2857 136.507C67.3266 136.507 67.3538 136.507 67.3947 136.52C67.9127 136.561 68.4307 136.589 68.9487 136.616C69.1259 136.63 69.3031 136.63 69.4803 136.643C69.6575 136.657 69.8347 136.657 70.0119 136.657C70.2981 136.671 70.598 136.671 70.8843 136.684C71.0342 136.684 71.1842 136.698 71.3341 136.698C71.7839 136.712 72.2201 136.712 72.6699 136.712C75.2871 136.725 77.8634 136.821 80.4533 136.766C81.8573 136.739 83.2749 136.657 84.7061 136.48C93.5663 135.429 102.263 132.536 109.665 127.487C120.147 120.323 126.935 109.283 130.397 97.2059C132.074 91.3654 133.028 85.3202 133.478 79.2613C134.023 72.0424 135.345 63.5409 131.938 56.827Z" fill="url(#paint4_radial_2000_18673)"/>
<path d="M70.2492 58.4891C71.6668 57.0563 73.9705 56.183 75.8516 56.0874C78.0189 55.9646 81.0314 57.029 82.1082 59.1442C82.6126 60.1267 82.3945 61.5322 81.3994 62.0235C80.7042 62.3647 79.8591 62.1736 79.1639 61.8325C78.4687 61.4913 78.1552 61.1365 77.4328 60.8499C76.3287 60.4269 74.9928 60.2632 73.9841 60.8909C73.3707 61.273 72.5801 61.9689 71.8986 62.1736C71.1489 62.4056 70.2628 62.1463 69.7721 61.5322C68.9952 60.577 69.3223 59.267 70.2492 58.4891Z" fill="#38311D"/>
<path d="M20.2715 56.6526C20.8167 58.986 23.3692 61.1846 26.2999 63.1906C35.2827 69.304 53.0668 73.5705 75.0673 73.5706C105.724 73.5706 130.463 65.1141 130.463 55.0159" stroke="#C4C4C4" stroke-width="0.814009" stroke-miterlimit="10" stroke-linecap="round"/>
</g>
<defs>
<filter id="filter0_d_2000_18673" x="-4" y="0.768311" width="173.336" height="144.076" filterUnits="userSpaceOnUse" color-interpolation-filters="sRGB">
<feFlood flood-opacity="0" result="BackgroundImageFix"/>
<feColorMatrix in="SourceAlpha" type="matrix" values="0 0 0 0 0 0 0 0 0 0 0 0 0 0 0 0 0 0 127 0" result="hardAlpha"/>
<feOffset dy="4"/>
<feGaussianBlur stdDeviation="2"/>
<feComposite in2="hardAlpha" operator="out"/>
<feColorMatrix type="matrix" values="0 0 0 0 0 0 0 0 0 0 0 0 0 0 0 0 0 0 0.25 0"/>
<feBlend mode="normal" in2="BackgroundImageFix" result="effect1_dropShadow_2000_18673"/>
<feBlend mode="normal" in="SourceGraphic" in2="effect1_dropShadow_2000_18673" result="shape"/>
</filter>
<radialGradient id="paint0_radial_2000_18673" cx="0" cy="0" r="1" gradientUnits="userSpaceOnUse" gradientTransform="translate(125.577 66.9622) rotate(24.1692) scale(43.5159 35.1068)">
<stop stop-color="#F4F4F4"/>
<stop offset="1" stop-color="#DBDBDB"/>
</radialGradient>
<linearGradient id="paint1_linear_2000_18673" x1="75.465" y1="37.3948" x2="75.465" y2="73.1613" gradientUnits="userSpaceOnUse">
<stop stop-color="#DDDDDD"/>
<stop offset="1" stop-color="#B2B2B2"/>
</linearGradient>
<linearGradient id="paint2_linear_2000_18673" x1="76.2102" y1="0.827819" x2="76.2104" y2="28.4695" gradientUnits="userSpaceOnUse">
<stop stop-color="#0A863F"/>
<stop offset="1" stop-color="#2FC16D"/>
</linearGradient>
<radialGradient id="paint3_radial_2000_18673" cx="0" cy="0" r="1" gradientUnits="userSpaceOnUse" gradientTransform="translate(76.6075 58.5483) rotate(90) scale(38.1945 41.5489)">
<stop stop-color="#62CE3B"/>
<stop offset="1" stop-color="#20C46C"/>
</radialGradient>
<radialGradient id="paint4_radial_2000_18673" cx="0" cy="0" r="1" gradientUnits="userSpaceOnUse" gradientTransform="translate(75.7871 95.9042) rotate(90) scale(62.244 88.9296)">
<stop offset="0.375" stop-color="#F7F7F7"/>
<stop offset="1" stop-color="#DBDBDB"/>
</radialGradient>
</defs>
</svg>
