<svg width="225" height="148" viewBox="0 0 225 148" fill="none" xmlns="http://www.w3.org/2000/svg">
<g id="illustration_login">
<g clip-path="url(#clip0_1213_13341)">
<rect x="0.5" width="224" height="148" rx="12" fill="white"/>
<path id="Vector" fill-rule="evenodd" clip-rule="evenodd" d="M106.178 143.572C78.6736 137.259 53.2574 124.348 36.045 106.539C17.6358 87.491 3.9173 64.4921 10.8947 44.9844C17.6508 26.0955 45.2985 18.9052 69.9282 11.807C92.4525 5.31556 116.922 0.136417 142.779 6.97556C168.736 13.8412 189.92 29.619 204.201 47.3222C218.015 64.4455 222.908 83.3838 218.268 100.55C213.635 117.689 199.828 131.543 179.306 139.419C158.131 147.547 132.235 149.553 106.178 143.572Z" fill="#F2F2F2"/>
<path id="Vector_2" d="M65.5552 90.6313C84.639 90.6313 100.109 85.7712 100.109 79.7759C100.109 73.7806 84.6383 68.9204 65.5544 68.9204C46.4705 68.9204 31.0002 73.7806 31.0004 79.7759C31.0006 85.7712 46.4713 90.6313 65.5552 90.6313Z" fill="#E3E3E0"/>
<g id="Group">
<path id="Vector_3" d="M46.0533 35.5164C40.5961 35.6128 36.2227 40.0642 36.2227 45.5222V67.5415C36.2227 76.7463 43.9664 84.0099 53.5051 83.7595L77.1328 83.1333C86.5464 82.8828 94.144 75.3061 94.144 66.1848V44.8528C94.144 39.2568 89.5551 34.7483 83.9599 34.8471L46.0533 35.5164ZM60.8036 68.5416C59.4224 68.573 58.4261 67.228 58.8587 65.916L61.8186 56.9374C62.1274 56.0009 61.6752 55.0032 60.9637 54.3206C59.8755 53.2766 59.2033 51.8192 59.2033 50.1964C59.2033 46.9194 61.9376 44.2269 65.319 44.1642C68.7003 44.1016 71.4346 46.6898 71.4346 49.9459C71.4346 51.5907 70.731 53.0971 69.5981 54.1992C68.912 54.8666 68.5023 55.8401 68.8063 56.7477L71.8043 65.699C72.2322 66.9765 71.3002 68.3031 69.9533 68.3337L60.8036 68.5416Z" fill="#21C46C"/>
<path id="Vector_4" d="M87.4234 31.933C84.9187 31.9748 82.8941 30.0336 82.8941 27.5915C82.8941 18.2406 75.0251 10.7057 65.3403 10.8309C55.6136 10.977 47.6612 18.7416 47.6612 28.1551C47.6612 30.5972 45.5948 32.6218 43.0484 32.6636C40.5019 32.7053 38.4355 30.7433 38.4355 28.3012C38.4564 13.9618 50.5416 2.16879 65.3403 2.00181C80.0345 1.83483 91.9527 13.2521 91.9527 27.4454C91.9527 29.8875 89.9281 31.8913 87.4234 31.933Z" fill="#21C46C"/>
</g>
<g id="Group 3019">
<path id="Vector_5" d="M152.665 132.982C175.388 133.431 193.925 127.872 194.069 120.566C194.213 113.26 175.91 106.974 153.187 106.525C130.465 106.076 111.928 111.634 111.784 118.94C111.64 126.246 129.943 132.533 152.665 132.982Z" fill="#E3E3E0"/>
<g id="Group_2">
<path id="Vector_6" d="M168.243 93.6849C166.536 99.6683 165.463 105.884 165.025 112.216C164.976 112.797 164.927 113.378 164.683 113.843C164.439 114.307 164.001 114.598 163.562 114.83C161.465 116.108 159.124 118.025 159.222 120.755C159.222 121.336 159.417 121.975 159.709 122.44C160.538 123.602 162.05 123.37 163.318 123.079C165.317 122.614 167.365 122.092 169.218 121.046C171.071 120 172.729 118.199 173.363 115.876C173.9 114.075 173.753 112.042 173.656 110.125C173.412 106.639 173.168 103.096 172.973 99.6102C172.876 98.2741 172.778 96.8799 172.242 95.7762C171.461 94.1496 169.804 93.2202 168.243 93.5687" fill="#F9B428"/>
</g>
<g id="Group_3">
<path id="Vector_7" d="M164.742 38.9418C189.237 45.8101 197.543 64.841 192.455 83.4268C187.284 102.31 169.649 113.993 145.628 107.109C120.972 100.023 113.256 82.5904 117.941 62.5327C122.098 44.7978 140.156 32.0478 164.742 38.9418Z" fill="#FFCC4C"/>
</g>
<path id="Vector_8" d="M131.095 59.2087C133.125 59.6304 135.112 58.3276 135.533 56.2988C135.955 54.27 134.651 52.2835 132.622 51.8618C130.592 51.44 128.606 52.7428 128.184 54.7716C127.762 56.8004 129.066 58.7869 131.095 59.2087Z" fill="#2D2D2D"/>
<g id="Group_4">
<path id="Vector_9" d="M165.09 34.8797L152.926 27.6757L150.168 40.6679C149.714 42.7831 155.152 45.7394 162.299 47.2795C169.455 48.7968 175.629 48.2994 176.082 46.1843L178.836 33.2696L165.09 34.8797Z" fill="#5B6D80"/>
<path id="Vector_10" d="M165.09 34.8797L152.935 27.6529L152.399 30.1837L164.426 37.3342L178.313 35.7L178.836 33.2696L165.09 34.8797Z" fill="#4F6172"/>
<path id="Vector_11" d="M164.936 35.0043L183.397 32.8563C184.499 32.7317 184.804 31.2699 183.859 30.7183L167.864 21.2355L149.404 23.3835C148.301 23.5081 147.997 24.9699 148.941 25.5215L164.936 35.0043Z" fill="#5B6D80"/>
</g>
<path id="Vector_12" d="M126.354 75.7662C124.249 76.69 122.031 77.4859 119.729 77.5759C117.427 77.6658 115.016 77.0027 113.422 75.3339C113.036 74.9282 112.647 74.4505 112.105 74.3876C111.37 74.3081 110.76 75.0893 110.762 75.8346C110.763 76.5799 111.194 77.2362 111.646 77.8196C110.846 77.5864 110.01 77.3667 109.171 77.4235C108.333 77.4803 107.47 77.8867 107.101 78.6585C106.797 79.2594 106.871 80.0018 107.085 80.6426C107.884 82.9676 110.508 84.1995 112.959 84.272C115.411 84.3444 117.081 84.3874 119.475 83.825C122 83.2454 125.347 82.1048 127.597 80.8508C127.891 80.683 128.196 80.4787 128.318 80.1734C128.406 79.9296 128.384 79.6539 128.327 79.3917C128.091 78.1026 127.509 76.8871 126.671 75.898" fill="#F9B428"/>
<g id="Group_5">
<path id="Vector_13" d="M142.411 93.6849C140.377 99.6683 139.099 105.884 138.577 112.216C138.518 112.797 138.46 113.378 138.17 113.843C137.879 114.307 137.357 114.598 136.834 114.83C134.336 116.108 131.547 118.025 131.664 120.755C131.664 121.336 131.896 121.975 132.245 122.44C133.232 123.602 135.033 123.37 136.543 123.079C138.925 122.614 141.365 122.092 143.572 121.046C145.78 120 147.755 118.199 148.51 115.876C149.149 114.075 148.975 112.042 148.859 110.125C148.568 106.639 148.278 103.096 148.045 99.6102C147.929 98.2741 147.813 96.8799 147.174 95.7762C146.245 94.1496 144.27 93.2202 142.411 93.5687" fill="#F9B428"/>
</g>
<g id="Mask group">
<mask id="mask0_1213_13341" style="mask-type:alpha" maskUnits="userSpaceOnUse" x="116" y="37" width="78" height="73">
<g id="Group_6">
<path id="Vector_14" d="M164.742 38.9418C189.237 45.8101 197.543 64.8409 192.455 83.4267C187.284 102.31 169.649 113.993 145.628 107.109C120.972 100.023 113.256 82.5903 117.941 62.5327C122.098 44.7978 140.156 32.0478 164.742 38.9418Z" fill="#FFCC4C"/>
</g>
</mask>
<g mask="url(#mask0_1213_13341)">
<g id="Group_7">
<path id="Vector_15" d="M119.326 66.1709C117.411 65.8662 115.539 63.6897 116.279 61.6873C117.019 59.6849 119.848 58.9013 121.502 60.2508C122.373 60.9908 122.852 62.1226 123.069 63.2108C123.157 63.6897 123.244 64.212 123.113 64.6909C122.852 65.9097 120.501 66.4321 119.326 66.1709Z" fill="#2D2D2D"/>
</g>
</g>
</g>
</g>
</g>
</g>
<defs>
<clipPath id="clip0_1213_13341">
<rect x="0.5" width="224" height="148" rx="12" fill="white"/>
</clipPath>
</defs>
</svg>
