<svg width="268" height="240" viewBox="0 0 268 240" fill="none" xmlns="http://www.w3.org/2000/svg">
<g clip-path="url(#clip0_1269_4976)">
<path fill-rule="evenodd" clip-rule="evenodd" d="M257.696 164.981C233.792 218.226 174.682 245.866 116.882 237.538C58.5404 229.132 8.05182 186.337 0.411003 127.912C-6.54143 74.7502 38.7728 34.0733 87.2882 11.2479C128.779 -8.2726 176.41 -1.64046 210.468 29.0846C249.845 64.6087 279.404 116.628 257.696 164.981Z" fill="#F2F2F2"/>
<path d="M106.97 117.692C107.947 121.173 109.189 124.624 111.36 127.517C113.531 130.409 116.755 132.649 120.352 132.945C121.217 133.009 122.208 133.006 122.811 133.608C123.653 134.425 123.285 135.94 122.374 136.657C121.462 137.375 120.244 137.511 119.071 137.561C120.148 138.325 121.251 139.086 122.013 140.153C122.775 141.22 123.125 142.681 122.59 143.893C122.134 144.854 121.187 145.496 120.184 145.875C116.579 147.188 112.449 145.236 109.931 142.356C107.413 139.475 105.689 137.47 103.965 134.019C102.141 130.392 100.222 125.194 99.486 121.231C99.4006 120.705 99.3387 120.149 99.5827 119.693C99.7827 119.323 100.159 119.093 100.512 118.893C102.306 117.917 104.364 117.393 106.409 117.46" fill="#17AA55"/>
<path d="M80.5415 182.17C102.443 182.334 120.239 176.982 120.289 170.216C120.34 163.451 102.626 157.833 80.724 157.669C58.8223 157.505 41.0265 162.857 40.9761 169.623C40.9258 176.389 58.6398 182.006 80.5415 182.17Z" fill="#E3E3E0"/>
<path d="M68.141 136.22C69.4993 137.604 69.7123 139.734 69.7922 141.704C69.9786 147.828 69.2329 153.978 67.5817 159.915C67.5284 160.101 67.4752 160.288 67.5284 160.474C67.6083 160.714 67.8214 160.873 68.0345 161.006C70.6711 162.737 72.8283 165.213 74.2399 168.088C74.5861 168.781 74.8524 169.606 74.5062 170.298C73.9736 171.337 72.5354 171.177 71.4434 170.911C72.056 171.683 71.9761 172.934 71.2837 173.626C70.5646 174.318 69.3661 174.345 68.647 173.653C69.3395 174.505 68.9666 175.942 68.0611 176.555C67.1556 177.167 65.9305 177.061 64.9983 176.502C64.0662 175.942 63.4004 175.037 62.8411 174.105C61.0567 171.07 60.1778 167.236 57.3281 165.213C56.5025 164.627 55.5704 164.228 54.7447 163.642C53.9191 163.057 53.2001 162.178 53.1202 161.14C53.0669 160.447 53.3332 159.755 53.5729 159.116C56.2095 151.901 57.1417 144.047 56.3427 136.433C60.1778 136.939 64.0928 136.699 67.8747 135.767" fill="#17AA55"/>
<path d="M93.4686 136.752C95.253 137.445 96.3449 139.335 97.1972 141.092C99.8604 146.603 101.698 152.54 102.604 158.611C102.63 158.797 102.657 159.01 102.79 159.143C102.95 159.356 103.216 159.383 103.482 159.436C106.599 159.942 109.581 161.3 112.032 163.35C112.617 163.829 113.23 164.494 113.177 165.266C113.097 166.411 111.739 166.891 110.62 167.077C111.499 167.529 111.925 168.701 111.579 169.633C111.206 170.565 110.114 171.07 109.182 170.751C110.141 171.257 110.407 172.695 109.821 173.626C109.235 174.558 108.063 174.958 106.998 174.824C105.933 174.718 104.947 174.159 104.042 173.52C101.192 171.47 98.7951 168.355 95.3861 167.663C94.4007 167.45 93.3621 167.476 92.3767 167.29C91.3912 167.077 90.3792 166.598 89.8732 165.666C89.5536 165.053 89.5003 164.335 89.4471 163.616C88.8878 155.948 86.5707 148.414 82.709 141.784C86.4109 140.666 89.8998 138.856 92.9626 136.459" fill="#17AA55"/>
<path d="M81.6975 78.241C80.5299 72.7859 80.4252 67.0881 81.3674 61.6299C81.523 60.7918 82.017 59.9781 82.7497 59.4699C83.4505 58.9838 84.4896 58.7106 85.3494 58.868C86.237 59.0296 87.1403 59.4629 87.6535 60.2139C88.1706 60.9387 88.4647 61.8181 88.3329 62.6867C87.9457 64.863 87.7536 67.069 87.7326 69.2739C87.7487 68.9801 87.7369 68.6821 87.7529 68.3884C87.7156 71.4525 88.0485 74.519 88.6759 77.5225C88.8387 78.3281 88.48 79.3778 87.9303 79.9945C87.4086 80.6155 86.4728 81.1468 85.613 81.1779C84.6935 81.2269 83.6944 81.0484 82.9901 80.4299C82.2819 79.8377 81.8762 79.1299 81.6975 78.241Z" fill="#17AA55"/>
<path d="M79.7256 63.2385C80.868 63.4119 82.0622 63.4315 83.2206 63.311C83.5391 63.2785 83.7899 63.1281 83.997 62.8902C84.1763 62.6481 84.2481 62.3628 84.2044 62.0869C83.6288 58.9297 81.8269 56.152 79.1569 54.212C77.4339 52.9812 75.4201 52.164 73.3025 51.8427C72.1602 51.6694 70.966 51.6498 69.8076 51.7703C69.4891 51.8027 69.2383 51.9532 69.0312 52.191C68.8519 52.4331 68.7801 52.7184 68.8238 52.9943C69.3994 56.1515 71.2013 58.9293 73.8713 60.8693C75.5943 62.1001 77.636 62.9215 79.7256 63.2385Z" fill="#17AA55"/>
<path d="M73.1437 52.8959C72.0849 52.7353 71.0062 52.7063 69.9632 52.8173C70.4594 55.5585 72.0305 58.1666 74.5732 60.0065C76.1927 61.1678 78.0513 61.8806 79.9181 62.1639C80.9769 62.3245 82.0556 62.3535 83.0986 62.2425C82.6024 59.5013 81.0313 56.8932 78.4886 55.0533C76.8372 53.9141 75.0104 53.1791 73.1437 52.8959ZM73.4631 50.7901C75.7479 51.1367 77.9487 52.0362 79.8269 53.3713C82.7596 55.4589 84.6927 58.4989 85.316 61.9057C85.4271 62.488 85.2835 63.0587 84.8972 63.5386C84.5108 64.0186 83.9853 64.2889 83.3762 64.3581C82.1023 64.4879 80.8246 64.4557 79.5707 64.2654C77.286 63.9188 75.0852 63.0194 73.207 61.6842C70.2743 59.5966 68.3412 56.5567 67.7179 53.1499C67.6068 52.5675 67.7503 51.9969 68.1367 51.5169C68.4912 51.0591 69.0486 50.7666 69.6577 50.6975C70.9276 50.5939 72.2093 50.5999 73.4631 50.7901Z" fill="#17AA55"/>
<path d="M84.9731 63.7929C87.9544 64.2452 90.9998 63.7109 93.5601 62.2413C96.4269 60.6296 98.4703 58.0583 99.3316 55.0114C99.4034 54.7261 99.3637 54.4239 99.2006 54.1837C99.0375 53.9435 98.7829 53.7433 98.4764 53.6968C98.1779 53.5977 97.8714 53.5512 97.5649 53.5047C94.5837 53.0524 91.5382 53.5867 88.9779 55.0563C86.1111 56.6679 84.0678 59.2393 83.2064 62.2861C83.1346 62.5715 83.1743 62.8737 83.3374 63.1139C83.5005 63.354 83.7551 63.5542 84.0616 63.6007C84.3641 63.6736 84.6666 63.7464 84.9731 63.7929Z" fill="#17AA55"/>
<path d="M97.405 54.5574C94.786 54.1601 91.9874 54.5703 89.5545 55.9515C86.843 57.479 85.0545 59.8736 84.3048 62.5604C84.5794 62.629 84.858 62.6712 85.1367 62.7135C87.7557 63.1109 90.5264 62.6965 92.9872 61.3194C95.6987 59.792 97.4872 57.3974 98.2369 54.7106C97.9623 54.642 97.6836 54.5997 97.405 54.5574ZM97.7245 52.4516C98.0588 52.5024 98.3932 52.5531 98.7235 52.6301C99.3285 52.7758 99.8458 53.1236 100.168 53.6302C100.49 54.1369 100.57 54.7413 100.43 55.2857C99.4968 58.6179 97.2782 61.405 94.1605 63.167C91.3853 64.7387 88.0452 65.336 84.8132 64.8457C84.4788 64.7949 84.1445 64.7442 83.8141 64.6671C83.2092 64.5215 82.6918 64.1737 82.3697 63.6671C82.0475 63.1604 81.9682 62.5559 82.1078 62.0116C83.0409 58.6794 85.2594 55.8923 88.3772 54.1303C91.1524 52.5586 94.4925 51.9613 97.7245 52.4516Z" fill="#17AA55"/>
<path d="M124.551 105.093C127.591 128.06 117.051 146.754 88.6352 151.954C60.9577 157.045 42.5053 141.982 38.8011 120.267C35.1352 98.8962 46.5307 78.5004 74.7258 73.4856C103.033 68.512 121.859 84.7658 124.551 105.093Z" fill="#20C46C"/>
<path d="M76.5302 111.92L75.8839 115.26C86.4251 117.274 97.9191 118.459 107.142 116.093L105.721 112.715C97.4036 114.552 87.0744 113.961 76.5302 111.92Z" fill="#2D2D2D"/>
<path d="M102.311 106.638C104.854 106.355 106.687 104.064 106.404 101.522C106.12 98.9788 103.829 97.147 101.285 97.4303C98.7417 97.7135 96.9092 100.004 97.1924 102.547C97.4755 105.09 99.767 106.922 102.311 106.638Z" fill="#2D2D2D"/>
<path d="M85.0929 106.278C87.6365 105.995 89.469 103.704 89.1858 101.162C88.9027 98.6188 86.6112 96.7871 84.0675 97.0703C81.5239 97.3535 79.6914 99.6445 79.9746 102.187C80.2577 104.73 82.5493 106.562 85.0929 106.278Z" fill="#2D2D2D"/>
<path d="M58.4072 116.429C60.2018 119.551 62.2583 122.617 65.0822 124.875C67.9061 127.132 71.5739 128.545 75.1501 127.933C76.0177 127.782 76.9558 127.544 77.7 127.97C78.703 128.555 78.7416 130.104 78.0418 131.039C77.342 131.975 76.1833 132.398 75.0657 132.71C76.2952 133.163 77.557 133.665 78.5631 134.517C79.5691 135.37 80.2781 136.684 80.0225 137.998C79.8433 139.036 79.0553 139.901 78.1849 140.507C74.9972 142.683 70.5295 141.788 67.3645 139.595C64.1994 137.403 62.0492 135.901 59.5516 132.964C56.904 129.884 53.7444 125.333 52.0761 121.662C51.8613 121.177 51.6671 120.636 51.7993 120.139C51.9169 119.751 52.2021 119.424 52.5197 119.148C54.0252 117.748 55.8985 116.762 57.8836 116.3" fill="#17AA55"/>
<path d="M147.499 122.154C145.627 123.703 143.497 124.986 141.241 125.929C139.645 126.588 137.892 127.12 136.662 128.351C135.431 129.582 134.923 131.789 136.155 133.02C137.423 134.315 139.616 133.797 141.352 134.311C141.341 134.944 140.912 135.487 140.567 136.026C140.222 136.566 140.006 137.335 140.426 137.812C140.72 138.143 141.196 138.221 141.642 138.208C142.963 138.136 144.185 137.428 145.109 136.498C146.034 135.569 146.738 134.439 147.416 133.302C148.135 132.121 148.835 130.907 149.553 129.726C149.803 129.326 150.028 128.919 150.099 128.469C150.209 127.78 149.88 127.08 149.588 126.445C149.015 125.234 148.409 124.041 147.836 122.829" fill="#F9B428"/>
<path d="M182.249 182.161C204.202 182.595 222.093 178.1 222.211 172.121C222.329 166.143 204.629 160.944 182.676 160.511C160.723 160.077 142.831 164.572 142.713 170.55C142.595 176.529 160.296 181.727 182.249 182.161Z" fill="#E3E3E0"/>
<path d="M194.704 140.607C193.399 141.672 192.973 143.536 192.76 145.266C192.041 150.618 192.094 156.076 193 161.427C193.026 161.587 193.053 161.773 193 161.933C192.92 162.146 192.707 162.252 192.493 162.359C190.017 163.637 187.886 165.58 186.395 167.976C186.048 168.535 185.702 169.254 185.942 169.893C186.315 170.852 187.593 170.852 188.552 170.719C187.939 171.331 187.886 172.449 188.445 173.115C189.005 173.78 190.07 173.914 190.762 173.381C190.097 174.073 190.283 175.351 191.029 175.964C191.774 176.576 192.866 176.603 193.719 176.203C194.571 175.804 195.263 175.085 195.823 174.313C197.66 171.81 198.805 168.562 201.469 167.045C202.241 166.619 203.12 166.352 203.892 165.9C204.665 165.447 205.384 164.782 205.544 163.876C205.65 163.264 205.49 162.652 205.33 162.066C203.706 155.49 203.599 148.541 205.037 141.938C201.628 142.018 198.22 141.459 194.997 140.261" fill="#F9B428"/>
<path d="M174.2 143.456C172.602 144.015 171.563 145.612 170.737 147.13C168.181 151.895 166.343 157.034 165.304 162.332C165.278 162.492 165.224 162.678 165.118 162.811C164.958 162.971 164.718 163.024 164.505 163.051C161.736 163.37 159.072 164.462 156.835 166.166C156.302 166.565 155.743 167.124 155.743 167.79C155.77 168.801 156.942 169.281 157.927 169.467C157.155 169.813 156.702 170.851 156.995 171.677C157.288 172.502 158.247 173.008 159.046 172.742C158.167 173.141 157.9 174.419 158.38 175.244C158.859 176.07 159.871 176.469 160.83 176.416C161.789 176.363 162.668 175.91 163.467 175.378C166.077 173.674 168.287 171.011 171.297 170.559C172.176 170.426 173.081 170.479 173.96 170.346C174.839 170.213 175.744 169.813 176.224 169.014C176.543 168.482 176.597 167.843 176.676 167.231C177.449 160.495 179.792 153.945 183.441 148.274C180.219 147.156 177.209 145.426 174.626 143.189" fill="#F9B428"/>
<path d="M192.727 77.4607C220.14 85.1474 229.436 106.446 223.741 127.246C217.954 148.38 198.217 161.455 171.335 153.751C143.741 145.82 135.105 126.31 140.348 103.863C145.001 84.0145 165.211 69.7453 192.727 77.4607Z" fill="#FFCC4C"/>
<path d="M158.546 113.141L156.814 116.36C165.697 119.598 177.188 119.557 187.832 118.588L187.526 115.239C176.882 116.208 166.6 115.786 158.546 113.141Z" fill="#2D2D2D" stroke="black" stroke-miterlimit="10" stroke-linecap="round" stroke-linejoin="round"/>
<path d="M162.224 107.425C164.674 108.112 167.217 106.684 167.904 104.234C168.59 101.785 167.161 99.2424 164.711 98.5554C162.261 97.8683 159.718 99.297 159.031 101.746C158.344 104.196 159.774 106.738 162.224 107.425Z" fill="#2D2D2D"/>
<path d="M179.283 108.725C181.733 109.412 184.276 107.984 184.963 105.534C185.65 103.085 184.22 100.543 181.77 99.8555C179.32 99.1685 176.777 100.597 176.09 103.046C175.404 105.496 176.833 108.038 179.283 108.725Z" fill="#2D2D2D"/>
<path d="M181.81 72.4918L167.921 65.9979L166.313 80.3126C166.047 82.6435 172.228 85.2615 180.105 86.1706C187.989 87.0542 194.601 85.8666 194.867 83.5356L196.479 69.305L181.81 72.4918Z" fill="#5B6D80"/>
<path d="M181.81 72.4918L167.928 65.9722L167.616 68.7605L181.352 75.2113L196.17 71.9836L196.479 69.305L181.81 72.4918Z" fill="#4F6172"/>
<path d="M181.657 72.6427L201.358 68.3784C202.534 68.1276 202.709 66.5176 201.631 66.0218L183.367 57.4717L163.666 61.736C162.49 61.9868 162.315 63.5968 163.393 64.0926L181.657 72.6427Z" fill="#5B6D80"/>
<path d="M214.983 128.689C209.255 126.033 204.864 122.949 201.323 117.725C201.087 117.383 200.858 117.014 200.557 116.709C200.299 116.443 200.028 116.228 199.73 116.007C199.293 115.691 198.856 115.375 198.565 114.933C198.274 114.492 197.628 112.652 197.937 112.241C198.533 111.496 199.765 112.035 200.471 112.675C200.779 112.955 201.132 113.275 201.516 113.189C202.159 113.066 202.166 112.155 202.042 111.512C201.736 109.74 201.923 107.497 203.517 106.644C205.111 105.792 207.166 106.948 207.92 108.598C208.675 110.247 208.479 112.128 208.229 113.91C208.137 114.631 208.013 115.371 208.323 116.038C208.512 116.451 208.832 116.789 209.159 117.102C211.681 119.551 214.541 121.681 217.619 123.429C217.862 123.552 218.122 123.708 218.251 123.937C218.399 124.2 218.39 124.529 218.329 124.844C218.056 126.509 216.966 128.029 215.495 128.833" fill="#FAAD12"/>
</g>
<defs>
<clipPath id="clip0_1269_4976">
<rect width="268" height="240" fill="white"/>
</clipPath>
</defs>
</svg>
