<svg width="18" height="19" viewBox="0 0 18 19" fill="none" xmlns="http://www.w3.org/2000/svg">
<g clip-path="url(#clip0_2886_2864)">
<rect width="18" height="18" transform="translate(0 0.5)" fill="none"/>
<path d="M16.0194 12.8636C16.1835 12.5489 15.9432 12.1895 15.5883 12.1895H14.2538C14.0382 12.1895 13.8481 12.3282 13.7726 12.5302C13.3037 13.784 12.5682 14.9347 11.5929 15.9101C11.3653 16.1376 11.1272 16.3545 10.8784 16.5563C10.8152 16.6075 10.7944 16.6958 10.8299 16.769C10.866 16.8434 10.9489 16.8826 11.0288 16.8614C13.2019 16.2841 15.0038 14.8123 16.0194 12.8636Z" fill="#3F4AFE"/>
<path d="M14.3685 9.20868C14.3685 9.61476 14.3424 10.0162 14.2923 10.4121C14.253 10.7231 14.4884 11.0082 14.8018 11.0082H16.3103C16.5424 11.0082 16.7457 10.8488 16.7868 10.6203C16.8693 10.1626 16.9114 9.68983 16.9114 9.20868C16.9114 8.72844 16.8674 8.25658 16.7859 7.79961C16.745 7.57007 16.5411 7.40918 16.308 7.40918H14.8053C14.4907 7.40918 14.2549 7.69637 14.2943 8.00849C14.3441 8.40331 14.3685 8.80371 14.3685 9.20868Z" fill="#3F4AFE"/>
<path d="M1.97686 5.55346C1.81248 5.86828 2.05271 6.22804 2.40786 6.22804H3.74154C3.95717 6.22804 4.14725 6.08931 4.22279 5.88734C4.69169 4.63354 5.42721 3.48276 6.40253 2.50745C6.65821 2.25176 6.92509 2.01567 7.20065 1.79414C7.25584 1.74978 7.27491 1.67487 7.2446 1.61088C7.21419 1.54669 7.14185 1.51134 7.07295 1.52855C4.85678 2.08222 3.01135 3.5722 1.97686 5.55346Z" fill="#3F4AFE"/>
<path d="M6.40253 15.9101C5.42721 14.9347 4.69169 13.784 4.22279 12.5302C4.14725 12.3282 3.95717 12.1895 3.74154 12.1895H2.40813C2.05291 12.1895 1.81268 12.5494 1.97719 12.8642C2.99523 14.8124 4.79656 16.2836 6.96622 16.858C7.04633 16.8792 7.12942 16.8399 7.16557 16.7653C7.20104 16.6922 7.18062 16.6039 7.11762 16.5525C6.87132 16.3516 6.63296 16.1374 6.40253 15.9101Z" fill="#3F4AFE"/>
<path d="M5.65037 5.56141C5.49627 5.87633 5.73674 6.22779 6.08735 6.22779H11.9148C12.2654 6.22779 12.5058 5.87633 12.3516 5.56147C11.954 4.74991 11.4197 4.0018 10.7623 3.34441C10.2482 2.83027 9.675 2.38907 9.06011 2.03126C9.02189 2.01041 8.97673 2.01041 8.94199 2.03126C8.3271 2.38907 7.75738 2.82679 7.23976 3.34441C6.58228 3.99915 6.04795 4.74893 5.65037 5.56141Z" fill="#3F4AFE"/>
<path d="M11.593 2.50745C12.5683 3.48276 13.3038 4.63354 13.7727 5.88734C13.8483 6.08931 14.0384 6.22804 14.254 6.22804H15.5887C15.9436 6.22804 16.1838 5.86877 16.0198 5.55406C14.9872 3.57228 13.1387 2.08194 10.9218 1.52836C10.8536 1.51131 10.7839 1.5442 10.7538 1.6078C10.7234 1.67184 10.7407 1.7497 10.7963 1.79362C11.0742 2.01312 11.3406 2.25189 11.593 2.50745Z" fill="#3F4AFE"/>
<path d="M3.62691 9.20868C3.62691 8.80261 3.65297 8.40113 3.70303 8.00526C3.74236 7.6943 3.50701 7.40918 3.19358 7.40918H1.68742C1.45426 7.40918 1.25041 7.57007 1.20941 7.79959C1.12796 8.25564 1.08398 8.72588 1.08398 9.20868C1.08398 9.68893 1.12799 10.1608 1.20948 10.6178C1.25042 10.8473 1.45427 11.0082 1.68742 11.0082H3.19358C3.50701 11.0082 3.74236 10.7231 3.70303 10.4121C3.65297 10.0162 3.62691 9.61476 3.62691 9.20868Z" fill="#3F4AFE"/>
<path d="M12.3481 12.8558C12.5023 12.5409 12.2619 12.1895 11.9113 12.1895H6.08735C5.73674 12.1895 5.49628 12.5409 5.65052 12.8558C6.04808 13.6673 6.58236 14.4154 7.23976 15.0728C7.70201 15.5351 8.21157 15.9369 8.75471 16.2737C8.9057 16.3674 9.0964 16.3674 9.24742 16.2738C9.78986 15.9376 10.2971 15.5381 10.7623 15.0728C11.417 14.4154 11.9507 13.6673 12.3481 12.8558Z" fill="#3F4AFE"/>
<path d="M4.80762 9.20868C4.80762 9.6834 4.84741 10.1539 4.92536 10.6138C4.96459 10.8452 5.16932 11.0082 5.40402 11.0082H12.5904C12.8251 11.0082 13.0298 10.8452 13.069 10.6138C13.147 10.1539 13.1868 9.6834 13.1868 9.20868C13.1868 8.73396 13.147 8.26343 13.069 7.80359C13.0298 7.57219 12.8251 7.40918 12.5904 7.40918H5.40402C5.16932 7.40918 4.96458 7.57219 4.9253 7.80358C4.84739 8.26249 4.80762 8.7314 4.80762 9.20868Z" fill="#3F4AFE"/>
</g>
<defs>
<clipPath id="clip0_2886_2864">
<rect width="18" height="18" fill="white" transform="translate(0 0.5)"/>
</clipPath>
</defs>
</svg>
