<svg width="18" height="19" viewBox="0 0 18 19" fill="none" xmlns="http://www.w3.org/2000/svg">
<g clip-path="url(#clip0_1961_24014)">
<path d="M9 18.5C13.9706 18.5 18 14.4706 18 9.5C18 4.52944 13.9706 0.5 9 0.5C4.02944 0.5 0 4.52944 0 9.5C0 14.4706 4.02944 18.5 9 18.5Z" fill="#F0F0F0"/>
<path d="M12.13 9.49956C12.13 10.2822 10.7284 12.2387 8.99956 12.2387C7.27068 12.2387 5.86914 10.2822 5.86914 9.49956C5.86914 7.77064 7.27068 6.36914 8.99956 6.36914C10.7284 6.36914 12.13 7.77064 12.13 9.49956Z" fill="#D80027"/>
<path d="M12.13 9.5C12.13 11.2289 10.7284 12.6304 8.99956 12.6304C7.27068 12.6304 5.86914 11.2289 5.86914 9.5" fill="#0052B4"/>
<path d="M12.3184 12.2666L13.1483 11.4367L13.7016 11.99L12.8717 12.8199L12.3184 12.2666Z" fill="black"/>
<path d="M10.9336 13.6504L11.7635 12.8204L12.3169 13.3737L11.4869 14.2037L10.9336 13.6504Z" fill="black"/>
<path d="M13.9785 13.9268L14.8085 13.0968L15.3618 13.6501L14.5318 14.4801L13.9785 13.9268Z" fill="black"/>
<path d="M12.5938 15.3105L13.4237 14.4806L13.977 15.0339L13.1471 15.8639L12.5938 15.3105Z" fill="black"/>
<path d="M13.1484 13.0967L13.9784 12.2667L14.5317 12.82L13.7017 13.65L13.1484 13.0967Z" fill="black"/>
<path d="M11.7637 14.4805L12.5936 13.6505L13.1469 14.2038L12.317 15.0338L11.7637 14.4805Z" fill="black"/>
<path d="M13.9824 6.73438L11.7692 4.52117L12.3225 3.96786L14.5357 6.18107L13.9824 6.73438Z" fill="black"/>
<path d="M11.7676 6.18164L10.9376 5.35169L11.4909 4.79841L12.3209 5.62836L11.7676 6.18164Z" fill="black"/>
<path d="M13.1504 7.56543L12.3204 6.73548L12.8737 6.1822L13.7037 7.01215L13.1504 7.56543Z" fill="black"/>
<path d="M13.4277 4.52148L12.5978 3.69154L13.1511 3.13823L13.981 3.96818L13.4277 4.52148Z" fill="black"/>
<path d="M14.8125 5.90527L13.9826 5.07532L14.5359 4.52202L15.3658 5.35197L14.8125 5.90527Z" fill="black"/>
<path d="M3.19141 13.0957L5.40461 15.3089L4.8513 15.8622L2.6381 13.649L3.19141 13.0957Z" fill="black"/>
<path d="M5.4043 13.6484L6.23425 14.4784L5.68096 15.0317L4.85101 14.2017L5.4043 13.6484Z" fill="black"/>
<path d="M4.01953 12.2656L4.84948 13.0956L4.29617 13.6489L3.46622 12.8189L4.01953 12.2656Z" fill="black"/>
<path d="M4.84961 11.4355L7.06282 13.6488L6.50951 14.2021L4.2963 11.9889L4.84961 11.4355Z" fill="black"/>
<path d="M5.4043 3.68945L3.19109 5.90266L2.63778 5.34935L4.85099 3.13615L5.4043 3.68945Z" fill="black"/>
<path d="M6.23438 4.51953L4.02117 6.73274L3.46786 6.17943L5.68107 3.96622L6.23438 4.51953Z" fill="black"/>
<path d="M7.06445 5.34961L4.85125 7.56281L4.29796 7.00953L6.51117 4.79633L7.06445 5.34961Z" fill="black"/>
</g>
<defs>
<clipPath id="clip0_1961_24014">
<rect width="18" height="18" fill="white" transform="translate(0 0.5)"/>
</clipPath>
</defs>
</svg>
