<svg width="16" height="16" viewBox="0 0 16 16" fill="none" xmlns="http://www.w3.org/2000/svg">
<path fill-rule="evenodd" clip-rule="evenodd" d="M13.6436 9.02857C13.6436 8.11823 13.5385 6.90198 13.4475 6.02265C13.407 5.63098 13.0925 5.32596 12.694 5.29754C12.5089 5.28433 12.3059 5.27027 12.0897 5.25593C11.4869 5.21592 10.9362 4.89045 10.6131 4.37439L10.0217 3.4299C9.86528 3.18016 9.59188 3.02857 9.29783 3.02857H6.70738C6.41333 3.02857 6.13993 3.18016 5.98355 3.42989L5.39215 4.3744C5.06902 4.89045 4.5183 5.21592 3.91549 5.25593C3.6993 5.27027 3.49635 5.28433 3.31118 5.29754C2.91273 5.32596 2.59821 5.63098 2.55767 6.02265C2.46667 6.90198 2.36158 8.11823 2.36158 9.02857C2.36158 9.93891 2.46667 11.1552 2.55767 12.0345C2.59824 12.4264 2.91245 12.7312 3.31067 12.7596C4.5422 12.8474 6.54197 12.9714 8.0026 12.9714C9.46323 12.9714 11.463 12.8474 12.6945 12.7596C13.0928 12.7312 13.407 12.4264 13.4475 12.0345C13.5385 11.1552 13.6436 9.93891 13.6436 9.02857ZM14.4677 5.91646C14.559 6.79908 14.6693 8.06088 14.6693 9.02857C14.6693 9.99627 14.559 11.2581 14.4677 12.1407C14.3751 13.0354 13.6557 13.7222 12.7673 13.7855C11.5354 13.8734 9.5033 14 8.0026 14C6.50191 14 4.46983 13.8734 3.23789 13.7855C2.34949 13.7222 1.63012 13.0354 1.53752 12.1407C1.44617 11.2581 1.33594 9.99627 1.33594 9.02857C1.33594 8.06088 1.44617 6.79908 1.53752 5.91646C1.63014 5.02148 2.35025 4.33491 3.23841 4.27156C3.42511 4.25824 3.62975 4.24407 3.84777 4.2296C4.12593 4.21114 4.37718 4.06119 4.52356 3.82741L5.11496 2.88291C5.45898 2.33349 6.06047 2 6.70738 2L9.29783 2C9.94474 2 10.5462 2.33349 10.8902 2.88291L11.4816 3.82741C11.628 4.06119 11.8793 4.21114 12.1574 4.2296C12.3755 4.24407 12.5801 4.25824 12.7668 4.27156C13.655 4.33491 14.3751 5.02148 14.4677 5.91646Z" fill="white"/>
<path fill-rule="evenodd" clip-rule="evenodd" d="M8.0026 7.14286C7.15294 7.14286 6.46414 7.83362 6.46414 8.68571C6.46414 9.53781 7.15294 10.2286 8.0026 10.2286C8.85227 10.2286 9.54107 9.53781 9.54107 8.68571C9.54107 7.83362 8.85227 7.14286 8.0026 7.14286ZM5.4385 8.68571C5.4385 7.26555 6.58649 6.11429 8.0026 6.11429C9.41872 6.11429 10.5667 7.26555 10.5667 8.68571C10.5667 10.1059 9.41872 11.2571 8.0026 11.2571C6.58649 11.2571 5.4385 10.1059 5.4385 8.68571Z" fill="white"/>
</svg>
