<svg width="20" height="20" viewBox="0 0 20 20" fill="none" xmlns="http://www.w3.org/2000/svg">
<path d="M1.25 7.47222C1.25 5.29424 1.25 4.20525 1.67386 3.37337C2.0467 2.64163 2.64163 2.0467 3.37337 1.67386C4.20525 1.25 5.29424 1.25 7.47222 1.25H12.5278C14.7058 1.25 15.7948 1.25 16.6266 1.67386C17.3584 2.0467 17.9533 2.64163 18.3261 3.37337C18.75 4.20525 18.75 5.29424 18.75 7.47222V12.5278C18.75 14.7058 18.75 15.7948 18.3261 16.6266C17.9533 17.3584 17.3584 17.9533 16.6266 18.3261C15.7948 18.75 14.7058 18.75 12.5278 18.75H7.47222C5.29424 18.75 4.20525 18.75 3.37337 18.3261C2.64163 17.9533 2.0467 17.3584 1.67386 16.6266C1.25 15.7948 1.25 14.7058 1.25 12.5278V7.47222Z" fill="white"/>
<path d="M3.125 14.7251C3.125 15.2223 3.53124 15.6251 4.03176 15.6251H4.04479C3.53661 15.6251 3.125 15.2223 3.125 14.7251Z" fill="#FBBC05"/>
<path d="M10.9167 7.74998V10.0997L14.0846 7.54448V5.275C14.0846 4.77775 13.6784 4.375 13.1779 4.375H6.31473L6.30859 7.74998H10.9167Z" fill="#FBBC05"/>
<path d="M10.918 12.4503H6.30224L6.29688 15.6251H13.1792C13.6805 15.6251 14.086 15.2223 14.086 14.7251V12.6761L10.918 10.1006V12.4503Z" fill="#34A853"/>
<path d="M6.31514 4.375L3.125 7.74998H6.30977L6.31514 4.375Z" fill="#EA4335"/>
<path d="M3.125 12.4502V14.7249C3.125 15.2222 3.53661 15.6249 4.04479 15.6249H6.29597L6.30134 12.4502H3.125Z" fill="#1967D2"/>
<path d="M6.30977 7.75H3.125V12.4502H6.30134L6.30977 7.75Z" fill="#4285F4"/>
<path d="M16.8706 13.925V6.20006C16.692 5.17481 15.5676 6.35005 15.5676 6.35005L14.0859 7.5448V12.6755L16.2068 14.3998C16.9725 14.5003 16.8706 13.925 16.8706 13.925Z" fill="#34A853"/>
<path d="M10.918 10.0997L14.0866 12.6759V7.54517L10.918 10.0997Z" fill="#188038"/>
</svg>
