<svg width="32" height="32" viewBox="0 0 32 32" fill="none" xmlns="http://www.w3.org/2000/svg">
<path fill-rule="evenodd" clip-rule="evenodd" d="M26.88 16.2576C26.88 15.454 26.8079 14.6812 26.674 13.9394H16V18.3234H22.0994C21.8367 19.74 21.0382 20.9403 19.8379 21.744V24.5876H23.5006C25.6437 22.6146 26.88 19.7091 26.88 16.2576Z" fill="#4285F4"/>
<path fill-rule="evenodd" clip-rule="evenodd" d="M16 27.3334C19.06 27.3334 21.6254 26.3185 23.5006 24.5876L19.8379 21.744C18.823 22.424 17.5248 22.8258 16 22.8258C13.0481 22.8258 10.5497 20.8321 9.65844 18.1534H5.87207V21.0897C7.73692 24.7937 11.5697 27.3334 16 27.3334Z" fill="#34A853"/>
<path fill-rule="evenodd" clip-rule="evenodd" d="M9.65882 18.1534C9.43215 17.4734 9.30336 16.747 9.30336 16.0001C9.30336 15.2531 9.43215 14.5267 9.65882 13.8467V10.9104H5.87245C5.10487 12.4404 4.66699 14.1713 4.66699 16.0001C4.66699 17.8289 5.10487 19.5598 5.87245 21.0898L9.65882 18.1534Z" fill="#FBBC05"/>
<path fill-rule="evenodd" clip-rule="evenodd" d="M16 9.17427C17.6639 9.17427 19.1578 9.74609 20.3324 10.8691L23.583 7.61851C21.6203 5.78972 19.0548 4.66669 16 4.66669C11.5697 4.66669 7.73692 7.20639 5.87207 10.9103L9.65844 13.8467C10.5497 11.1679 13.0481 9.17427 16 9.17427Z" fill="#EA4335"/>
</svg>
