<svg width="24" height="24" viewBox="0 0 24 24" fill="none" xmlns="http://www.w3.org/2000/svg">
<g id="icon_my">
<rect width="24" height="24" fill="none"/>
<g id="Group 2764">
<path id="Vector" d="M4.20146 21H18.7985C20.2992 21 21.336 19.6588 20.8994 18.3429C20.1628 16.1413 18.553 14.2939 16.4521 13.1299C16.0974 12.9527 15.6881 12.9527 15.3334 13.1552C14.2148 13.7878 12.9051 14.1674 11.4864 14.1674C10.0676 14.1674 8.75793 13.7878 7.63928 13.1552C7.31187 12.9527 6.87532 12.9527 6.52062 13.1299C4.41973 14.2686 2.80996 16.1413 2.10057 18.3429C1.66402 19.6588 2.70083 21 4.20146 21Z" fill="currentColor"/>
<path id="Vector_2" d="M11.658 12C14.4194 12 16.658 9.76142 16.658 7C16.658 4.23858 14.4194 2 11.658 2C8.89653 2 6.65796 4.23858 6.65796 7C6.65796 9.76142 8.89653 12 11.658 12Z" fill="currentColor"/>
</g>
</g>
</svg>
