<svg width="current" height="current" viewBox="0 0 32 32" fill="none" xmlns="http://www.w3.org/2000/svg">
<path fill-rule="evenodd" clip-rule="evenodd" d="M7.50083 17.7871V17.5681C7.53295 16.9202 7.7406 16.2925 8.10236 15.7496C8.7045 15.0975 9.1167 14.2983 9.29571 13.436C9.29571 12.7695 9.29571 12.0935 9.35393 11.427C9.65469 8.21842 12.8273 6 15.9611 6H16.0387C19.1725 6 22.345 8.21842 22.6555 11.427C22.7137 12.0935 22.6555 12.7695 22.704 13.436C22.8854 14.3003 23.2972 15.1019 23.8974 15.7591C24.2618 16.2972 24.4698 16.9227 24.4989 17.5681V17.7776C24.5206 18.648 24.2208 19.4968 23.6548 20.1674C22.907 20.9515 21.8921 21.4393 20.8024 21.5384C17.607 21.8812 14.383 21.8812 11.1876 21.5384C10.0991 21.435 9.08576 20.9479 8.33521 20.1674C7.778 19.4963 7.48224 18.6526 7.50083 17.7871Z" stroke="currentColor" stroke-width="1.5" stroke-linecap="round" stroke-linejoin="round"/>
<path d="M13.5547 24.8516C14.054 25.4782 14.7871 25.8838 15.592 25.9785C16.3968 26.0732 17.2069 25.8493 17.843 25.3562C18.0387 25.2103 18.2147 25.0408 18.3669 24.8516" stroke="currentColor" stroke-width="1.5" stroke-linecap="round" stroke-linejoin="round"/>
</svg>
