<svg width="current" height="current" viewBox="0 0 20 20" fill="none" xmlns="http://www.w3.org/2000/svg">
<path fill-rule="evenodd" clip-rule="evenodd" d="M10.0003 2.94856C6.10601 2.94856 2.94904 6.10552 2.94904 9.99984C2.94904 13.8942 6.10601 17.0511 10.0003 17.0511C13.8946 17.0511 17.0516 13.8942 17.0516 9.99984C17.0516 6.10552 13.8946 2.94856 10.0003 2.94856ZM1.66699 9.99984C1.66699 5.39747 5.39795 1.6665 10.0003 1.6665C14.6027 1.6665 18.3337 5.39747 18.3337 9.99984C18.3337 14.6022 14.6027 18.3332 10.0003 18.3332C5.39795 18.3332 1.66699 14.6022 1.66699 9.99984Z" fill="currentColor"/>
<path fill-rule="evenodd" clip-rule="evenodd" d="M10.0003 13.6323C10.3544 13.6323 10.6414 13.3453 10.6414 12.9913V9.57249C10.6414 9.21846 10.3544 8.93146 10.0003 8.93146C9.6463 8.93146 9.3593 9.21846 9.3593 9.57249V12.9913C9.3593 13.3453 9.6463 13.6323 10.0003 13.6323Z" fill="currentColor"/>
<path d="M10.855 7.00839C10.855 6.53635 10.4724 6.15368 10.0003 6.15368C9.52829 6.15368 9.14563 6.53635 9.14563 7.00839C9.14563 7.48042 9.52829 7.86309 10.0003 7.86309C10.4724 7.86309 10.855 7.48042 10.855 7.00839Z" fill="currentColor"/>
</svg>
