<svg width="20" height="20" viewBox="0 0 20 20" fill="none" xmlns="http://www.w3.org/2000/svg">
<g id="Icon_link" clip-path="url(#clip0_374_3529)">
<path id="Vector" d="M3.25033 10.0002C3.25033 8.57516 4.40866 7.41683 5.83366 7.41683H9.16699V5.8335H5.83366C3.53366 5.8335 1.66699 7.70016 1.66699 10.0002C1.66699 12.3002 3.53366 14.1668 5.83366 14.1668H9.16699V12.5835H5.83366C4.40866 12.5835 3.25033 11.4252 3.25033 10.0002ZM6.66699 10.8335H13.3337V9.16683H6.66699V10.8335ZM14.167 5.8335H10.8337V7.41683H14.167C15.592 7.41683 16.7503 8.57516 16.7503 10.0002C16.7503 11.4252 15.592 12.5835 14.167 12.5835H10.8337V14.1668H14.167C16.467 14.1668 18.3337 12.3002 18.3337 10.0002C18.3337 7.70016 16.467 5.8335 14.167 5.8335Z" fill="black"/>
</g>
<defs>
<clipPath id="clip0_374_3529">
<rect width="20" height="20" fill="white"/>
</clipPath>
</defs>
</svg>
