<svg width="89" height="24" viewBox="0 0 89 24" fill="none" xmlns="http://www.w3.org/2000/svg">
<g id="&#8;logo_small letter">
<path id="Vector" d="M8.2424 18.9575H0V0H8.2424V7.17574L6.90907 10.5212L7.56362 10.6909L10.1818 4.14544H18.3757L14.7636 11.5394L18.3757 18.9575H9.89088L8.2424 15.4909V18.9575Z" fill="#21C46C"/>
<path id="Vector_2" d="M70.2058 18.9575H62.7634C55.83 18.9575 53.0664 16.9697 53.0664 11.2C53.0664 6.06059 56.1937 3.36969 61.9634 3.6606V0H70.2058V18.9575ZM65.2118 10.4727L64.7755 9.86664C63.5876 10.5939 60.7755 11.1272 58.9573 11.1272V11.806C60.7755 11.806 63.8543 11.3454 65.2118 10.4727Z" fill="#FFCD4C"/>
<path id="Vector_3" d="M88.0727 16.7515C88.0727 21.4788 84.9454 24 79.6121 24C77.1394 24 74.3758 23.6606 72.5576 23.0061V17.4788C75.0788 18.6667 78.303 18.9333 80.3152 18.2061V17.4546C75.1273 18.8849 71.1758 16.4121 71.1758 10.9819V4.14551H79.1758V11.9515L80.0727 11.6122V4.14551H88.0727V16.7515Z" fill="#FFCD4C"/>
<g id="Group 5">
<path id="Vector_4" d="M17.4785 11.6121C17.4785 6.78791 21.1634 3.66064 26.0846 3.66064C31.0058 3.66064 34.6906 6.78791 34.6906 11.6121C34.6906 16.4364 31.0058 19.5879 26.0846 19.5879C21.1634 19.5879 17.4785 16.4849 17.4785 11.6121ZM29.43 11.103L28.9936 10.497C27.8058 11.2243 24.9936 11.7576 23.1755 11.7576V12.4364C24.9936 12.4364 28.0724 11.9758 29.43 11.103Z" fill="#21C46C"/>
<path id="Vector_5" d="M52.3151 18.9575H44.8727C37.9394 18.9575 35.1758 16.9697 35.1758 11.2C35.1758 6.06059 38.303 3.36969 44.0727 3.6606V0H52.3151V18.9575ZM47.3212 10.4727L46.8848 9.86664C45.697 10.5939 42.8849 11.1272 41.0667 11.1272V11.806C42.8849 11.806 45.9636 11.3454 47.3212 10.4727Z" fill="#FFCD4C"/>
</g>
</g>
</svg>
