<svg width="161" height="109" viewBox="0 0 161 109" fill="none" xmlns="http://www.w3.org/2000/svg">
<g id="&#235;&#169;&#152;&#237;&#134;&#160;">
<rect width="160" height="108" transform="translate(0.929688 0.5)" fill="white"/>
<g id="Group 2787">
<g id="Group">
<path id="Vector" d="M54.376 50.4051C50.8496 50.5381 47.3422 50.91 43.8735 51.5224C42.4889 51.7795 40.9979 52.1263 40.095 53.2156C39.1248 54.398 39.1174 56.0978 39.4831 57.5923C40.3196 60.9661 42.8208 63.8101 45.8772 65.4758C44.948 65.9499 43.9762 66.4598 43.3516 67.2961C42.727 68.1324 42.5393 69.4016 43.2203 70.2113C43.8118 70.9144 44.867 71.0444 45.7385 70.7829C46.61 70.5214 47.3516 69.9324 48.0524 69.3597C48.0215 69.9502 47.989 70.5604 48.1984 71.1122C48.4079 71.664 48.9198 72.1429 49.4933 72.1327C49.9688 72.1141 50.3716 71.7927 50.6584 71.4415C52.0285 69.7398 51.4775 67.1814 50.5002 65.2193C49.5034 63.2555 48.101 61.4151 47.9136 59.224C47.9074 59.0653 47.9012 58.9066 47.9701 58.7938C48.085 58.606 48.3253 58.5672 48.5443 58.5464C50.5774 58.3251 52.591 58.1021 54.6225 57.9004C55.0605 57.8589 55.5411 57.7814 55.8082 57.4286C55.964 57.2244 56.0071 56.9513 56.029 56.6961C56.2481 54.5992 55.6848 52.4155 54.4701 50.69" fill="#FDAF0F"/>
</g>
<path id="Vector_2" d="M84.0347 106.537C101.914 105.453 116.113 99.6993 115.75 93.6855C115.386 87.6717 100.597 83.6753 82.7173 84.7594C64.8379 85.8434 50.6387 91.5973 51.0025 97.6111C51.3663 103.625 66.1553 107.621 84.0347 106.537Z" fill="#EDEAE7"/>
<g id="Group_2">
<path id="Vector_3" d="M92.001 71.5621C91.023 72.6054 90.8672 74.1937 90.8621 75.6367C90.8103 80.1603 91.4266 84.7213 92.7118 89.0826C92.7588 89.225 92.7863 89.3658 92.7549 89.5015C92.6989 89.6944 92.5319 89.7988 92.3846 89.9048C90.455 91.2225 88.895 93.0662 87.8817 95.2137C87.6402 95.7269 87.4296 96.3416 87.7029 96.8396C88.1128 97.5865 89.1686 97.4792 89.978 97.2519C89.5338 97.8269 89.6116 98.7628 90.1414 99.263C90.6712 99.7632 91.5797 99.7619 92.0972 99.2526C91.6088 99.883 91.8938 100.936 92.5659 101.389C93.2397 101.822 94.1566 101.723 94.8242 101.305C95.4919 100.888 95.9837 100.218 96.3809 99.5008C97.6608 97.2377 98.2805 94.3842 100.346 92.8606C100.957 92.4186 101.634 92.1207 102.246 91.659C102.858 91.1974 103.366 90.5686 103.412 89.8014C103.437 89.2894 103.243 88.7785 103.047 88.3069C101.014 82.9918 100.226 77.2099 100.73 71.5584C97.91 71.9694 94.997 71.8583 92.2094 71.2043" fill="#FDAF0F"/>
</g>
<g id="Group_3">
<path id="Vector_4" d="M73.2818 72.252C71.9717 72.7923 71.1807 74.1878 70.573 75.5198C68.6807 79.6287 67.3938 84.0465 66.7914 88.5427C66.7797 88.6801 66.7466 88.8354 66.6581 88.9465C66.5466 89.0951 66.3456 89.1372 66.1462 89.1597C63.8593 89.5768 61.6575 90.6141 59.8858 92.1628C59.4584 92.5415 59.0226 93.0182 59.0522 93.5942C59.1172 94.45 60.136 94.7745 60.9543 94.9039C60.3129 95.2445 60.0003 96.1272 60.2781 96.8035C60.5559 97.4798 61.3932 97.8482 62.067 97.5895C61.3635 97.9643 61.1909 99.0568 61.6272 99.7269C62.0634 100.397 62.9467 100.69 63.7264 100.579C64.5256 100.469 65.2325 100.055 65.8856 99.5775C67.9743 98.0164 69.694 95.6921 72.21 95.1364C72.9342 94.981 73.7037 94.9876 74.4296 94.8125C75.1555 94.6374 75.8983 94.266 76.2528 93.5845C76.4892 93.1302 76.5167 92.5789 76.5408 92.0669C76.8487 86.3986 78.475 80.784 81.2501 75.8214C78.4922 75.0513 75.899 73.7417 73.619 72.0041" fill="#FDAF0F"/>
</g>
<g id="Group_4">
<g id="Group_5">
<path id="Vector_5" d="M85.0734 16.8698C108.872 18.9083 119.854 35.0148 118.424 53.0835C116.971 71.427 102.768 85.317 79.393 83.1764C55.3907 80.9821 45.2422 66.2124 46.0489 46.8842C46.7652 29.7629 61.1966 14.8246 85.0734 16.8698Z" fill="#FFCC4C"/>
</g>
</g>
<path id="Vector_6" d="M64.5034 51.6746L63.5813 54.6011C71.4097 55.8846 80.8682 54.0452 89.4737 51.5593L88.6992 48.8434C80.0758 51.308 71.5337 52.5931 64.5034 51.6746Z" fill="#38311D" stroke="#38311D" stroke-miterlimit="10" stroke-linecap="round" stroke-linejoin="round"/>
<path id="Vector_7" d="M66.6167 46.3586C68.7387 46.5404 70.6065 44.9652 70.7885 42.8405C70.9705 40.7157 69.3979 38.8458 67.2758 38.6641C65.1538 38.4823 63.286 40.0574 63.104 42.1822C62.922 44.307 64.4947 46.1769 66.6167 46.3586Z" fill="#38311D"/>
<path id="Vector_8" d="M80.894 44.7541C83.016 44.9359 84.8838 43.3607 85.0658 41.236C85.2479 39.1112 83.6752 37.2413 81.5532 37.0596C79.4312 36.8778 77.5634 38.453 77.3813 40.5777C77.1993 42.7025 78.772 44.5724 80.894 44.7541Z" fill="#38311D"/>
<g id="Group_6">
<path id="Vector_9" d="M108.426 41.8658C111.95 41.9897 115.452 42.3688 118.932 43.003C120.313 43.2596 121.823 43.6065 122.717 44.6916C123.684 45.8618 123.694 47.583 123.311 49.0529C122.468 52.441 119.957 55.2511 116.91 56.9279C117.837 57.4028 118.8 57.9203 119.438 58.7659C120.057 59.6098 120.245 60.8716 119.564 61.6832C118.97 62.3838 117.913 62.5107 117.046 62.2585C116.179 62.0063 115.44 61.4091 114.721 60.8137C114.749 61.4093 114.777 62.0048 114.571 62.5606C114.366 63.1165 113.852 63.5865 113.26 63.5754C112.788 63.5547 112.38 63.243 112.095 62.8824C110.722 61.1632 111.275 58.6203 112.272 56.6691C113.269 54.7178 114.672 52.8607 114.878 50.6836C114.891 50.5265 114.905 50.3695 114.817 50.2433C114.695 50.0549 114.461 50.0151 114.246 49.9967C112.23 49.7845 110.196 49.5509 108.18 49.3387C107.751 49.2822 107.262 49.2206 106.997 48.8617C106.837 48.6503 106.8 48.3901 106.783 48.1315C106.568 46.0369 107.13 43.8507 108.345 42.1159" fill="#FDAF0F"/>
</g>
<g id="Group_7">
<path id="Vector_10" d="M75.2897 14.4695L62.8451 11.2878L63.7651 23.3688C63.9123 25.3389 69.4174 26.5421 76.0574 26.0233C82.6974 25.5046 87.9636 23.5038 87.7968 21.532L86.888 9.55077L75.2897 14.4695Z" fill="#5B6D80"/>
<path id="Vector_11" d="M75.288 14.4695L62.8434 11.2879L63.0175 13.636L75.3461 16.788L87.0491 11.7992L86.888 9.53124L75.288 14.4695Z" fill="#4F6172"/>
<path id="Vector_12" d="M75.1771 14.6181L90.732 8.00168C91.6545 7.60615 91.5532 6.25291 90.5865 6.01192L74.2196 1.82203L58.6647 8.43843C57.7422 8.83396 57.8435 10.1872 58.8102 10.4282L75.1771 14.6181Z" fill="#5B6D80"/>
</g>
<path id="Vector_13" d="M90.6666 45.7598C92.2762 45.3918 93.3969 44.2892 93.1697 43.2969C92.9426 42.3046 91.4536 41.7984 89.8441 42.1663C88.2345 42.5343 87.1138 43.6369 87.341 44.6292C87.5681 45.6215 89.0571 46.1277 90.6666 45.7598Z" fill="#FDAF0F"/>
<path id="Vector_14" d="M60.0432 49.5989C61.6911 49.7006 63.0776 48.9593 63.14 47.9433C63.2023 46.9272 61.917 46.0211 60.269 45.9195C58.6211 45.8178 57.2346 46.559 57.1722 47.5751C57.1098 48.5911 58.3952 49.4972 60.0432 49.5989Z" fill="#FDAF0F"/>
</g>
</g>
</svg>
