<svg width="160" height="109" viewBox="0 0 160 109" fill="none" xmlns="http://www.w3.org/2000/svg">
<g id="&#235;&#169;&#152;&#237;&#139;&#176;">
<rect width="160" height="108" transform="translate(0 0.5)" fill="white"/>
<g id="Group 2788">
<path id="Vector" d="M94.1928 63.1968C92.6965 64.9202 90.9209 66.437 88.9762 67.6587C87.5971 68.5395 86.0796 69.3046 85.1072 70.6073C84.157 71.9375 84.0258 74.0615 85.356 75.0117C86.7304 76.0171 88.6814 75.1986 90.3692 75.408C90.4559 75.9961 90.1422 76.5656 89.9057 77.1184C89.6693 77.6712 89.5879 78.417 90.0498 78.7945C90.3734 79.0562 90.8263 79.0554 91.2377 78.9745C92.4495 78.7043 93.4725 77.86 94.1858 76.8561C94.8992 75.8523 95.3775 74.697 95.831 73.539C96.3147 72.3339 96.7763 71.1013 97.2601 69.8963C97.4305 69.4873 97.5761 69.0755 97.5725 68.6474C97.5685 67.9929 97.1559 67.3944 96.7875 66.8511C96.0703 65.8168 95.3254 64.8047 94.6082 63.7704" fill="#17AA55"/>
<g id="Group">
<path id="Vector_2" d="M60.6126 58.7186C61.6303 61.0583 62.8355 63.386 64.6292 65.2026C66.4229 67.0192 68.8976 68.2998 71.4496 68.1552C72.0686 68.1155 72.7402 68.0157 73.2347 68.3817C73.8878 68.8701 73.7897 69.9746 73.2249 70.56C72.66 71.1453 71.8082 71.3703 71.0066 71.4974C71.8436 71.9172 72.6818 72.3558 73.3108 73.0541C73.9386 73.7334 74.342 74.7301 74.0793 75.618C73.8618 76.3326 73.257 76.8826 72.6025 77.2465C70.1986 78.5177 67.1408 77.5396 65.0857 75.7587C63.0307 73.9778 61.6499 72.7218 60.1107 70.4723C58.488 68.0956 56.6445 64.6348 55.7525 61.9083C55.6356 61.556 55.535 61.1648 55.6818 60.8146C55.796 60.5421 56.0277 60.3379 56.2617 60.1714C57.4109 59.3025 58.8071 58.7586 60.2465 58.5906" fill="#17AA55"/>
</g>
<path id="Vector_3" d="M112.258 104.676C127.688 105.526 140.448 101.687 140.76 96.101C141.071 90.5144 128.816 85.2959 113.386 84.445C97.9571 83.5941 85.1967 87.4331 84.8852 93.0196C84.5737 98.6061 96.829 103.825 112.258 104.676Z" fill="#EDEAE7"/>
<path id="Vector_4" d="M77.461 91.9035C77.1277 86.4338 64.3535 82.7558 48.9289 83.6884C33.5043 84.6211 21.2703 89.8112 21.6036 95.2808C21.9369 100.751 34.7111 104.429 50.1357 103.496C65.5603 102.563 77.7943 97.3732 77.461 91.9035Z" fill="#EDEAE7"/>
<g id="Group_2">
<path id="Vector_5" d="M122.568 71.7494C121.577 72.6944 121.34 74.2068 121.255 75.5884C120.953 79.9176 121.287 84.3198 122.269 88.5677C122.306 88.7067 122.325 88.843 122.287 88.9713C122.223 89.1529 122.058 89.2436 121.911 89.337C119.998 90.492 118.407 92.1712 117.321 94.1717C117.062 94.6498 116.827 95.2268 117.06 95.7188C117.409 96.4569 118.422 96.4126 119.207 96.2398C118.751 96.7658 118.773 97.6665 119.25 98.1748C119.728 98.6832 120.594 98.7323 121.116 98.2732C120.615 98.8499 120.829 99.8737 121.444 100.345C122.063 100.797 122.943 100.753 123.603 100.39C124.281 100.03 124.769 99.4133 125.188 98.7483C126.535 96.6519 127.285 93.9534 129.34 92.6088C129.947 92.2193 130.609 91.9716 131.219 91.5634C131.826 91.1739 132.348 90.5812 132.435 89.849C132.486 89.3599 132.331 88.86 132.169 88.3974C130.527 83.1947 130.097 77.6138 130.893 72.2294C128.181 72.4668 125.409 72.199 122.787 71.4183" fill="#17AA55"/>
</g>
<g id="Group_3">
<path id="Vector_6" d="M104.681 71.3784C103.401 71.8233 102.569 73.1158 101.915 74.3578C99.8818 78.1878 98.4083 82.3472 97.5832 86.6196C97.5644 86.7505 97.5242 86.8974 97.4336 86.9989C97.319 87.1351 97.1249 87.1642 96.9335 87.1747C94.7293 87.4474 92.5717 88.3188 90.7958 89.7038C90.3671 90.0427 89.9249 90.4752 89.9211 91.0284C89.9353 91.8515 90.8888 92.2188 91.662 92.388C91.0314 92.6786 90.6841 93.5067 90.9113 94.1697C91.1385 94.8328 91.9164 95.2319 92.5735 95.0215C91.8817 95.3414 91.6562 96.3781 92.0349 97.044C92.4136 97.7099 93.2396 98.0395 93.9893 97.9763C94.7577 97.9157 95.4549 97.5584 96.1043 97.1369C98.1833 95.7576 99.9528 93.627 102.383 93.2342C103.083 93.1255 103.816 93.1744 104.518 93.0469C105.22 92.9195 105.949 92.605 106.325 91.972C106.576 91.55 106.633 91.0236 106.685 90.5346C107.294 85.1235 109.158 79.8368 112.081 75.2381C109.494 74.3478 107.094 72.95 105.016 71.1597" fill="#17AA55"/>
</g>
<g id="Group_4">
<path id="Vector_7" d="M38.737 72.5295C39.6857 73.5102 39.8595 75.033 39.8935 76.4322C40.0239 80.7794 39.4965 85.1499 38.3367 89.3525C38.3077 89.4869 38.26 89.6225 38.306 89.7521C38.3557 89.9383 38.5131 90.0419 38.6705 90.1454C40.5391 91.3702 42.0655 93.1283 43.0638 95.1664C43.303 95.6623 43.5109 96.255 43.2588 96.7257C42.8912 97.4499 41.8685 97.3639 41.1011 97.148C41.5316 97.6885 41.4764 98.5821 40.9804 99.0684C40.4844 99.5546 39.6191 99.5722 39.1172 99.0931C39.5889 99.6878 39.3346 100.708 38.7037 101.146C38.0727 101.584 37.2001 101.488 36.5355 101.114C35.8697 100.721 35.3955 100.089 35.0128 99.4128C33.7621 97.2584 33.1339 94.5338 31.1205 93.1099C30.5473 92.6922 29.87 92.4136 29.2967 91.9959C28.7235 91.5781 28.1943 90.9681 28.1468 90.2326C28.115 89.7423 28.2909 89.2576 28.468 88.7917C30.322 83.6735 30.9977 78.1005 30.4039 72.7036C33.1017 73.061 35.8792 72.902 38.5487 72.2386" fill="#17AA55"/>
</g>
<g id="Group_5">
<path id="Vector_8" d="M57.6245 70.7857C58.9003 71.2909 59.6633 72.6055 60.2726 73.8731C62.1455 77.7866 63.4539 82.0014 64.0907 86.316C64.118 86.4468 64.1278 86.5977 64.2289 86.7048C64.3512 86.8485 64.5412 86.8742 64.7125 86.9011C66.9012 87.2532 69.0176 88.2349 70.7507 89.6956C71.169 90.0475 71.5934 90.4938 71.5537 91.0455C71.5123 91.8624 70.5353 92.1901 69.7524 92.316C70.3758 92.6359 70.6745 93.4689 70.4158 94.1293C70.1572 94.7897 69.3702 95.1431 68.7341 94.9188C69.4162 95.2727 69.5958 96.3027 69.1871 96.9728C68.7772 97.6239 67.9478 97.9043 67.1889 97.8204C66.4301 97.7364 65.7268 97.346 65.1137 96.8929C63.098 95.4313 61.41 93.2103 59.0052 92.7205C58.299 92.5764 57.585 92.6032 56.8788 92.4591C56.1726 92.315 55.453 91.9634 55.1277 91.3025C54.8921 90.8631 54.878 90.3527 54.8275 89.8636C54.4376 84.4159 52.7922 79.0676 50.0767 74.3559C52.6812 73.5641 55.1602 72.288 57.3098 70.5786" fill="#17AA55"/>
</g>
<g id="Group_6">
<g id="Group_7">
<g id="Group_8">
<path id="Vector_9" d="M117.901 26.4798C117.84 25.9848 117.779 25.4899 117.736 25.0007C117.751 25.2036 117.766 25.4065 117.799 25.6151C117.55 22.9005 117.664 20.1618 118.13 17.4949C118.085 17.6988 118.059 17.9084 118.014 18.1123C118.096 17.6031 118.201 17.0814 118.318 16.5835C118.458 15.9537 118.467 15.362 118.155 14.7876C117.885 14.2664 117.348 13.7795 116.787 13.6217C116.207 13.4583 115.535 13.4637 114.999 13.7895C114.492 14.0849 113.981 14.5775 113.836 15.1656C113.15 18.2187 112.828 21.3672 113.006 24.4953C113.062 25.5041 113.173 26.53 113.307 27.5436C113.387 28.1039 113.866 28.7113 114.328 28.9962C114.821 29.3105 115.555 29.4833 116.123 29.3064C116.704 29.1531 117.264 28.815 117.571 28.278C117.652 28.0854 117.75 27.8985 117.83 27.7059C117.979 27.2971 117.991 26.8846 117.901 26.4798Z" fill="#17AA55"/>
</g>
</g>
<g id="Group_9">
<path id="Vector_10" d="M111.785 16.2607C110.71 15.9208 109.721 15.3703 108.83 14.633C107.114 13.199 106.043 11.1566 105.802 8.92078C105.787 8.71795 105.832 8.5141 105.978 8.36226C106.107 8.20475 106.296 8.10595 106.498 8.09054C107.585 8.01814 108.645 8.15526 109.666 8.47821C110.742 8.81816 111.731 9.36864 112.622 10.106C114.337 11.54 115.408 13.5824 115.649 15.8182C115.664 16.021 115.619 16.2249 115.473 16.3767C115.345 16.5342 115.156 16.633 114.954 16.6484C113.867 16.7208 112.806 16.5837 111.785 16.2607Z" fill="#17AA55"/>
<path id="Vector_11" d="M109.438 9.19888C110.388 9.49917 111.316 9.99097 112.123 10.682C113.743 12.046 114.686 13.9293 114.894 15.897C113.926 15.9674 112.937 15.8529 111.987 15.5526C111.037 15.2523 110.108 14.7605 109.302 14.0695C107.682 12.7055 106.739 10.8221 106.531 8.85449C107.523 8.77177 108.506 8.90425 109.438 9.19888ZM109.892 7.75747C108.781 7.40619 107.625 7.25876 106.437 7.33887C106.034 7.36969 105.638 7.56165 105.381 7.87667C105.124 8.1917 104.994 8.6061 105.041 9.01744C105.297 11.4562 106.477 13.652 108.326 15.2272C109.277 16.0232 110.35 16.6201 111.533 16.994C112.644 17.3453 113.8 17.4927 114.987 17.4126C115.391 17.3818 115.787 17.1898 116.044 16.8748C116.301 16.5598 116.431 16.1454 116.384 15.734C116.128 13.2953 114.948 11.0995 113.099 9.52433C112.154 8.71025 111.075 8.13143 109.892 7.75747Z" fill="#17AA55"/>
</g>
<g id="Group_10">
<path id="Vector_12" d="M115.471 16.8695C115.292 16.8129 115.117 16.6784 115.032 16.5126C114.934 16.3231 114.919 16.1203 114.981 15.922C115.693 13.7889 117.177 12.019 119.142 10.9756C121.113 9.91417 123.393 9.68385 125.548 10.2861L125.566 10.2918C125.745 10.3484 125.92 10.4828 126.005 10.6486C126.103 10.8381 126.118 11.041 126.056 11.2392C125.344 13.3723 123.86 15.1423 121.895 16.1857C119.925 17.2471 117.645 17.4774 115.489 16.8752C115.471 16.8695 115.471 16.8695 115.471 16.8695Z" fill="#17AA55"/>
<path id="Vector_13" d="M125.343 10.9945C124.71 12.8753 123.421 14.5285 121.532 15.5168C119.662 16.5107 117.559 16.6783 115.678 16.143C116.311 14.2622 117.6 12.6091 119.489 11.6208C121.359 10.6268 123.462 10.4593 125.343 10.9945ZM125.797 9.55289L125.779 9.54722C125.761 9.54156 125.761 9.54156 125.743 9.53589C123.391 8.87132 120.921 9.14074 118.785 10.2886C116.632 11.4308 115.025 13.3403 114.25 15.6717C114.125 16.0681 114.149 16.4919 114.351 16.8528C114.535 17.2081 114.848 17.4656 115.224 17.5846C115.242 17.5903 115.26 17.596 115.26 17.596C117.612 18.2605 120.082 17.9911 122.236 16.8489C124.371 15.701 125.973 13.8095 126.759 11.5019C126.765 11.4839 126.771 11.4659 126.776 11.4478C127.026 10.6549 126.604 9.80788 125.797 9.55289Z" fill="#17AA55"/>
</g>
</g>
<g id="Group_11">
<g id="Group_12">
<g id="Group_13">
<path id="Vector_14" d="M49.0723 29.5855C49.3738 27.9475 49.6019 26.3262 49.6665 24.6645C49.7311 23.0028 49.6489 21.3744 49.485 19.7258C49.4101 18.8902 49.276 18.0487 49.1278 17.2298C49.0158 16.6545 48.5711 16.0579 48.0793 15.7626C47.5834 15.4489 46.8742 15.2999 46.3098 15.4474C45.0386 15.7941 44.3034 16.9686 44.5426 18.2707C44.7077 19.1633 44.8318 20.0458 44.9052 20.9592C44.8773 20.7524 44.8677 20.5415 44.8398 20.3346C45.0966 23.0666 44.9739 25.8266 44.4917 28.5326C44.523 28.3317 44.5544 28.1309 44.604 27.9258C44.5842 28.0078 44.5685 28.1083 44.5486 28.1903C44.4424 28.4857 44.4179 28.8013 44.4668 29.1002C44.4649 29.43 44.5505 29.7206 44.7137 30.013C44.9823 30.514 45.5161 30.9935 46.0743 31.1574C46.6692 31.313 47.3448 31.3146 47.8897 30.9972C48.4304 30.6613 48.9557 30.1739 49.0723 29.5855Z" fill="#17AA55"/>
</g>
</g>
<g id="Group_14">
<path id="Vector_15" d="M50.8254 18.41C49.8906 18.6223 48.9181 18.6689 47.9528 18.5782C47.7527 18.5461 47.5584 18.4547 47.4431 18.2871C47.3094 18.1238 47.2632 17.9212 47.2946 17.7203C47.6348 15.4927 48.8048 13.5222 50.5743 12.1517C51.5747 11.382 52.6889 10.8577 53.8985 10.583C54.8333 10.3707 55.8058 10.3241 56.7711 10.4149C56.9712 10.4469 57.1655 10.5384 57.2808 10.7059C57.4145 10.8693 57.4607 11.0719 57.4294 11.2727C57.0891 13.5003 55.9191 15.4708 54.1497 16.8413C53.1676 17.6068 52.035 18.1353 50.8254 18.41Z" fill="#17AA55"/>
<path id="Vector_16" d="M54.0609 11.3011C54.9223 11.1054 55.8174 11.0571 56.6868 11.1502C56.3794 13.0992 55.3717 14.9361 53.6996 16.2264C52.7641 16.9426 51.7331 17.4092 50.6517 17.6548C49.7903 17.8505 48.8953 17.8988 48.0258 17.8057C48.3332 15.8567 49.3409 14.0198 51.013 12.7295C51.9485 12.0133 52.9795 11.5467 54.0609 11.3011ZM53.7249 9.82755C52.4053 10.1273 51.1853 10.695 50.1058 11.5407C48.1882 13.0224 46.9235 15.1695 46.5477 17.5796C46.4851 17.9813 46.6 18.4007 46.849 18.7316C47.0979 19.0626 47.4725 19.2681 47.8868 19.3096C48.9338 19.4205 49.9839 19.3757 51.0103 19.1426C52.3299 18.8429 53.5499 18.2752 54.6294 17.4294C56.547 15.9477 57.8117 13.8007 58.1875 11.3906C58.2501 10.9889 58.1351 10.5694 57.8862 10.2385C57.6372 9.90759 57.2627 9.70207 56.8484 9.66056C55.7972 9.53123 54.7513 9.59442 53.7249 9.82755Z" fill="#17AA55"/>
</g>
<g id="Group_15">
<path id="Vector_17" d="M47.345 18.7948C45.1821 19.2861 42.926 18.946 41.0277 17.8078C39.1069 16.6552 37.6917 14.8454 37.0818 12.6782C37.0173 12.4797 37.0444 12.2604 37.1574 12.0798C37.2521 11.9033 37.437 11.7838 37.6344 11.7196L37.6894 11.7071C39.8523 11.2158 42.1084 11.5559 44.0067 12.6942C45.9275 13.8467 47.3428 15.6565 47.9526 17.8237C48.0171 18.0222 47.99 18.2415 47.877 18.4221C47.7823 18.5987 47.5975 18.7181 47.4 18.7823L47.345 18.7948Z" fill="#17AA55"/>
<path id="Vector_18" d="M37.859 12.4442C39.7653 12.0112 41.8129 12.2824 43.6352 13.3411C45.4617 14.4181 46.7009 16.1324 47.2294 18.0274C47.2111 18.0315 47.1927 18.0357 47.1744 18.0399C45.2681 18.4728 43.2205 18.2016 41.3982 17.143C39.5717 16.0659 38.3325 14.3517 37.804 12.4567C37.8223 12.4525 37.8406 12.4484 37.859 12.4442ZM37.5229 10.9705L37.4679 10.983C37.0647 11.0746 36.7176 11.3278 36.5098 11.685C36.3021 12.0422 36.2436 12.4623 36.3544 12.8635C37.0288 15.2291 38.541 17.2107 40.6336 18.4404C42.708 19.6743 45.1459 20.0506 47.5104 19.5136L47.5654 19.5011C47.9687 19.4095 48.3158 19.1563 48.5236 18.7991C48.7313 18.4419 48.7897 18.0217 48.679 17.6206C48.0046 15.255 46.4924 13.2734 44.3997 12.0437C42.307 10.8139 39.8692 10.4376 37.5229 10.9705Z" fill="#17AA55"/>
</g>
</g>
<g id="Group_16">
<path id="Vector_19" d="M117.517 26.7571C137.62 28.9048 146.633 42.7741 145.089 58.0929C143.53 73.6389 131.266 85.2094 111.535 82.982C91.2805 80.6978 82.9561 67.9784 83.9742 51.5713C84.8714 37.0561 97.3398 24.5986 117.517 26.7571Z" fill="#20C46C"/>
<path id="Vector_20" d="M116.395 52.5057C118.035 52.3159 119.269 51.3423 119.152 50.3311C119.035 49.32 117.61 48.6541 115.97 48.8439C114.33 49.0336 113.095 50.0072 113.212 51.0184C113.33 52.0296 114.754 52.6955 116.395 52.5057Z" fill="#00AD50"/>
<path id="Vector_21" d="M90.941 52.6571C92.5661 52.9488 94.029 52.3729 94.2085 51.3709C94.388 50.3689 93.2161 49.3202 91.591 49.0285C89.9659 48.7369 88.5029 49.3128 88.3234 50.3148C88.1439 51.3168 89.3158 52.3655 90.941 52.6571Z" fill="#00AD50"/>
</g>
<g id="Group 2785">
<path id="Vector_22" d="M95.1172 54.3688L94.0058 56.7129C100.419 58.6994 108.57 58.2546 116.057 57.1631L115.719 54.7841C108.214 55.8708 100.899 55.9519 95.1172 54.3688Z" fill="#38311D"/>
<path id="Vector_23" d="M96.3898 49.914C98.1345 50.3799 99.9283 49.335 100.396 47.5801C100.864 45.8252 99.8295 44.0248 98.0848 43.5589C96.3401 43.093 94.5463 44.138 94.0783 45.8929C93.6102 47.6478 94.6451 49.4481 96.3898 49.914Z" fill="#38311D"/>
<path id="Vector_24" d="M108.538 50.2241C110.283 50.69 112.077 49.645 112.545 47.8901C113.013 46.1352 111.978 44.3349 110.233 43.869C108.489 43.4031 106.695 44.448 106.227 46.2029C105.759 47.9578 106.794 49.7582 108.538 50.2241Z" fill="#38311D"/>
</g>
<g id="Group_17">
<path id="Vector_25" d="M75.1535 52.6749C75.5004 69.1078 66.6559 81.4524 46.3145 82.8882C26.5157 84.2703 14.7369 72.2055 13.8223 56.6043C12.9223 41.2294 22.5038 27.7582 42.6662 26.4664C62.9224 25.1686 74.8535 38.1326 75.1535 52.6749Z" fill="#20C46C"/>
<path id="Vector_26" d="M68.3946 53.5052C70.0347 53.3154 71.2692 52.3418 71.1519 51.3306C71.0346 50.3195 69.6099 49.6536 67.9697 49.8434C66.3296 50.0332 65.0951 51.0067 65.2124 52.0179C65.3297 53.0291 66.7544 53.695 68.3946 53.5052Z" fill="#00AD50"/>
<path id="Vector_27" d="M42.9547 52.6069C44.5857 52.8639 46.036 52.257 46.1941 51.2514C46.3523 50.2458 45.1583 49.2223 43.5273 48.9653C41.8964 48.7083 40.446 49.3152 40.2879 50.3208C40.1298 51.3264 41.3238 52.3499 42.9547 52.6069Z" fill="#00AD50"/>
</g>
<g id="Group 2786">
<path id="Vector_28" d="M44.2752 54.5294L43.1387 56.7615C50.5463 58.3312 57.959 59.1052 64.4841 57.7961L64.8419 55.4625C58.9696 56.6729 51.6828 56.0992 44.2752 54.5294Z" fill="#38311D"/>
<path id="Vector_29" d="M62.4365 51.1285C64.2386 51.0127 65.6047 49.4496 65.4878 47.6372C65.3708 45.8247 63.8151 44.4492 62.013 44.5649C60.2109 44.6806 58.8448 46.2437 58.9617 48.0562C59.0787 49.8687 60.6344 51.2442 62.4365 51.1285Z" fill="#38311D"/>
<path id="Vector_30" d="M50.2763 50.6402C52.0784 50.5245 53.4445 48.9614 53.3276 47.1489C53.2107 45.3364 51.655 43.9609 49.8529 44.0766C48.0507 44.1923 46.6846 45.7554 46.8016 47.5679C46.9185 49.3804 48.4742 50.7559 50.2763 50.6402Z" fill="#38311D"/>
</g>
<g id="Group_18">
<path id="Vector_31" d="M30.6399 52.5047C30.9921 55.0386 31.5343 57.5982 32.7898 59.8281C34.0265 62.0591 36.0889 63.9533 38.5737 64.5137C39.1849 64.6449 39.85 64.7349 40.2393 65.2212C40.7333 65.8713 40.3478 66.8997 39.6594 67.3225C38.9523 67.7465 38.0845 67.7264 37.2682 67.6272C37.9499 68.2652 38.6503 68.9021 39.0815 69.7456C39.5115 70.5702 39.6173 71.6238 39.1234 72.4319C38.731 73.063 38.0014 73.4317 37.2584 73.5929C34.603 74.1797 31.9076 72.4019 30.4047 70.131C28.9017 67.8602 27.8953 66.2772 27.0318 63.7003C26.1022 60.9762 25.252 57.1486 25.123 54.2784C25.0986 53.9013 25.1105 53.5028 25.336 53.2043C25.509 52.966 25.783 52.8348 26.0595 52.7414C27.4007 52.2199 28.8977 52.0672 30.3252 52.2976" fill="#19A14D"/>
</g>
<path id="Vector_32" d="M139.066 63.7548C133.352 62.175 128.807 60.0186 124.726 55.6988C124.454 55.4177 124.186 55.1116 123.86 54.8748C123.58 54.6682 123.295 54.5113 122.986 54.3517C122.532 54.1261 122.079 53.9005 121.742 53.5366C121.404 53.1727 120.523 51.5671 120.745 51.1386C121.183 50.3562 122.407 50.666 123.159 51.1506C123.488 51.3626 123.864 51.6049 124.206 51.4662C124.783 51.2524 124.649 50.4076 124.435 49.8308C123.88 48.2356 123.707 46.1288 125.053 45.0933C126.399 44.0579 128.48 44.8134 129.433 46.2255C130.385 47.6377 130.494 49.4105 130.536 51.1005C130.562 51.7826 130.56 52.4869 130.951 53.0578C131.189 53.4108 131.537 53.6753 131.889 53.9149C134.602 55.7959 137.579 57.3285 140.699 58.4741C140.942 58.551 141.207 58.6554 141.362 58.8484C141.54 59.069 141.582 59.3755 141.574 59.6765C141.577 61.2617 140.801 62.8374 139.563 63.8091" fill="#19A14D"/>
</g>
</g>
</svg>
