<svg width="current" height="current" viewBox="0 0 21 20" fill="none" xmlns="http://www.w3.org/2000/svg">
<g id="Refresh" clip-path="url(#clip0_1825_14617)">
<path id="Vector" d="M15.2085 5.29159C14.0001 4.08325 12.3418 3.33325 10.5001 3.33325C6.8168 3.33325 3.8418 6.31659 3.8418 9.99992C3.8418 13.6833 6.8168 16.6666 10.5001 16.6666C13.6085 16.6666 16.2001 14.5416 16.9418 11.6666H15.2085C14.5251 13.6083 12.6751 14.9999 10.5001 14.9999C7.7418 14.9999 5.50013 12.7583 5.50013 9.99992C5.50013 7.24159 7.7418 4.99992 10.5001 4.99992C11.8835 4.99992 13.1168 5.57492 14.0168 6.48325L11.3335 9.16658H17.1668V3.33325L15.2085 5.29159Z" fill="#4B4B4B"/>
</g>
<defs>
<clipPath id="clip0_1825_14617">
<rect width="20" height="20" fill="white" transform="translate(0.5)"/>
</clipPath>
</defs>
</svg>
