<svg width="208" height="208" viewBox="0 0 208 208" fill="none" xmlns="http://www.w3.org/2000/svg">
<g clip-path="url(#clip0_174_10185)">
<path fill-rule="evenodd" clip-rule="evenodd" d="M23.3045 52.8646C44.3172 19.2291 85.6338 7.06017 124.38 15.7493C164.753 24.8033 201.571 52.4804 205.23 93.6633C208.943 135.45 178.422 170.782 139.558 186.579C101.954 201.865 58.2727 194.889 31.6195 164.232C4.59555 133.149 1.50898 87.7532 23.3045 52.8646Z" fill="#0EBE5F"/>
<path d="M51.3702 90.0119L42 53.5776L56.5698 52.1009L59.277 64.2879L60.3164 51.7212L68.8501 50.8563L72.411 63.1679L72.6178 50.6856L87.1876 49.2089L85.2971 86.5733L70.7273 88.05L67.3359 77.4109L65.9401 88.5352L51.3702 90.0119Z" fill="white"/>
<path d="M122.028 91.4719L92.5008 90.7653L93.3906 53.5825L122.918 54.2891L122.652 65.423L107.466 65.0596L107.426 66.7401L122.611 67.1035L122.335 78.6575L107.149 78.2941L107.109 79.9747L122.295 80.3381L122.028 91.4719Z" fill="white"/>
<path d="M162.229 88.0198L133.375 90.8146L129.789 53.7944L146.603 52.1658L148.913 76.0093L160.952 74.8432L162.229 88.0198Z" fill="white"/>
<path d="M22.9086 110.317C24.8254 97.731 32.4445 92.0232 44.4014 93.8442C50.1736 94.7233 54.2792 96.8509 58.0973 100.866L55.9569 114.921C48.7416 113.822 43.2713 112.345 35.6611 109.683L35.4375 111.152C42.3973 113.929 48.9303 115.353 55.7333 116.389L53.8485 128.765C48.23 132.417 43.5029 132.985 36.6999 131.948C26.5665 130.62 20.9919 122.903 22.9086 110.317Z" fill="white"/>
<path d="M129.525 107.641L127.238 114.585L128.503 115L134.329 98.1649L150.754 98.096L150.909 134.869L138.063 134.923L138.01 122.315L134.272 134.729L125.638 134.765L121.796 122.383L121.849 134.991L108.793 135.046L108.637 97.8525L126.325 97.7783L129.525 107.641Z" fill="white"/>
<path d="M184.441 134.468L155.01 131.988L158.133 94.9263L187.564 97.4063L186.629 108.504L171.493 107.229L171.352 108.904L186.488 110.179L185.518 121.696L170.381 120.42L170.24 122.095L185.377 123.371L184.441 134.468Z" fill="white"/>
<path d="M92.3085 115.671C92.5478 121.385 88.1099 126.211 82.3961 126.45C76.6823 126.689 71.8563 122.251 71.6169 116.538C71.3776 110.824 75.8156 105.998 81.5294 105.759C87.2432 105.519 92.0691 109.957 92.3085 115.671Z" fill="#0EBE5F"/>
<path d="M61.6586 114.382C62.2828 102.67 71.6338 95.554 83.5817 96.1908C95.5297 96.8276 104.071 104.897 103.447 116.609C102.823 128.322 93.4687 135.497 81.5207 134.86C69.5728 134.223 61.028 126.212 61.6586 114.382ZM90.7409 114.693L89.7599 113.165C86.7818 114.777 79.8854 115.708 75.4711 115.473L75.3833 117.121C79.7976 117.356 87.332 116.636 90.7409 114.693Z" fill="#FFCD4C"/>
<path d="M84.1162 112.187C82.6185 112.107 81.469 110.829 81.5488 109.331C81.6286 107.834 82.9074 106.685 84.4052 106.765C85.903 106.845 87.0525 108.123 86.9727 109.62C86.8929 111.118 85.614 112.267 84.1162 112.187Z" fill="#0EBE5F"/>
<path d="M75.6045 112.291C74.1067 112.211 72.9572 110.933 73.037 109.435C73.1168 107.938 74.3957 106.789 75.8935 106.869C77.3913 106.949 78.5408 108.227 78.461 109.724C78.3812 111.222 77.1023 112.371 75.6045 112.291Z" fill="#0EBE5F"/>
</g>
<defs>
<clipPath id="clip0_174_10185">
<rect width="208" height="208" fill="white"/>
</clipPath>
</defs>
</svg>
