<svg width="20" height="20" viewBox="0 0 20 20" fill="none" xmlns="http://www.w3.org/2000/svg">
<path d="M1.25 7.25C1.25 5.1498 1.25 4.0997 1.65873 3.29754C2.01825 2.59193 2.59193 2.01825 3.29754 1.65873C4.0997 1.25 5.1498 1.25 7.25 1.25H12.75C14.8502 1.25 15.9003 1.25 16.7025 1.65873C17.4081 2.01825 17.9817 2.59193 18.3413 3.29754C18.75 4.0997 18.75 5.1498 18.75 7.25V12.75C18.75 14.8502 18.75 15.9003 18.3413 16.7025C17.9817 17.4081 17.4081 17.9817 16.7025 18.3413C15.9003 18.75 14.8502 18.75 12.75 18.75H7.25C5.1498 18.75 4.0997 18.75 3.29754 18.3413C2.59193 17.9817 2.01825 17.4081 1.65873 16.7025C1.25 15.9003 1.25 14.8502 1.25 12.75V7.25Z" fill="#4087FC"/>
<path d="M5.16667 6.25C4.72944 6.25 4.375 6.64975 4.375 7.14286V11.4732C4.375 12.7306 5.27883 13.75 6.39375 13.75L11.0833 13.7054C11.5206 13.7054 11.875 13.3056 11.875 12.8125V8.43752C11.875 7.18008 10.8024 6.25002 9.6875 6.25002L5.16667 6.25Z" fill="white"/>
<path d="M12.9451 7.95475C12.6622 8.23448 12.5 8.63819 12.5 9.06252V10.8746C12.5 11.2989 12.6622 11.7026 12.9451 11.9823L14.7055 13.5328C15.0637 13.887 15.625 13.6001 15.625 13.0628V6.95948C15.625 6.42222 15.0637 6.13533 14.7055 6.48951L12.9451 7.95475Z" fill="white"/>
</svg>
